<?xml version="1.0" encoding="utf-8"?>
<!-- Generator: Adobe Illustrator 22.0.0, SVG Export Plug-In . SVG Version: 6.00 Build 0)  -->
<svg version="1.1" id="Livello_1" xmlns="http://www.w3.org/2000/svg" xmlns:xlink="http://www.w3.org/1999/xlink" x="0px" y="0px"
	 viewBox="0 0 283.5 283.5" style="enable-background:new 0 0 283.5 283.5;" xml:space="preserve">
<style type="text/css">
	.st0{fill:#3F434A;}
	.st1{font-family:'ProductSans-Regular';}
	.st2{font-size:25.56px;}
	.st3{fill:#507ABB;}
	.st4{font-size:13.632px;}
	.st5{clip-path:url(#SVGID_2_);fill:#3F434A;}
	.st6{clip-path:url(#SVGID_2_);fill:#3D9A54;}
	.st7{clip-path:url(#SVGID_2_);fill:#FFFFFF;}
	.st8{clip-path:url(#SVGID_2_);fill:#E3A527;}
	.st9{clip-path:url(#SVGID_2_);fill:#507ABB;}
	.st10{clip-path:url(#SVGID_2_);fill:#CA4940;}
</style>
<text transform="matrix(1 0 0 1 28.7197 219.091)" class="st0 st1 st2">GDG </text>
<text transform="matrix(1 0 0 1 92.4399 219.091)"><tspan x="0" y="0" class="st3 st1 st2">C</tspan><tspan x="18.4" y="0" class="st3 st1 st2">l</tspan><tspan x="23.5" y="0" class="st3 st1 st2">ou</tspan><tspan x="51.5" y="0" class="st3 st1 st2">d</tspan></text>
<text transform="matrix(1 0 0 1 158.5381 219.091)"><tspan x="0" y="0" class="st0 st1 st2"> Mo</tspan><tspan x="41.2" y="0" class="st0 st1 st2">d</tspan><tspan x="55.8" y="0" class="st0 st1 st2">e</tspan><tspan x="69.5" y="0" class="st0 st1 st2">n</tspan><tspan x="83.2" y="0" class="st0 st1 st2">a</tspan></text>
<text transform="matrix(1 0 0 1 64.5347 237.8351)"><tspan x="0" y="0" class="st0 st1 st4">G</tspan><tspan x="10.9" y="0" class="st0 st1 st4">oog</tspan><tspan x="34" y="0" class="st0 st1 st4">l</tspan><tspan x="36.7" y="0" class="st0 st1 st4">e </tspan><tspan x="47" y="0" class="st0 st1 st4">D</tspan><tspan x="56.2" y="0" class="st0 st1 st4">e</tspan><tspan x="63.4" y="0" class="st0 st1 st4">v</tspan><tspan x="70" y="0" class="st0 st1 st4">e</tspan><tspan x="77.3" y="0" class="st0 st1 st4">lo</tspan><tspan x="87.6" y="0" class="st0 st1 st4">per</tspan><tspan x="107.7" y="0" class="st0 st1 st4"> G</tspan><tspan x="121.1" y="0" class="st0 st1 st4">r</tspan><tspan x="125.6" y="0" class="st0 st1 st4">o</tspan><tspan x="133.2" y="0" class="st0 st1 st4">u</tspan><tspan x="140.6" y="0" class="st0 st1 st4">p</tspan><tspan x="148.3" y="0" class="st0 st1 st4">s</tspan></text>
<g>
	<defs>
		<rect id="SVGID_1_" width="283.5" height="283.5"/>
	</defs>
	<clipPath id="SVGID_2_">
		<use xlink:href="#SVGID_1_"  style="overflow:visible;"/>
	</clipPath>
	<path class="st5" d="M120.2,168.5c0.3-6.2,0.6-12.5,0.9-18.7c0-0.7,0.1-1.4-0.4-2c-0.3-0.3-0.4-0.8,0-1.2c0.8-0.8,0.7-1.7,0.7-2.7
		c0.1-6.4,0.2-12.9,0.3-19.3c0.2,0,0.3,0,0.5,0c0,1.2,0,2.4,0,3.5c0,1.4-0.3,2.8,1.1,3.8c0.4-1.1-0.5-2.4,0.5-3.4
		c0.3,5.4-0.1,10.7-0.1,16.1c0,1.1,0.3,1.4,1.3,1.3c4.3,0,8.6,0,13,0c0,0.4-0.2,0.8-0.6,0.8c-0.9,0.2-0.9,0.8-0.8,1.5
		c-0.6,0-1.2,0-1.8,0c-0.5,0-1-0.1-1.4-0.1c0.1-0.5-0.1-0.8-0.6-1.1c-2-1.2-4.2-0.7-6.3-0.7c-1,0-1.7,0.6-1.4,1.8
		c-1.4-0.2-1.7,0.5-1.7,1.8c-0.2,6.2-0.3,12.5-0.9,18.7C121.7,167.9,121,168.2,120.2,168.5"/>
	<path class="st5" d="M154.1,79.1c-1-0.2-1.3,0.9-1.9,1.3c-0.1-0.4-0.2-0.8-0.3-1.2c-1.3-7.4-2.7-14.9-4-22.3
		c-0.7-4-1.5-7.9-2.3-11.9l0,0c0.8,0.4,1.6,0.8,2.5,0.6c2,11,4,22.1,6,33.1C154.1,78.7,154.1,78.9,154.1,79.1"/>
	<path class="st6" d="M138.3,35.9c1.1-5.6,1.9-11.3,2.7-16.9c0.1-0.5-0.3-0.8-0.4-1.2c-0.2-0.9-0.1-1.6,0.7-2.2
		c0.6-0.4,1.2-0.3,1.7,0.1c0.7,0.6,1,1.3,0.5,2.1c-0.4,0.7-0.2,1.3-0.1,1.9c0.8,5.3,1.7,10.6,2.5,15.9c-0.6,0.4-1.3,0.2-2,0.2
		c-0.6-2.7-1.2-5.3-1.8-8c-0.6,2.2-1,4.4-1.5,6.6c-0.1,0.4-0.1,0.8-0.1,1.3c-0.5,0.9-1.2-0.1-1.8,0.1
		C138.7,35.9,138.5,35.9,138.3,35.9"/>
	<path class="st5" d="M123.2,114.1L123.2,114.1c0-1,0-2.1,0-3.1c0-0.4,0.3-1.1-0.5-1.1c-0.6,0-0.6,0.6-0.6,1.1
		c-0.2,2.2,0.2,4.5,0.3,6.7c0,0.3,0.1,0.6,0.4,0.6c0.4,0,0.4-0.3,0.4-0.6C123.2,116.5,123.2,115.3,123.2,114.1 M123.8,104.6
		c0,0.9-1.2,0.4-1.4,1.1c-0.1,0.4-0.6,0.6-0.4,1c0.2,0.4,0.7,0.2,1,0.2c-0.1,0.2-0.1,0.4,0.1,0.6c0.4,0.7,0.6,1.4,0.6,2.2
		c0,1.8,0.1,3.7,0.2,5.5c0,0.3,0,0.6,0,0.9c0,3.1-0.1,6.3-0.1,9.4c-0.2-0.1-0.5-0.2-0.5-0.4c0-1.3-0.6-0.8-1.2-0.4
		c-0.2,0-0.3,0-0.5,0c0-4.3-0.1-8.7,0-13c0-1.7-0.2-3.1-1.5-4.2c-0.3-0.2-0.4-0.6-0.6-0.9c0.8-0.4,1.2-0.8,0.1-1.3
		c0.4-0.9,1.3-0.6,2-0.6C122.2,104.5,123,104.6,123.8,104.6"/>
	<path class="st5" d="M163.5,188.7c0-0.5,0-1,0.7-1.5c-4.5-0.3-8.7-0.1-12.8-0.2c-1.1,0-2.3-0.1-3.3-0.5c-0.1-2.1-0.1-4.2-0.2-6.3
		c1.7-0.1,1.7-0.1,1.6-2.3c0.1-0.1,0.2-0.2,0.3-0.3c0.2,2.6,0.4,5.1,0.5,7.7c0,1.1,0.4,1.3,1.4,1.3c4.7-0.1,9.4-0.1,14.1-0.1l0,0
		c-0.1,1,0.2,1.7,1.4,1.7c0.3,0,0.5,0.2,0.6,0.5C166.4,188.7,165,188.7,163.5,188.7"/>
	<path class="st5" d="M120.2,168.5c0.8-0.3,1.6-0.5,2.2,0.3c0,0.3,0,0.5,0,0.8c-0.2,0.1-0.5,0.1-0.5,0.4c0,0,0.1,0.1,0.1,0.1
		c0.3,0,0.3-0.3,0.4-0.5c0.7,0,1.3,0,1.9,0.1c0.7,0.8,1.3,0.8,2,0c0.5,0,1,0,1.4,0c0.5,0.5,1.2,0.2,1.8,0.3c0.8,0.1,1.6-0.1,2.3,0.6
		c0.2,0.2,0.9-0.1,0.7,0.5c-0.1,0.5-0.6,0.3-1,0.3c-2.5,0-5,0-7.6,0c-0.5,0-1.1-0.3-1.4,0.4c-1.1,0.4-0.3,1.5-0.7,2.1
		c-0.2,0.1-0.4,0.2-0.4,0.5c0,0.5-0.3,0.9-0.8,0.8c-0.6-0.1-0.3-0.7-0.4-1c0-1.2,0-2.4,0-3.7c0.1-0.3,0.5-0.8-0.2-0.9
		C120.1,169.2,120.1,168.8,120.2,168.5"/>
	<path class="st5" d="M120.3,170.5c0,1.2,0,2.4,0,3.7c0,0.4-0.3,1,0.4,1c0.4,0.1,0.8-0.3,0.8-0.8c0-0.3,0.2-0.4,0.4-0.5
		c-0.2,2.4-0.3,4.8-0.6,7.2c-0.1,0.8-0.1,1.6-0.8,2.2c-0.7-1.7-0.7-1.7-2-0.4c-0.5,0.5-0.9,1.4-1.9,1.3c1.8-1.4,2.6-3.1,2.6-5.5
		c0-2.7,0.5-5.5,0.7-8.2C120.2,170.5,120.2,170.5,120.3,170.5"/>
	<path class="st5" d="M163.5,172.9c0-0.1-0.1-0.3-0.1-0.3c0.5-0.3,0.4,0.2,0.4,0.4c0.2,2,0.3,3.9,0.5,5.9c0.1,0.9,0.1,1.9,0.2,2.8
		c-0.9-0.1-1.5,0.3-1.9,1.1c-0.7-2.6-0.7-5.3-0.9-8C163.5,175.1,163.7,174.1,163.5,172.9"/>
	<path class="st5" d="M147,106.9c0-0.3-0.1-0.7-0.4-0.7c-1.5-0.2-2.8-1.3-4.5-1c-1.4,0.2-2.9,0.1-4.4,0c-0.5,0-1.1,0.1-1.4-0.5
		c-0.7-0.1-0.5-0.7-0.5-1.1c-0.1-1.3-0.1-2.6-0.1-3.8c-0.1,0.1-0.3,0.2-0.4,0.3l0,0c0,0.7-0.1,1.3,0,2c0.2,1.3-0.9,1.9-1.3,2.9
		c-0.2,0.5-0.4-0.2-0.5-0.4c-0.6,0.1-1.1,0.1-1.7,0.2c-0.8,0.7-3.3,0.7-4.4,0.1c-0.1,0-0.3,0-0.4,0c-0.1,0.3-0.1,0.7-0.5,0.7
		c-0.2,0-0.3-0.2-0.3-0.4c0-0.4,0.3-0.4,0.6-0.5c0-0.2,0-0.4-0.1-0.5c-0.3,0-0.8,0.1-0.7-0.4c0-0.4,0.4-0.5,0.8-0.5
		c0-0.6,0-1.1,0-1.7c-0.3,0-0.6-0.1-0.5-0.5c0-0.3,0.3-0.3,0.5-0.4c0-0.3,0-0.6,0-0.9c-0.6,0-1.2,0.2-0.8-0.9c0.2-0.5,0.4-1.3,0.1-2
		c-0.2-0.5,0.2-0.7,0.7-0.8c0-0.2,0-0.4,0-0.6c-0.2,0-0.4,0-0.5-0.1c0.2,0.1,0.3,0.1,0.5,0.1c0-1.7,0.1-3.4,0.1-5.1
		c-0.1,0-0.1-0.1-0.1-0.1c-0.8,0.1-1.6-0.1-1.6-1.1c0-0.7-0.2-1.4-0.1-2.1c0-0.4,0-0.8,0-1.1c-0.2-0.6,0.4-1.4-0.5-1.7
		c0,4,0.1,8.1,0.1,12.1c0,0.2,0,0.5,0,0.7c0.6,0.6,0.6,1.2,0,1.8c-0.1,0.7-0.2,1.3,0,2c0.6,1,0.7,2.1,0,3.1
		c-0.1,0.4-0.4,0.5-0.7,0.6c0,0.9-1.2,0.4-1.4,1.1c-0.1,0.4-0.6,0.6-0.4,1c0.2,0.4,0.7,0.2,1,0.2c0.2,0,0.3,0.1,0.5,0.1
		c2-0.1,4-0.1,6,0c1,0,1.9,0,2.9,0c4.3,0,8.6-0.1,12.9-0.1C145.8,107,146.4,106.9,147,106.9"/>
	<path class="st5" d="M161.2,169.6c0,0,0.1,0,0.1,0c1.7-0.4,1.7-0.4,2.1,1.4c0,0.6,0.3,1.3,0,1.9c-0.4,0.1-1.2,0.3-1-0.3
		c0.3-1.3-0.5-0.6-0.9-0.7c-0.1-0.7-0.7-0.6-1.1-0.5c-1,0.1-1.8-0.3-2.6-0.9C159.1,170.2,160.3,170.4,161.2,169.6L161.2,169.6z"/>
	<path class="st5" d="M162.7,182.8c0.3-0.8,0.9-1.3,1.9-1.1c0.8,0.8,1.6,1.7,2.4,2.5c-0.5,0.9-1.5,0.6-2.2,1
		C164,184.5,163.2,183.8,162.7,182.8"/>
	<path class="st5" d="M167.8,188.7c-0.1-0.3-0.3-0.5-0.6-0.5c-1.1,0-1.5-0.7-1.4-1.7c0.9-1.1,1.9-0.1,2.9,0c0.9,0.1,0.6,1.2,0.7,1.8
		c0,0-0.1,0.1-0.1,0.1c-0.4-0.2-0.6-0.1-0.7,0.3C168.4,188.7,168.1,188.7,167.8,188.7"/>
	<path class="st5" d="M169.5,188.3c-0.1-0.7,0.2-1.7-0.7-1.8c-0.9-0.1-1.9-1.1-2.9,0l0,0c0-0.7-0.8-0.8-1-1.4c0.7-0.4,1.7-0.1,2.2-1
		c0.9,0.6,1.7,1.5,2.4,2.3C170.1,187.1,170.2,187.7,169.5,188.3"/>
	<path class="st5" d="M114.9,185.8c0.1,0.6,0.8,1.1,0.3,1.9c-0.3,0.5,0.3,0.4,0.6,0.4c1.5,0,3,0,4.6,0c0.4,0,1-0.2,1.1,0.5
		c-2,0-4,0-5.9,0.1c-0.8,0-1.5-0.1-1.9-0.9c-0.4-0.9,0.4-1.2,0.8-1.7C114.6,186,114.8,185.9,114.9,185.8"/>
	<path class="st5" d="M128.1,73.5c0.1-0.4,0.2-0.7,0.2-1.1c0.1-0.8-0.2-1.6-1.1-1.8c-0.9-0.2-1.3,0.3-1.4,1.1
		c0,3.5-0.8,6.8-1.6,10.2c-0.2,0.9-0.3,1.6,0.2,2.4c0.9,0.3,0.3,1.1,0.5,1.7c0.5,0,1.1-0.2,1.1,0.6c0,0.7-0.7,0.4-1.1,0.5
		c-0.1,0.7,0.2,1.4,0.1,2.1c-0.1,1,0.7,1.2,1.6,1.1c0-0.9-0.1-1.9,1.2-2c0.1,0,0.1-0.3,0.2-0.5c-1.1,0.3-1.5-0.1-1.4-1.2
		c0.1-0.5,0-1.1,0-1.7c-2.4-1.4-2-1.1-1.5-3.7c0.1-0.7,0.6-1.5,0.5-2.2c-0.2-1.6,0.4-2.6,1.9-3.1c0.1,0,0.2,0,0.3,0
		c0.4,0.4,0.2,1.2,1,1.3C128.6,75.9,128.6,74.7,128.1,73.5"/>
	<path class="st5" d="M161.6,171.9c0.4,0,1.2-0.6,0.9,0.7c-0.2,0.7,0.6,0.4,1,0.3l0,0c0.1,1.3,0,2.2-1.7,1.9
		C161.8,173.8,161.7,172.8,161.6,171.9L161.6,171.9z"/>
	<path class="st5" d="M124.5,101c0.6,1,0.7,2.1,0,3.1C124.4,103,124.4,102,124.5,101"/>
	<path class="st5" d="M119.4,105.2c1.1,0.5,0.7,0.9-0.1,1.3c0,0,0,0,0,0c0-0.1-0.1-0.3-0.1-0.4C119.2,105.8,119.1,105.4,119.4,105.2
		"/>
	<path class="st5" d="M124.5,97.1c0.6,0.6,0.6,1.2,0,1.8C124.5,98.4,124.5,97.8,124.5,97.1"/>
	<path class="st5" d="M120.3,170.5c-0.1,0-0.2,0-0.3,0c0-0.3,0-0.6,0-0.9C120.8,169.7,120.5,170.1,120.3,170.5"/>
	<path class="st5" d="M168.7,188.7c0.1-0.4,0.3-0.5,0.7-0.3C169.2,188.6,169,188.7,168.7,188.7"/>
	<path class="st5" d="M116.2,184.6c0,0.4-0.2,0.4-0.5,0.4C115.9,184.9,116.1,184.8,116.2,184.6"/>
	<path class="st5" d="M148.1,42.8c-0.1-0.1-0.2-0.2-0.3-0.3C148,42.6,148.2,42.6,148.1,42.8"/>
	<path class="st5" d="M116.6,184.3c0,0.2-0.1,0.4-0.4,0.4C116.3,184.6,116.5,184.4,116.6,184.3"/>
	<path class="st5" d="M119.2,106.1c0,0.1,0.1,0.3,0.1,0.4C119.3,106.3,119.3,106.2,119.2,106.1"/>
	<path class="st5" d="M123.7,125.5c0.1,0.5,0.4,0.6,0.8,0.5c2.2,0,4.5,0,6.7,0c1,0,1.9,0,2.9,0c7.4,0,14.9,0,22.3,0
		c1.1,0,2.3,0,3.4,0c0.6,0.1,1.6-0.3,1.9,0.3c0.5,1,0.2,2.1,0.2,3.2c0,0.5-0.4,0.2-0.6,0.3c-0.7,0.1-0.7-0.7-1.1-0.9
		c-0.1-0.6-0.6-0.6-1.1-0.6c-11.5,0-23,0-34.4,0c-0.3,0-0.7-0.1-0.9,0.3c-1,1-0.1,2.3-0.5,3.4c-1.3-1-1.1-2.4-1.1-3.8
		c0-1.2,0-2.4,0-3.5c0.6-0.4,1.2-0.9,1.2,0.4C123.2,125.4,123.5,125.5,123.7,125.5"/>
	<path class="st5" d="M152.5,148.3c-0.8,0-1.5,0.1-2.3,0.1c-1.1-0.1-1.3,0.3-1.2,1.3c0.1,2.2,0.1,4.3,0.2,6.5
		c-0.7,0.1-1.4,0.2-2.2,0.3c-0.1-2.3-0.2-4.6-0.4-6.9c0-0.4,0.3-1-0.3-1.3c0.2-0.8-0.3-1.4-0.2-2.2c0.6,0,1.1,0,1.7,0
		c1,1.1,2.2,1.1,2.6,0c0.2,0,0.4,0,0.6,0c0,0.4,0.2,0.6,0.6,0.6C150.9,147.8,152.1,147.8,152.5,148.3"/>
	<path class="st5" d="M158.8,87.7c0,0.1-0.1,0.2-0.1,0.2c-0.1,0-0.2-0.1-0.2-0.1c0-0.1,0.1-0.2,0.1-0.2
		C158.7,87.6,158.8,87.6,158.8,87.7 M164.7,105.5c-0.2-0.6-0.8-0.8-1.4-0.8c-0.8,0-1.5-0.1-2.3,0c-1.2,0.1-1.5-0.4-1.5-1.5
		c0-6.1,0.2-12.2,0-18.3c-0.7,0-1.5,0-2.2,0c0.1,0.4,0.1,0.8,0.2,1.2c0.1,0,0.2,0,0.3,0c0.4,0.2,0.6-0.7,1.1-0.3
		c0.1,0.1,0.1,0.4,0,0.5c-0.2,0.5-0.7,0.3-1.1,0.3c-0.1,0-0.2,0-0.3,0c-0.2,0.8-0.1,1.8-1.4,1.4c-0.1,0.3-0.2,0.6,0,0.9v0
		c0,0,0,0,0,0c0.2,0,0.5,0,0.4,0.3c0,0-0.1,0.1-0.1,0.1c-0.3,0-0.3-0.2-0.3-0.4l0,0c-0.5,0.3-1,0.6-1.4,0.9c0.9,0.4,2.2,0.1,2.7,0.9
		c0.4,0.8,0.1,1.9,0.1,2.9c0,3.7-0.1,7.4-0.1,11.1c0,0.3,0,0.5,0,0.8c-0.1-0.2,0-0.5,0-0.8c-0.2,0.1-0.4,0.1-0.6,0.2
		c0,0.1-0.1,0.1-0.1,0.2c0-0.1-0.1-0.2-0.1-0.2c-0.7-0.2-1.3-0.2-2,0c0,0.2,0,0.5-0.2,0.6c-0.4,0.1-0.3-0.3-0.3-0.6
		c-0.4-0.1-0.8-0.1-1.2,0c0,0.5,0,0.9-0.7,1c-0.6,0.1-1.1,0.3-1,1.1c0,0-0.1,0.1,0,0.1c1.2,0,2.3,0,3.5,0c1.4-0.1,2.9-0.1,4.3-0.2
		c0.3,0,0.6,0.1,0.9,0.1c0.4,0,0.7,0,1.1,0c0,0.7-0.5,1.2-0.7,1.7c0,5.1-0.1,10.3-0.1,15.4c0,0.7,0,1.3-0.1,2
		c0.6,0.1,1.6-0.3,1.9,0.3c0.5,1,0.2,2.1,0.2,3.2c0,0.5-0.4,0.2-0.6,0.3c-0.7,0.1-0.7-0.7-1.1-0.9c-0.3,3.3,0,6.6,0,9.8
		c0,2,0,4,0.1,6c0.1,1-0.3,1.2-1.2,1.2c-2.7,0-5.3,0.1-8,0.1c0,0.4,0.2,0.6,0.6,0.6c0.7-0.2,1.3-0.4,2-0.3c0.3,0,0.6,0,0.9,0
		c0.7,0,1.5-0.2,2.2,0.2c0.3,0.2,0.8,0.2,0.8,0.7c0,0.5-0.5,0.4-0.9,0.5c-0.2,0.1-0.4,0.3-0.5,0.4c0.6,0,1.1,0.1,1.7,0.1
		c2.6,0,2.6,0,2.7,2.6c0.3,5.7,0.5,11.4,0.8,17.1c0,0.5,0,0.9,0,1.4c0,0,0.1,0,0.1,0c1.7-0.4,1.7-0.4,2.1,1.4c0-0.8,0.1-1.5,0.1-2.3
		c-0.3-6.5-0.7-12.9-0.8-19.4c0-1.6-0.1-3.2-0.2-4.7c-0.4-10.6-0.4-21.1-0.3-31.7c0-2.3,0.1-4.3,2.1-5.9
		C164.8,106.6,164.9,106,164.7,105.5"/>
	<path class="st5" d="M152.5,148.3c-0.3-0.5-1.6-0.5-0.9-1.6c0.7-0.2,1.3-0.4,2-0.3c0,0.2,0.1,0.5,0.4,0.5c0.4,0,0.5-0.2,0.5-0.5
		c0.7,0,1.5-0.2,2.2,0.2c0.3,0.2,0.8,0.2,0.8,0.7c0,0.5-0.5,0.4-0.9,0.5c-0.2,0.1-0.4,0.3-0.5,0.4
		C154.8,148.3,153.6,148.3,152.5,148.3"/>
	<path class="st5" d="M157.5,86.6c0-0.2,0-0.4,0-0.6c0.1,0,0.2,0,0.3,0c0.4,0.2,0.6-0.7,1.1-0.3c0.1,0.1,0.1,0.4,0,0.5
		c-0.2,0.5-0.7,0.3-1.1,0.3C157.7,86.6,157.6,86.6,157.5,86.6"/>
	<path class="st5" d="M154.4,146.4c0,0.3-0.1,0.6-0.5,0.5c-0.3,0-0.3-0.3-0.4-0.5C153.8,146.4,154.1,146.4,154.4,146.4"/>
	<path class="st5" d="M156.1,88.9c0.2,0,0.5,0,0.4,0.3c0,0-0.1,0.1-0.1,0.1C156.1,89.4,156.1,89.1,156.1,88.9L156.1,88.9z"/>
	<path class="st5" d="M158.8,87.7c0,0.1-0.1,0.2-0.1,0.2c-0.1,0-0.2-0.1-0.2-0.1c0-0.1,0.1-0.2,0.1-0.2
		C158.7,87.6,158.8,87.6,158.8,87.7"/>
	<path class="st5" d="M136.3,104.7c3.6,0,7.2-0.1,10.8,0c0.9,0,1.2-0.2,1.1-1.1c-0.1-1.4,0-2.7,0-4.1c0.8,0.2,1.4-0.4,2.2-0.6
		c0,1.4,0.2,2.8,0,4.1c-0.1,1.4,0.4,1.9,1.7,1.7c0.2,0,0.4,0,0.6,0.1c0,0.5,0,0.9-0.7,1c-0.6,0.1-1.1,0.3-1,1.1c-0.2,0-0.4,0-0.6,0
		c0-1.3-1.1-0.8-1.7-1c-0.5-0.1-1.3,0-1.2,1c-0.2,0-0.4,0-0.6,0c0-0.3-0.1-0.7-0.4-0.7c-1.5-0.2-2.8-1.3-4.5-1
		c-1.4,0.2-2.9,0.1-4.4,0C137.2,105.2,136.6,105.4,136.3,104.7"/>
	<path class="st5" d="M136.6,83.7c-0.4,0.1-0.9,0-1,0.7c-1-0.8-0.2-2-0.8-2.9c0.3,0,0.6,0,0.9,0c0,0.1,0.1,0.2,0.1,0.4
		c0-0.1,0.1-0.2,0.1-0.3c1.4-1.3,1.9-3.1,2.8-4.7c0.5-0.9,0.8-1.9,1.5-2.8c0.5,0.6,1.3,1,1.3,1.9c-0.5,2-2.1,3.5-2.4,5.6
		c-0.2,0.8-1,0.9-1.6,1C136.8,82.6,136.6,83,136.6,83.7"/>
	<path class="st5" d="M156.1,88.9L156.1,88.9z M157.6,82.2c-0.4,0.2-0.8,0.2-1.2-0.1c-0.4-0.3-0.1-0.6,0-0.9c0.2-1,0.3-2,0.8-3
		c0.2,1.2,0.4,2.1,0.6,3.1C157.8,81.6,158,82.1,157.6,82.2 M141.8,87.4c0,0.2,0,0.3-0.1,0.4c-0.5,0.3-0.6,0.4-0.5,0.6
		c-0.1-0.2-0.1-0.3,0.5-0.6C141.7,87.8,141.8,87.6,141.8,87.4 M160,82.6c-0.6-1.5-0.8-3.1-1-4.7c-0.2-2-1.2-4-0.7-6.2
		c0.2-0.7-0.6-1.3-1.4-1.2c-0.9,0.1-1.4,0.7-1.2,1.5c0.4,2.3-0.6,4.3-0.9,6.4c0,0.3,0.1,1-0.7,0.7c-1-0.2-1.3,0.9-1.9,1.3
		c0.2,1-0.2,1.3-1.2,1.2c-3.5-0.2-3.5-0.1-5-3.3c-1-2.2-2.4-4.2-3-6.6c-0.1-0.6-0.7-0.9-1.3-0.8c-0.6,0.1-1,0.6-1,1.2
		c0,0.7,0,1.3-0.3,1.9c0.5,0.6,1.3,1,1.3,1.9c0.2-0.3,0.4-0.3,0.6,0.1c0.9,1.8,1.8,3.5,2.9,5.5h-5.9c-0.2,0.8-1,0.9-1.6,1
		c-0.8,0.1-1,0.5-0.9,1.2c3.4,0,6.8,0.1,10.3,0c1.5,0,1.3,0.8,1.3,1.7c0.1,1-0.1,1.5-1.3,1.4c-1.5-0.1-3,0-4.5,0.1
		c-0.2,0-0.4,0-0.6,0c-1.7,0-3.4-0.1-5.1-0.1c-0.6,0-1-0.1-1-0.8c-0.3-0.1-0.6-0.2-0.6-0.6c0-0.3,0.4-0.3,0.6-0.3c0-0.3,0-0.5,0-0.8
		c-1-0.8-0.2-2-0.8-2.9c-1,0-2.1,0-3.1-0.1l-1.9-0.5c-0.5,0-0.4-0.4-0.4-0.7c-0.1-1-0.3-2.1-0.6-3.1c-0.7-0.1-0.6-0.9-1-1.3
		c-0.1,0-0.2,0-0.3,0c-1.5,0.5-2.1,1.5-1.9,3.1c0.1,0.7-0.4,1.4-0.5,2.2c-0.5,2.6-0.8,2.3,1.5,3.7c0.3-0.1,0.5-0.2,0.8-0.4
		c0-0.8,0.4-1.5,0.3-2.3c-1.4,0.2-1.6-0.4-1.3-1.6c0.2-0.7,0.2-1.4,0.6-2c0.3,1,0.5,2,0.8,3c0.4,0,0.6,0.7,1.1,0.4
		c0.3-0.2,0.6-0.5,0.8,0c0.1,0.4,0.3,1.1-0.3,1.2c-0.6,0.2-0.8,0.4-0.5,1c0.2,0,0.4,0,0.6-0.1c0.5-1,1.1-0.6,1.7-0.2
		c0.2,0,0.4,0,0.6,0c0.7,0.1,1.6-0.5,1.7,0.8c0,1,0.3,2.1-1.3,2.2c-1.4,0.1-2.7,0.5-4.1,0.7c-0.1,0.2-0.1,0.5-0.2,0.5
		c-1.3,0.1-1.2,1.1-1.2,2c0,0,0.1,0.1,0.1,0.1c1.8-0.5,3.6-0.8,5.4-1.1c1-0.2,1.3,0,1.3,1.1c0,2.9,0,5.9,0,8.8
		c0.2,0,0.5,0.1,0.5,0.4c-0.1,1.3,0.6,0.8,1.2,0.5l0,0c0-1.6,0-3.2,0-4.8c0-0.4-0.2-1,0.4-1.2c0-0.4,0-0.8,0-1.2
		c-0.6-0.3-0.6-0.6,0-0.8c0.1-0.7,0.1-1.3,0-2c-0.2,0-0.6,0-0.6-0.2c0-0.4,0.4-0.3,0.6-0.3c0.9-0.7,1.9-0.2,2.9-0.3
		c1.1-0.1,2.2-0.1,3.3-0.2c-0.1-0.2-0.3-0.3-0.5-0.4c0.2,0.1,0.4,0.3,0.5,0.4c0.2,0.1,0.4,0.1,0.6,0c1.6,0.3,3.1,0.1,4.7,0.1
		c0.9,0,1.1,0.3,1.1,1.2c0,2.8,0,5.6,0,8.4c0.1,0,0.2,0,0.3,0.1c0,0.2-0.1,0.1-0.3,0.2c0,0.2,0,0.4,0,0.6c0.8,0.2,1.4-0.4,2.2-0.6
		c0-2.9,0.1-5.7,0-8.6c0-1.1,0.3-1.3,1.3-1.1c1,0.2,2,0.3,2.9,0.5c0.5-0.3,1-0.6,1.4-0.9c-0.2-0.3-0.1-0.6,0-0.9
		c-1.5-0.5-3-0.7-4.5-0.8c-1.8-0.1-1.2-1.3-1.2-2.3c-0.1-1.2,0.8-1,1.4-0.9c1.8,0.3,3.7,0.6,5.5,0.9c0.7,0,1.5,0,2.2,0
		C159.3,84.1,160.3,83.5,160,82.6"/>
	<path class="st5" d="M148.2,98.9c-0.1-0.1-0.1-0.2,0-0.3c0.1,0,0.2,0,0.3,0.1C148.5,98.9,148.3,98.9,148.2,98.9"/>
	<path class="st5" d="M147.2,171.9c-3.7,0-7.4,0-11.2,0c0.1-0.6,0.5-0.6,1-0.6c3.1,0,6.2,0,9.2,0
		C146.7,171.3,147.2,171.3,147.2,171.9"/>
	<path class="st5" d="M143.2,169.6c0.3,0,0.6,0,0.9,0C143.8,170,143.5,170,143.2,169.6"/>
	<path class="st5" d="M146.4,169.6c0.1,0,0.2,0,0.3,0C146.6,169.8,146.5,169.8,146.4,169.6"/>
	<path class="st5" d="M144.7,169.6c0.1,0,0.2,0,0.3,0C144.9,169.8,144.8,169.8,144.7,169.6"/>
	<path class="st5" d="M136.8,148.5c-0.1,0-0.3,0-0.4-0.1c-0.1-0.7,0-1.3,0.8-1.5c0.4-0.1,0.6-0.4,0.6-0.8c0.3,0,0.6,0,0.9,0
		c0,0.3,0.1,0.6,0.5,0.5c0.3,0,0.3-0.3,0.4-0.5c0.4,0,0.8,0,1.1,0c0.5,0.9,1.7,1,2.6,0c1,0,1.9,0,2.9,0c0,0.7,0.5,1.4,0.2,2.2
		c-0.3,0-0.5,0-0.8,0c0-0.2,0-0.5-0.3-0.6c-0.4-0.1-0.5,0.3-0.6,0.6C142,148.6,139.4,148.1,136.8,148.5"/>
	<path class="st5" d="M132.1,148.3c-2.1,0.1-4.2,0.1-6.3,0c-0.1-0.3-0.2-0.3-0.4,0c-0.2,0-0.3,0-0.5,0c-0.3-1.2,0.3-1.7,1.4-1.8
		c2.1-0.1,4.3-0.5,6.3,0.7c0.5,0.3,0.7,0.6,0.6,1.1c-0.3,0-0.5,0-0.8,0c-0.1-0.1-0.1-0.1-0.2-0.2
		C132.2,148.2,132.1,148.2,132.1,148.3"/>
	<path class="st5" d="M133.4,104.5c0-1.8,0.1-3.5,0.1-5.3c0.2,0,0.5,0.1,0.5,0.4c-0.1,1.3,0.6,0.8,1.2,0.5c0,0.7-0.1,1.3,0,2
		c0.2,1.3-0.9,1.9-1.3,2.9C133.8,105.4,133.6,104.8,133.4,104.5"/>
	<path class="st5" d="M128.9,84.4c-0.4,0.3-0.9,0.3-1.4,0.3c0-0.8,0.4-1.5,0.3-2.3c0-0.2,0.1-0.4,0.1-0.6c0.4,0,0.6,0.7,1.1,0.4
		c0.3-0.2,0.6-0.5,0.8,0c0.1,0.4,0.3,1.1-0.3,1.2C128.8,83.6,128.6,83.8,128.9,84.4"/>
	<path class="st5" d="M135.6,94.1c0,1.9,0,3.8,0,5.7c-0.1,0.1-0.3,0.2-0.4,0.3c0-1.6,0-3.2,0-4.8C135.2,94.8,135,94.3,135.6,94.1"/>
	<path class="st5" d="M131.2,84.1c-0.6,0.3-1.1,0.3-1.7,0.2C129.9,83.3,130.6,83.7,131.2,84.1"/>
	<path class="st5" d="M135.7,85.1c0,0.3,0,0.6,0,0.9c-0.3-0.1-0.6-0.2-0.6-0.6C135.1,85.2,135.4,85.2,135.7,85.1"/>
	<path class="st5" d="M135.7,92.1c0,0.3,0,0.6,0,0.8C135,92.6,135,92.3,135.7,92.1"/>
	<path class="st5" d="M135.7,89.5c0,0.2,0,0.4,0,0.6c-0.2,0-0.6,0-0.6-0.2C135,89.4,135.4,89.5,135.7,89.5"/>
	<path class="st5" d="M146,42.3C146,42.3,146,42.3,146,42.3c-0.1,0.1-0.1,0-0.1,0c0,0,0-0.1,0.1-0.1C146,42.2,146,42.2,146,42.3
		 M145.5,42.5c-2.1,0-4.2,0-6.2,0c-0.6,0-0.6-0.3-0.5-0.7c0.2-1.2,0.4-2.3,0.6-3.5c1.8,0,3.6,0,5.4,0
		C144.9,39.6,145.2,41,145.5,42.5 M136.3,49.1c0.1-0.2,0.4-0.3,0.6-0.2c0.5,0.5-0.2,1-0.1,1.5C136.2,50,135.9,49.7,136.3,49.1
		 M148.1,42.8c-0.1-0.1-0.2-0.2-0.3-0.3c0,0,0,0,0,0c-0.1-0.5-0.2-1-0.3-1.5c-0.1-1.1-0.7-2.3,0.7-3.2c0.7-0.5,0.2-1.4-0.6-1.8
		c-0.5-0.2-1-0.2-1.5-0.3c-0.6,0.4-1.3,0.2-2,0.2c-0.3,0-0.5,0.1-0.8,0.1c-0.8,0-1.7-0.1-2.5-0.1c-0.5,0.9-1.2-0.1-1.8,0.1
		c-0.2,0-0.4-0.1-0.6-0.1c-1.7,0-2.8,0.8-2.2,1.7c1,1.4,0.4,2.8,0.4,4.1c-0.2,0.2-0.2,0.6-0.5,0.8c-1,0.7-1,1.5-0.2,2.3
		c0.1,0.1,0.2,0.4,0.2,0.6c-0.1,0.4-0.2,0.7-0.3,1.1c-0.8,4.9-1.6,9.7-2.5,14.6c-1.1,6.6-2.6,13.2-3.4,19.8c0.6,0.2,1.3,0.3,1.9,0.5
		c0.3-1.9,1-3.8,1.1-5.7c-1.3,0.4-1.6,0-1.1-1.3c0.2-0.5,0.2-1,0.2-1.5c0-0.3-0.3-0.7,0.2-0.8c0.5-0.2,0.5,0.3,0.7,0.6
		c0.1,0.1,0.3,0.2,0.5,0.2c0.8-1.1,0.7-2.5,0.9-3.7c0.3-1.6,0.5-3.2,0.8-4.9c-0.2,0-0.4,0-0.6-0.1c-0.5-0.2-0.6-0.7-0.6-1.2
		c0-0.2,0.1-0.4,0.3-0.4c0.6-0.1,0.4,0.7,0.8,0.8c0.6-1.7,0.9-3.6,1.2-5.4c0.6-3.6,1.2-7.3,1.8-10.9c0.1-0.4,0.2-0.7,0.2-1.1
		c0-1.1,0.6-1.4,1.6-1.4c1.9,0,3.8,0.1,5.7,0.1l0,0c0.8,0.4,1.6,0.8,2.5,0.6c-0.1-0.5,0.2-0.8,0.5-1.1
		C149.1,43.6,148.7,43.2,148.1,42.8"/>
	<path class="st5" d="M132.9,75.7c0.3-0.9,0.4-1.9,0.4-2.8c-0.2-0.1-0.4-0.1-0.5-0.2c-0.2-0.2-0.2-0.7-0.7-0.6
		c-0.5,0.2-0.2,0.5-0.2,0.8c0,0.5,0,1.1-0.2,1.5C131.2,75.8,131.6,76.1,132.9,75.7 M135,63.5c-0.4-0.1-0.2-0.9-0.8-0.8
		c-0.2,0-0.3,0.2-0.3,0.4c0,0.5,0.1,0.9,0.6,1.2c0.2,0.1,0.4,0.1,0.6,0.1C134.9,64,135,63.7,135,63.5"/>
	<path class="st5" d="M136.8,50.4c-0.6-0.4-0.9-0.8-0.5-1.3c0.1-0.2,0.4-0.3,0.6-0.2C137.4,49.5,136.7,49.9,136.8,50.4"/>
	<path class="st5" d="M126.6,96.1c0,1.2,0,2.5,0,3.7c-0.6,0-1.2,0.2-0.8-0.9c0.2-0.5,0.4-1.3,0.1-2
		C125.7,96.3,126.2,96.1,126.6,96.1"/>
	<path class="st5" d="M127.4,104.8c1.5,0,2.9,0,4.4-0.1C131,105.4,128.5,105.4,127.4,104.8"/>
	<path class="st7" d="M132.4,107.1c-1,0.7-1.9,0.7-2.9,0C130.4,107.1,131.4,107.1,132.4,107.1"/>
	<path class="st5" d="M126.7,104.6c0.1,0,0.2,0.1,0.3,0.1c-0.1,0.3-0.1,0.7-0.5,0.7c-0.2,0-0.3-0.2-0.3-0.4
		C126.1,104.7,126.4,104.7,126.7,104.6"/>
	<path class="st5" d="M126.7,103.2c0,0.3,0,0.6,0,0.9c-0.3,0-0.8,0.1-0.7-0.4C125.9,103.3,126.3,103.2,126.7,103.2"/>
	<path class="st5" d="M126.6,100.6c0,0.3,0,0.6,0,0.9c-0.3,0-0.6-0.1-0.5-0.5C126.2,100.7,126.4,100.7,126.6,100.6"/>
	<path class="st7" d="M123.5,107c0,0.3-0.2,0.4-0.4,0.5c-0.2-0.2-0.2-0.4-0.1-0.6C123.1,107,123.3,107,123.5,107"/>
	<path class="st5" d="M146,42.3C146,42.3,146,42.3,146,42.3c-0.1,0.1-0.1,0-0.1,0c0,0,0-0.1,0.1-0.1L146,42.3z"/>
	<path class="st5" d="M123.2,114.1c0,1.2,0,2.4,0,3.6c0,0.3,0,0.6-0.4,0.6c-0.4,0-0.4-0.3-0.4-0.6c-0.1-2.2-0.4-4.4-0.3-6.7
		c0-0.5,0-1.1,0.6-1.1c0.8-0.1,0.5,0.6,0.5,1.1C123.2,112,123.2,113,123.2,114.1L123.2,114.1z"/>
	<path class="st5" d="M149.7,174.2c0,0.6,0,1.1,0.1,1.7c-0.7,0-1.3,0.2-1.3,0.9c-0.1,0.6,0.4,1,1.1,1.1c0,2.2,0,2.2-1.6,2.3
		c-0.1-1.7-0.2-3.4-0.3-5.2c0.6-0.2,0.9-0.8,1-1.3c0.2-0.8,0.6-0.5,1-0.4c0,0.2,0,0.4,0,0.6c-0.1,0-0.2,0.1-0.3,0.1
		C149.5,174.1,149.6,174.1,149.7,174.2"/>
	<path class="st5" d="M149.5,177.9c-0.6-0.1-1.1-0.4-1.1-1.1c0.1-0.7,0.6-1,1.3-0.9c0,0.6,0,1.1,0.1,1.7
		C149.7,177.7,149.6,177.8,149.5,177.9"/>
	<path class="st5" d="M124.3,169.6c0.7,0,1.3,0,2,0C125.6,170.4,125.1,170.4,124.3,169.6"/>
	<path class="st5" d="M122.4,169.5c-0.1,0.2-0.1,0.5-0.4,0.5c0,0-0.1-0.1-0.1-0.1C121.9,169.6,122.2,169.6,122.4,169.5
		C122.4,169.5,122.3,169.6,122.4,169.5L122.4,169.5z"/>
	<path class="st5" d="M124.9,87.2c0-0.4,0-0.8,0-1.1c0.5,0,1.1-0.2,1.1,0.6C126,87.4,125.3,87.1,124.9,87.2"/>
	<path class="st5" d="M133.9,141.3c0.6-0.5,1.4-0.7,2.1-0.5c0,0.4,0,0.9,0.1,1.3c-0.5,0.7-0.9,1.6-1.8,1.9
		C133.5,143.2,133.8,142.2,133.9,141.3"/>
	<path class="st5" d="M145.3,131.6c0,0.1,0,0.4-0.1,0.4c-1.1,0.6-1.9,1.7-3.1,2.1C142.6,132.6,143.7,131.8,145.3,131.6"/>
	<path class="st5" d="M150.4,146.1c-0.4,1.1-1.6,1.1-2.6,0C148.7,146,149.5,146,150.4,146.1"/>
	<path class="st5" d="M143.2,146.1c-0.9,0.9-2.1,0.9-2.6,0C141.5,146.1,142.4,146.1,143.2,146.1"/>
	<path class="st5" d="M139.5,146.1c0,0.2-0.1,0.5-0.4,0.5c-0.4,0-0.5-0.2-0.5-0.5C138.9,146.1,139.2,146.1,139.5,146.1"/>
	<path class="st7" d="M150.9,107.1c1.2,0,2.3,0,3.5,0"/>
	<path class="st5" d="M147.5,106.9c-0.1-0.9,0.7-1.1,1.2-1c0.6,0.2,1.7-0.3,1.7,1C149.4,106.9,148.5,106.9,147.5,106.9"/>
	<path class="st8" d="M155.1,153.2c-0.1,0.5,0.3,1.4-0.7,1.7c-0.6,0.2-1.1,0-1.3-0.5c-0.5-1-0.4-2.1,0-3.1c0.1-0.4,0.7-0.6,1.1-0.5
		c0.4,0.1,0.8,0.3,0.9,0.8C155.1,152,155.2,152.5,155.1,153.2"/>
	<path class="st5" d="M157.2,170.5c0.1,0.3-0.1,0.6-0.3,0.7c-0.9,0.6-4.1,0-4.8-0.9c1.4-0.6,2.9-0.3,4.4-0.3
		C156.8,169.9,157.1,170.1,157.2,170.5 M151.8,171c-0.2,0.1-0.3,0.2-0.4,0.2c-0.1,0-0.2-0.1-0.3-0.2c0.1-0.1,0.2-0.2,0.3-0.2
		C151.5,170.8,151.6,170.9,151.8,171 M149.2,163.2C149.1,163.2,149.1,163.2,149.2,163.2C149.1,163.2,149.1,163.2,149.2,163.2
		 M160.4,171.3c-1,0.1-1.8-0.3-2.6-0.9c1.3-0.2,2.5,0,3.4-0.8c-2.8,0-5.5,0-8.3,0c-3.3,0-3.3,0-3.4-3.4c0-0.4-0.1-0.8-0.1-1.1
		c0-0.6,0-1.2-0.1-1.7c0-0.2,0-0.4,0-0.5c-0.1,0-0.1,0.1-0.2,0.1c-0.1,0-0.1,0.1-0.1,0.1c0,0.1,0,0.1,0,0.1c0,0,0-0.1,0-0.1
		c0,0,0.1-0.1,0.1-0.1c0.1,0,0.1-0.1,0.2-0.1c0.1-0.8,0.1-1.5-0.1-2.3c0-1.4-0.1-2.9-0.1-4.3c-0.7,0.1-1.4,0.2-2.2,0.3
		c0.1,3.9,0.2,7.7,0.3,11.6c0,0.5,0.2,1.1-0.2,1.5c1.2,0.3,1.7,0.9,0.8,2.1c-0.2,0.3-0.2,0.8-0.2,1.2c-0.6,0.7-0.2,1.4-0.2,2.2
		c0.6-0.2,0.9-0.8,1-1.3c0.2-0.8,0.6-0.5,1-0.4c-0.2-1.3,0.3-1.5,1.5-1.5c3.5,0.1,6.9,0.1,10.4,0.1l0,0
		C161.4,171.2,160.9,171.3,160.4,171.3"/>
	<path class="st5" d="M151.8,98.5c0-1.1,0-2.2,0-3.3c0-1.2,0.8-2,1.8-2c1.1,0.1,1.7,0.8,1.7,1.9c0,2.2,0,4.4,0,6.6
		c0,1.2-0.6,2.1-1.7,2c-1.1,0-1.8-0.8-1.7-2C151.9,100.7,151.8,99.6,151.8,98.5L151.8,98.5z"/>
	<path class="st5" d="M154.4,104.8c0,0.2,0,0.5-0.2,0.6c-0.4,0-0.3-0.3-0.3-0.6C154,104.8,154.2,104.8,154.4,104.8"/>
	<path class="st5" d="M156.7,104.9c0,0.1-0.1,0.1-0.1,0.2c0-0.1-0.1-0.2-0.1-0.2C156.5,104.8,156.6,104.8,156.7,104.9"/>
	<path class="st5" d="M136.1,81.5c0,0.1-0.1,0.2-0.1,0.3c0-0.1-0.1-0.2-0.1-0.4C135.9,81.5,136,81.5,136.1,81.5"/>
	<path class="st5" d="M139.2,97.9c0-1,0-2.1,0-3.1c0-1.7,1-2.6,2.7-2.6c1.5,0,2.6,0.9,2.6,2.6c0.1,2.2,0.1,4.5,0.1,6.7
		c0,0.6,0,1.3-0.9,1.3c-0.8,0-1.2-0.5-1.2-1.3c0-1.3,0-2.7,0-4c0-0.5,0-1,0-1.4c0-0.5,0.1-1.4-0.7-1.3c-0.9,0-0.5,0.9-0.5,1.4
		c0,1.8,0,3.5,0,5.3c0,0.7-0.1,1.4-1,1.4c-0.9,0-1-0.6-1-1.4C139.2,100.2,139.2,99,139.2,97.9L139.2,97.9z"/>
	<path class="st5" d="M144.1,159.5c0,0.2,0.1,0.5,0.4,0.7c0-0.5,0-1,0-1.5C144.2,159,144.1,159.2,144.1,159.5 M142.4,162.1
		c0,0.4-0.2,0.7-0.7,0.7c-0.5,0-0.5-0.3-0.6-0.6c0-1.3,0-2.6,0-4c0-0.5-0.2-1.3,0.6-1.4c0.9,0,0.7,0.8,0.7,1.4
		C142.4,159.5,142.4,160.8,142.4,162.1 M144.4,161.9c0.1-0.6,0.1-1.1,0-1.7c-0.2-0.2-0.4-0.5-0.4-0.7c0-0.2,0.1-0.5,0.3-0.7
		c0-0.5,0-0.9,0-1.4c0-0.1-0.1-0.1-0.1-0.2c0,0,0.1-0.1,0.1-0.1c-0.1-1.8-0.9-2.6-2.5-2.7c-1.5-0.1-2.7,0.8-2.8,2.4
		c-0.1,1.8,0,3.6,0,5.4c-0.1,1-0.3,2.2,1,2.6c1.3,0.5,2.8,0.5,4-0.2C145,164,144.4,162.8,144.4,161.9"/>
	<path class="st5" d="M144.6,148.3c0.1-0.3,0.2-0.7,0.6-0.6c0.3,0.1,0.2,0.4,0.3,0.6C145.2,148.3,144.9,148.3,144.6,148.3"/>
	<path class="st5" d="M144.4,157.3c0-0.1-0.1-0.1-0.1-0.2c0,0,0.1-0.1,0.1-0.1C144.4,157.1,144.4,157.2,144.4,157.3"/>
	<path class="st9" d="M142.6,178.8c-0.1,0.6,0.2,1.2-0.3,1.7c-0.5,0.4-1,0.5-1.5,0c-0.4-0.4-0.3-2.9,0.1-3.3
		c0.4-0.4,0.9-0.5,1.4-0.1C142.8,177.6,142.6,178.3,142.6,178.8"/>
	<path class="st5" d="M116.2,184.7C116.2,184.7,116.2,184.7,116.2,184.7C116.2,184.7,116.2,184.7,116.2,184.7
		C116.2,184.6,116.2,184.7,116.2,184.7 M135,170.7L135,170.7z M134.4,172.5C134.4,172.5,134.4,172.5,134.4,172.5
		C134.4,172.5,134.4,172.5,134.4,172.5 M134.7,172.1c0.1-0.1,0.1-0.2,0.2-0.3C134.8,171.9,134.8,172,134.7,172.1 M164.3,187.2
		c-4.5-0.3-8.7-0.1-12.8-0.2c-1.1,0-2.3-0.1-3.3-0.5c-3.8,0-7.5,0-11.3,0.1c-1.1,0-1.5-0.2-1.4-1.4c0.3-4.4,0.5-8.8,0.7-13.3
		c0.1-0.6,0.5-0.6,1-0.6c3.1,0,6.2,0,9.2,0c0.4,0,0.9,0,1,0.6c0.2,0.3-0.2,0.9,0.5,1c0.1-0.4,0-0.9,0.2-1.2c0.8-1.2,0.3-1.8-0.8-2.1
		c-0.2,0-0.3,0-0.5,0c-0.1,0.2-0.2,0.2-0.3,0c-0.5,0-1,0-1.4,0c-0.1,0.2-0.2,0.2-0.3,0c-0.2,0-0.4,0-0.6,0c-0.3,0.4-0.6,0.4-0.9,0
		c-1.8,0-3.6,0-5.4,0c-0.4,1.5-1.5,0-2.2,0.5c0,0-0.1,0-0.1,0c-0.3,0-0.9-0.5-1,0.1c0,0.1,0,0.2,0,0.2c0-0.1,0-0.1,0-0.2
		c0.1-0.7,0.7-0.2,1-0.1c0,0,0.1,0,0.1,0c0.7-0.5,1.8,1,2.2-0.5c-0.6-0.3-1.7,0.4-1.6-1.1c0.3-6.7,0.4-13.4,0.6-20.1
		c-0.1,0-0.3,0-0.4-0.1c-0.6,0-1.2,0-1.8,0c-0.2,5.1-0.3,10.3-0.5,15.4c0,0.4,0,0.8,0,1.2c-0.1,1.1-0.2,2.2-0.2,3.2
		c0,1-0.4,1.3-1.3,1.2c-1.6,0-3.2,0-4.8,0.1c0.5,0.5,1.2,0.2,1.8,0.3c0.8,0.1,1.6-0.1,2.3,0.6c0.2,0.2,0.9-0.1,0.7,0.5
		c-0.1,0.5-0.6,0.3-1,0.3c-2.5,0-5,0-7.6,0c-0.5,0-1.1-0.3-1.4,0.4c3.3,0,6.7,0.1,10,0.1c0.7,0,1.3,0,1.2,0.9
		c-0.2,4.2-0.5,8.4-0.7,12.5c0,1-0.3,1.3-1.3,1.2c-4.6-0.1-9.2,0-14,0c0.9-1.2,2.2-1.9,2.8-3.2c-0.7-1.7-0.7-1.7-2-0.4
		c-0.5,0.5-0.9,1.4-1.9,1.3c-0.1,0-0.1,0-0.1,0.1c0,0.2-0.1,0.4-0.4,0.4c0,0.3-0.2,0.3-0.5,0.4c-0.3,0.3-0.6,0.5-0.9,0.8
		c0.1,0.6,0.8,1.1,0.3,1.9c-0.3,0.5,0.3,0.4,0.6,0.4c1.5,0,3,0,4.6,0c0.4,0,1-0.2,1.1,0.5c8.6,0,17.1,0.1,25.7,0.1
		c5.5,0,10.9,0,16.4,0C163.5,188.2,163.6,187.7,164.3,187.2"/>
	<path class="st5" d="M152.1,170.3c1.4-0.6,2.9-0.3,4.4-0.3c0.4,0,0.6,0.2,0.7,0.5c0.1,0.3-0.1,0.6-0.3,0.7
		C156,171.8,152.7,171.2,152.1,170.3"/>
	<path class="st5" d="M151.8,171c-0.2,0.1-0.3,0.2-0.4,0.2c-0.1,0-0.2-0.1-0.3-0.2c0.1-0.1,0.2-0.2,0.3-0.2
		C151.5,170.8,151.6,170.9,151.8,171"/>
	<path class="st10" d="M131.5,152.8c0,0.3,0,0.7,0,1c-0.1,0.7-0.5,1-1.2,1c-0.6,0-1.1-0.2-1.1-1c0-0.5,0-1,0-1.6
		c0-0.8,0.2-1.3,1.1-1.3c0.9,0,1.3,0.5,1.2,1.4C131.4,152.5,131.4,152.6,131.5,152.8L131.5,152.8z"/>
	<path class="st5" d="M125.5,148.3c0.1-0.3,0.2-0.3,0.4,0C125.7,148.3,125.6,148.3,125.5,148.3"/>
	<path class="st5" d="M132.1,148.3c0-0.1,0.1-0.1,0.1-0.2c0.1,0.1,0.1,0.1,0.2,0.2C132.3,148.3,132.2,148.3,132.1,148.3"/>
	<path class="st5" d="M128.5,98.5c0-1.1,0-2.3,0-3.4c0-1.2,0.8-1.9,1.9-1.9c1.1,0,1.6,0.8,1.6,1.8c0,2.3,0.1,4.6,0,7
		c0,1-0.5,1.9-1.6,1.8c-1-0.1-1.8-0.6-1.8-1.8C128.6,100.8,128.6,99.7,128.5,98.5C128.5,98.5,128.5,98.5,128.5,98.5"/>
	<path class="st5" d="M149.7,174.2c-0.1-0.1-0.2-0.1-0.3-0.2c0.1,0,0.2-0.1,0.3-0.1C149.7,174,149.7,174.1,149.7,174.2"/>
	<path class="st5" d="M143.7,140.1c0,0.7,0.1,1.3,0.1,2c-1.4,0.5-2.7,0.1-3.2-1.1c-0.1-0.1-0.3-0.2-0.5-0.3c0-0.2,0-0.4,0-0.6
		C141.3,140.2,142.5,140.5,143.7,140.1"/>
	<path class="st5" d="M149.5,141.2c0,0.9-0.2,1.8-0.6,2.2c-0.1,0.2-0.4,0.3-0.6,0.3c0.2,0,0.4-0.2,0.6-0.3
		C149.3,143,149.5,142.1,149.5,141.2 M148.1,143.4c0,0.1,0,0.2,0.1,0.2c0-0.1,0,0-0.1-0.1C148.1,143.5,148.1,143.4,148.1,143.4
		C148.1,143.4,148.1,143.3,148.1,143.4c0-0.1,0-0.2,0-0.2c0,0,0,0,0,0c0,0,0,0,0,0C148.1,143.2,148.1,143.3,148.1,143.4
		 M149.9,135.2c-0.3-2.3-2-4.1-4.5-3.6c0,0,0,0,0,0c0,0-0.1,0-0.1,0c0,0.1,0,0.4-0.1,0.4c-1.1,0.6-1.9,1.7-3.1,2.1
		c-0.5-0.1-0.5-0.6-0.8-0.9c-0.8-0.9-1.6-1.7-2.9-1.7c0,0.4-0.3,0.6-0.6,0.7c-0.9,0.2-1,0.6-0.8,1.1c-0.2-0.5-0.1-0.9,0.8-1.1
		c0.3-0.1,0.6-0.3,0.6-0.7c-2.7,0-4.6,1.8-4.6,4.5c0,1.8,0.1,3.5,0.1,5.3c0.6-0.5,1.4-0.7,2.1-0.5c0-1.4,0.1-2.7,0-4.1
		c-0.1-1.2,0.2-2.1,1.2-2.8c1.7-0.4,2.4,0.6,2.9,2c0,1.4,0,2.9,0,4.3c1.2,0.1,2.4,0.4,3.6,0c0-0.2,0-0.4,0-0.6
		c-0.3-0.1-0.9,0.2-0.9-0.4c0-0.3,0.5-0.2,0.8-0.2c0-0.6,0.1-1.1,0.1-1.7c0-1.2-0.2-2.5,0.8-3.4c0.7-0.2,1.4-0.3,2.1,0
		c0-0.2-0.1-0.8-0.2-0.9c-0.1-0.4-0.2-0.4-0.5-0.7c0.3,0.3,0.6,1.2,0.7,1.6c0,0.1,0-0.2,0,0c0.9,0.7,1.3,1.5,1.2,2.7
		c-0.1,1.8,0,3.5,0,5.3c0,0.1-0.1,0.2-0.1,0.3c-1.3,0-2.6,0-4,0c-1.4,0.5-2.7,0.1-3.2-1.1c-0.1-0.1-0.3-0.2-0.5-0.3
		c0.1,1.2-0.4,1.7-1.6,1.5c-0.8-0.1-1.6-0.1-2.4-0.2c-0.5,0.7-0.9,1.6-1.8,1.9c0.3,0.5,0.9,0.5,1.4,0.5c4.1,0,8.3,0,12.4,0
		c1.2,0,1.9-0.7,1.9-1.7C150.1,140.2,150.2,137.7,149.9,135.2"/>
	<path class="st5" d="M149.9,116.3c0,1.3-0.2,2.6,0,3.8c0.3,1.9-1.2,1.5-2,1.6c-1.1,0.2-0.4-1-0.7-1.4c0-1.3,0-2.6,0-3.8
		c0-0.6,0-1.2,0.1-1.7c0.1-0.7,0.6-1.3,1.3-1.2c0.7,0,1,0.6,1.2,1.2C149.9,115.2,149.9,115.8,149.9,116.3 M143.1,121
		c-0.1,1.1-1.2,0.3-1.8,0.5c-0.5,0.2-0.8-0.1-0.8-0.7c0-0.9,0-1.9,0-2.8c0,0,0-0.2-0.1-0.2c0.1-1,0-1.9,0.1-2.9c0-0.6,0.5-1.1,1-1.2
		c0.6,0,1.2,0.4,1.3,1.1C143.4,116.8,143.2,118.9,143.1,121 M136.4,116.7c0,1.3-0.1,2.7-0.1,4c0,1.1-0.7,0.8-1.2,0.8
		c-0.6,0-1.4,0.4-1.4-0.8c0-1,0-2.1,0-3.1c0-0.8,0-1.5,0-2.2c0-0.9,0.4-1.7,1.3-1.7c1,0,1.3,0.8,1.3,1.7
		C136.4,115.7,136.4,116.2,136.4,116.7 M152.1,116.7c0.1-1,0.1-2-0.3-2.9c-0.4-1.3-1.2-2.2-2.5-2.4c-1.3-0.3-2.4,0.2-3.3,1.3
		c-0.3,0.4-0.7,0.8-1.1,1.3c-0.6-2-1.9-2.8-3.8-2.7c-0.3,0.1-0.6,0.2-0.9,0.3c-0.7,0.5-1.2,1.3-1.7,2c0,0.1-0.1,0.2-0.1,0.3
		c-0.1-0.1-0.1-0.2-0.2-0.3c-1-1.8-2.2-2.5-3.7-2.3c-1.7,0.3-2.8,1.5-3.1,3.4c-0.4,1.5-0.1,3.1-0.2,4.6c0,1.2-0.3,2.5,0.3,3.6
		c0.7,0.7,1.5,0.9,2.5,1c0.5,0,1,0,1.6,0c4.7,0,9.5,0,14.2,0c1.5,0,2.3-0.6,2.3-1.9C152.2,120.2,152.1,118.4,152.1,116.7"/>
	<path class="st5" d="M143.7,139.6c-0.3-0.1-0.9,0.2-0.9-0.4c0-0.3,0.5-0.2,0.8-0.2C143.7,139.2,143.7,139.4,143.7,139.6"/>
	<path class="st10" d="M126,264l9.8-5.6c2.3-1.3,3.1-4.3,1.8-6.6c-1.3-2.3-4.3-3.1-6.6-1.8l-16.9,9.7L126,264z"/>
	<path class="st9" d="M133.3,278.5c1.7,0,3.3-0.9,4.2-2.4c1.3-2.3,0.5-5.2-1.8-6.6l-16.9-9.7c-2.3-1.3-5.2-0.5-6.6,1.8
		c-1.3,2.3-0.5,5.2,1.8,6.6l16.9,9.7C131.7,278.3,132.5,278.5,133.3,278.5"/>
	<path class="st8" d="M150.1,278.5c0.8,0,1.6-0.2,2.4-0.6l16.9-9.7l-11.8-4.3l-9.9,5.7c-2.3,1.3-3.1,4.3-1.8,6.6
		C146.8,277.6,148.5,278.5,150.1,278.5"/>
	<path class="st6" d="M167,268.8c1.7,0,3.3-0.9,4.2-2.4c1.3-2.3,0.5-5.2-1.8-6.6l-16.9-9.7c-2.3-1.3-5.2-0.5-6.6,1.8
		c-1.3,2.3-0.5,5.2,1.8,6.6l16.9,9.7C165.3,268.6,166.2,268.8,167,268.8"/>
	<path class="st10" d="M134.6,17c-0.3-3-3-5.2-6-4.8c-0.1,0-0.2,0-0.3,0.1C89.9,16.4,57,38.7,38,70.2l9.2,5.8
		C64.5,47.1,94.6,26.8,129.7,23l0,0c0,0,0,0,0,0C132.7,22.6,134.9,20,134.6,17"/>
	<path class="st9" d="M38,70.2c-10.9,18.1-17.2,39.4-17.2,62c0,20.3,5,39.4,13.9,56.2c0,0.1,0,0.1,0.1,0.2c1.4,2.7,4.7,3.7,7.4,2.3
		c2.6-1.4,3.6-4.6,2.3-7.3l0,0c0,0,0,0,0,0c0,0,0,0,0,0c0,0,0,0,0,0c-8.1-15.3-12.7-32.7-12.7-51.2c0-20.5,5.7-39.8,15.5-56.2
		L38,70.2z"/>
	<path class="st6" d="M148.9,17c0.3-3,3-5.2,6-4.8c0.1,0,0.2,0,0.3,0.1c38.4,4.3,71.3,26.5,90.2,58l-9.2,5.8
		C219,47.1,188.9,26.8,153.8,23l0,0c0,0,0,0,0,0C150.8,22.6,148.6,20,148.9,17"/>
	<path class="st8" d="M245.4,70.2c10.9,18.1,17.2,39.4,17.2,62c0,20.3-5,39.4-13.9,56.2c0,0.1,0,0.1-0.1,0.2
		c-1.4,2.7-4.7,3.7-7.4,2.3c-2.6-1.4-3.6-4.6-2.3-7.3l0,0c0,0,0,0,0,0c0,0,0,0,0,0c0,0,0,0,0,0c8.1-15.3,12.7-32.7,12.7-51.2
		c0-20.5-5.7-39.8-15.5-56.2L245.4,70.2z"/>
</g>
</svg>
