<svg width="641" height="592" viewBox="0 0 641 592" fill="none" xmlns="http://www.w3.org/2000/svg">
<rect width="641" height="592" fill="white"/>
<path d="M159.984 483.295C155.397 480.537 151.727 476.861 148.975 472.265C146.223 467.669 145 462.46 145 456.639C145 451.124 146.223 445.915 148.975 441.013C151.727 436.111 155.397 432.741 159.984 429.983C164.571 427.226 169.769 426 175.273 426C179.554 426 183.529 426.613 187.505 428.145C191.48 429.677 194.538 431.821 196.984 434.579L192.092 439.481C190.257 437.336 187.811 435.498 185.058 434.273C182.001 433.047 178.943 432.434 175.579 432.434C171.604 432.434 167.628 433.353 164.265 435.498C160.595 437.336 157.843 440.4 155.703 443.771C153.562 447.447 152.339 451.43 152.339 456.333C152.339 460.928 153.562 465.218 155.703 468.895C157.843 472.571 160.595 475.329 164.265 477.473C167.934 479.312 171.604 480.537 175.579 480.537C179.554 480.537 182.918 479.925 185.364 478.699C188.116 477.473 190.257 475.941 192.397 473.797C193.926 472.265 194.844 470.426 195.761 468.282C196.678 466.137 197.29 463.686 197.29 461.235H175.885V454.801H204.017C204.323 456.333 204.323 457.864 204.323 459.09C204.323 462.767 203.712 466.137 202.488 469.507C201.265 472.878 199.431 475.941 196.984 478.393C191.48 484.214 184.447 487.278 175.579 487.278C169.463 487.278 164.571 485.746 159.984 483.295Z" fill="#656C73"/>
<path d="M210 428H227.736C233.852 428 239.05 429.226 243.331 431.677C247.918 434.128 251.282 437.498 253.728 442.094C256.174 446.383 257.397 451.592 257.397 457.413C257.397 463.235 256.174 468.137 253.728 472.733C251.282 477.022 247.918 480.699 243.331 483.15C238.744 485.601 233.546 486.827 227.736 486.827H210V428ZM227.736 479.78C234.769 479.78 239.967 477.942 244.248 473.958C248.224 469.975 250.364 464.46 250.364 457.413C250.364 450.366 248.224 444.851 244.248 440.868C240.273 436.885 234.769 435.047 227.736 435.047H217.033V480.393H227.736V479.78Z" fill="#656C73"/>
<path d="M276.984 483.295C272.397 480.537 268.727 476.861 265.975 472.265C263.223 467.669 262 462.46 262 456.639C262 451.124 263.223 445.915 265.975 441.013C268.727 436.111 272.397 432.741 276.984 429.983C281.571 427.226 286.769 426 292.273 426C296.554 426 300.529 426.613 304.505 428.145C308.174 429.677 311.538 431.821 313.984 434.579L309.092 439.481C307.257 437.336 304.81 435.498 302.058 434.273C299 433.047 295.943 432.434 292.579 432.434C288.604 432.434 284.628 433.353 281.265 435.498C277.595 437.336 274.843 440.4 272.703 443.771C270.562 447.447 269.339 451.43 269.339 456.333C269.339 460.928 270.562 465.218 272.703 468.895C274.843 472.571 277.595 475.329 281.265 477.473C284.934 479.312 288.604 480.537 292.579 480.537C296.554 480.537 299.918 479.925 302.364 478.699C305.116 477.473 307.257 475.941 309.397 473.797C310.926 472.265 311.844 470.426 312.761 468.282C313.678 466.137 314.29 463.686 314.29 461.235H292.885V454.801H321.017C321.323 456.333 321.323 457.864 321.323 459.09C321.323 462.767 320.712 466.137 319.488 469.507C318.265 472.878 316.431 475.941 313.984 478.393C308.48 484.214 301.447 487.278 292.579 487.278C286.769 487.278 281.571 485.746 276.984 483.295Z" fill="#656C73"/>
<path d="M353.306 450.306H359.422L371.042 480.026H371.347L382.967 450.306H389.083V486.767H384.802V463.788L385.108 456.741H384.802L372.876 486.767H369.207L357.281 456.741H356.975L357.281 463.788V486.767H353V450.306H353.306Z" fill="#656C73"/>
<path d="M396.728 455.209C396.116 454.596 395.811 453.983 395.811 453.064C395.811 452.145 396.116 451.532 396.728 450.919C397.34 450.306 397.951 450 398.868 450C399.786 450 400.397 450.306 401.009 450.919C401.621 451.532 401.926 452.145 401.926 453.064C401.926 453.983 401.621 454.596 401.009 455.209C400.397 455.821 399.786 456.128 398.868 456.128C397.951 456.128 397.34 455.821 396.728 455.209ZM396.728 461.336H401.009V486.46H396.728V461.336Z" fill="#656C73"/>
<path d="M407 450H411.281V486.46H407V450Z" fill="#656C73"/>
<path d="M420.587 484.737C419.058 484.124 417.835 482.898 417.223 481.673C416.306 480.447 416 478.915 416 477.383C416 474.626 416.917 472.481 419.058 471.256C421.198 469.724 423.645 469.111 426.703 469.111C428.232 469.111 429.761 469.417 430.984 469.724C432.207 470.03 433.124 470.336 434.042 470.949V469.724C434.042 468.498 433.736 467.273 433.124 466.353C432.513 465.434 431.595 464.515 430.678 464.209C429.761 463.596 428.537 463.289 427.314 463.289C424.562 463.289 422.116 464.515 420.587 466.66L416.917 464.209C418.141 462.677 419.364 461.451 421.198 460.532C423.033 459.613 424.868 459.306 427.008 459.306C430.372 459.306 433.124 460.226 435.265 462.064C437.405 463.902 438.323 466.353 438.323 469.724V485.35H434.347V481.673H434.042C433.124 482.898 432.207 484.124 430.678 485.043C429.149 485.962 427.62 486.269 425.785 486.269C423.645 485.962 422.116 485.656 420.587 484.737ZM429.761 481.06C430.984 480.447 431.901 479.528 432.818 478.303C433.43 477.077 434.042 475.851 434.042 474.319C432.207 473.094 430.066 472.481 427.62 472.481C425.479 472.481 423.645 473.094 422.422 474.013C421.198 474.932 420.587 476.158 420.587 477.69C420.587 478.915 421.198 480.141 422.116 481.06C423.339 481.979 424.562 482.286 426.091 482.286C427.314 482.286 428.537 481.673 429.761 481.06Z" fill="#656C73"/>
<path d="M443.827 459.919H447.802V463.596H448.108C448.719 462.37 449.943 461.145 451.472 460.226C453.001 459.306 454.529 459 456.364 459C459.422 459 461.868 459.919 463.397 461.758C464.926 463.596 465.844 466.047 465.844 469.111V485.043H461.563V469.724C461.563 467.273 460.951 465.434 460.034 464.515C459.116 463.596 457.282 462.983 455.447 462.983C454.224 462.983 453.001 463.289 451.777 464.209C450.554 465.128 449.943 466.047 449.331 467.273C448.719 468.498 448.414 469.724 448.414 471.256V485.043H444.133V459.919H443.827Z" fill="#656C73"/>
<path d="M476.852 484.124C475.017 482.898 473.488 481.366 472.265 479.222C471.042 477.077 470.736 474.932 470.736 472.481C470.736 470.03 471.348 467.579 472.265 465.741C473.183 463.902 475.017 462.064 476.852 460.838C478.687 459.613 481.133 459 483.58 459C486.026 459 488.166 459.613 490.307 460.838C492.142 462.064 493.976 463.596 494.894 465.741C495.811 467.885 496.423 470.03 496.423 472.481C496.423 474.932 495.811 477.383 494.894 479.222C493.976 481.06 492.142 482.898 490.307 484.124C488.472 485.35 486.026 485.962 483.58 485.962C481.133 485.962 478.687 485.35 476.852 484.124ZM487.861 480.754C489.084 479.835 490.307 478.915 490.918 477.383C491.836 475.851 492.142 474.319 492.142 472.481C492.142 470.643 491.836 468.804 490.918 467.579C490.001 466.047 489.084 465.128 487.861 464.209C486.637 463.289 485.108 462.983 483.58 462.983C482.051 462.983 480.827 463.289 479.298 464.209C478.075 465.128 476.852 466.047 476.241 467.579C475.323 469.111 475.017 470.643 475.017 472.481C475.017 474.319 475.323 476.158 476.241 477.383C477.158 478.915 478.075 479.835 479.298 480.754C480.522 481.673 482.051 481.979 483.58 481.979C485.108 481.979 486.332 481.673 487.861 480.754Z" fill="#656C73"/>
<g clip-path="url(#clip0_86_108)">
<path d="M121 246.918V377.031C121 378.223 121.936 379.159 123.127 379.159H191.929C192.822 379.159 193.503 378.436 193.503 377.585V187.775C193.503 185.945 191.333 184.967 189.971 186.158L121.553 245.726C121.213 246.024 121 246.45 121 246.918Z" fill="#EA4335"/>
<path d="M236.86 217.559L239.498 257.002C239.498 257.044 239.498 257.087 239.498 257.087V377.585C239.498 378.436 240.221 379.159 241.072 379.159H300.555C301.662 379.159 302.427 378.053 302.045 377.031L239.924 216.878C239.711 216.283 239.115 215.857 238.434 215.857C237.541 215.857 236.817 216.623 236.86 217.559Z" fill="#4285F4"/>
<path d="M448.497 187.222V377.585C448.497 378.436 449.22 379.159 450.071 379.159H518.873C520.064 379.159 521 378.223 521 377.031V246.918C521 246.45 520.787 246.024 520.447 245.726L452.029 185.648C450.667 184.414 448.497 185.392 448.497 187.222Z" fill="#34A853"/>
<path d="M403.225 215.857C402.587 215.857 401.991 216.24 401.736 216.878L339.998 377.031C339.615 378.053 340.381 379.159 341.487 379.159H400.587C401.438 379.159 402.162 378.436 402.162 377.585V257.087C402.162 257.044 402.162 257.002 402.162 257.002L404.8 217.559C404.842 216.623 404.119 215.857 403.225 215.857Z" fill="#4285F4"/>
<path d="M387.78 129.185L323.234 72.5106C322.851 72.1702 322.34 72 321.872 72.0426C321.234 72.0851 320.596 72.0851 320 72.0426C319.532 72.0426 319.021 72.1702 318.639 72.5106L254.05 129.185C253.411 129.739 253.199 130.632 253.539 131.44L319.149 304.188C319.404 304.911 320.085 305.422 320.851 305.465C320.894 305.465 320.894 305.465 320.936 305.465C320.979 305.465 320.979 305.465 321.021 305.465C321.787 305.422 322.468 304.911 322.723 304.188L388.333 131.44C388.631 130.632 388.418 129.739 387.78 129.185Z" fill="#F9AB00"/>
</g>
<defs>
<clipPath id="clip0_86_108">
<rect width="400" height="307.159" fill="white" transform="translate(121 72)"/>
</clipPath>
</defs>
</svg>
