<svg width="551" height="285" viewBox="0 0 551 285" fill="none" xmlns="http://www.w3.org/2000/svg">
<path d="M235.56 217.088H243.304C244.563 217.088 245.736 217.376 246.824 217.952C247.912 218.528 248.776 219.339 249.416 220.384C250.077 221.408 250.408 222.571 250.408 223.872C250.408 224.939 250.163 225.931 249.672 226.848C249.203 227.765 248.541 228.533 247.688 229.152C246.856 229.771 245.928 230.187 244.904 230.4L244.84 230.496L251.304 239.872V240H248.104L241.864 230.656H238.248V240H235.56V217.088ZM243.144 228.128C243.933 228.128 244.669 227.947 245.352 227.584C246.056 227.221 246.611 226.72 247.016 226.08C247.443 225.419 247.656 224.683 247.656 223.872C247.656 223.168 247.475 222.496 247.112 221.856C246.749 221.216 246.237 220.693 245.576 220.288C244.936 219.883 244.189 219.68 243.336 219.68H238.248V228.128H243.144ZM260.974 240.512C259.374 240.512 257.934 240.128 256.654 239.36C255.374 238.592 254.371 237.547 253.646 236.224C252.942 234.901 252.59 233.44 252.59 231.84C252.59 230.24 252.942 228.779 253.646 227.456C254.371 226.133 255.374 225.088 256.654 224.32C257.934 223.552 259.374 223.168 260.974 223.168C262.574 223.168 264.014 223.552 265.294 224.32C266.574 225.088 267.566 226.133 268.27 227.456C268.995 228.779 269.358 230.24 269.358 231.84C269.358 233.44 268.995 234.901 268.27 236.224C267.566 237.547 266.574 238.592 265.294 239.36C264.014 240.128 262.574 240.512 260.974 240.512ZM260.974 238.048C261.976 238.048 262.904 237.803 263.758 237.312C264.632 236.8 265.326 236.075 265.838 235.136C266.371 234.197 266.638 233.099 266.638 231.84C266.638 230.581 266.371 229.483 265.838 228.544C265.326 227.605 264.632 226.891 263.758 226.4C262.904 225.888 261.976 225.632 260.974 225.632C259.971 225.632 259.032 225.888 258.158 226.4C257.283 226.891 256.579 227.605 256.046 228.544C255.534 229.483 255.278 230.581 255.278 231.84C255.278 233.099 255.534 234.197 256.046 235.136C256.579 236.075 257.283 236.8 258.158 237.312C259.032 237.803 259.971 238.048 260.974 238.048ZM272.204 223.68H274.796V226.08H274.924C275.393 225.248 276.097 224.555 277.036 224C277.974 223.445 278.966 223.168 280.012 223.168C281.206 223.168 282.241 223.456 283.116 224.032C284.012 224.608 284.652 225.376 285.036 226.336C285.612 225.376 286.369 224.608 287.308 224.032C288.268 223.456 289.377 223.168 290.636 223.168C292.513 223.168 293.921 223.744 294.86 224.896C295.82 226.027 296.3 227.573 296.3 229.536V240H293.612V229.952C293.612 228.437 293.302 227.339 292.684 226.656C292.065 225.973 291.148 225.632 289.932 225.632C289.121 225.632 288.385 225.867 287.724 226.336C287.062 226.805 286.54 227.435 286.156 228.224C285.793 229.013 285.612 229.867 285.612 230.784V240H282.892V229.984C282.892 228.448 282.582 227.339 281.964 226.656C281.345 225.973 280.438 225.632 279.244 225.632C278.433 225.632 277.697 225.877 277.036 226.368C276.374 226.837 275.852 227.477 275.468 228.288C275.105 229.077 274.924 229.931 274.924 230.848V240H272.204V223.68ZM305.263 240.512C304.069 240.512 303.002 240.277 302.063 239.808C301.125 239.339 300.399 238.699 299.887 237.888C299.375 237.056 299.119 236.117 299.119 235.072C299.119 233.344 299.77 232 301.071 231.04C302.373 230.059 304.015 229.568 305.999 229.568C306.981 229.568 307.887 229.675 308.719 229.888C309.573 230.101 310.223 230.347 310.671 230.624V229.632C310.671 228.416 310.245 227.445 309.391 226.72C308.538 225.973 307.461 225.6 306.159 225.6C305.242 225.6 304.399 225.803 303.631 226.208C302.863 226.592 302.255 227.136 301.807 227.84L299.759 226.304C300.399 225.323 301.274 224.555 302.383 224C303.514 223.445 304.762 223.168 306.127 223.168C308.346 223.168 310.085 223.755 311.343 224.928C312.623 226.08 313.263 227.659 313.263 229.664V240H310.671V237.664H310.543C310.074 238.453 309.37 239.125 308.431 239.68C307.493 240.235 306.437 240.512 305.263 240.512ZM305.519 238.112C306.437 238.112 307.29 237.877 308.079 237.408C308.869 236.939 309.498 236.309 309.967 235.52C310.437 234.731 310.671 233.867 310.671 232.928C310.159 232.587 309.53 232.309 308.783 232.096C308.037 231.883 307.247 231.776 306.415 231.776C304.922 231.776 303.791 232.085 303.023 232.704C302.277 233.323 301.903 234.123 301.903 235.104C301.903 236 302.245 236.725 302.927 237.28C303.61 237.835 304.474 238.112 305.519 238.112Z" fill="#656C73"/>
<path d="M50.64 192.64C47.9467 192.64 45.4667 191.987 43.2 190.68C40.9333 189.373 39.1333 187.573 37.8 185.28C36.4667 182.987 35.8 180.453 35.8 177.68C35.8 174.907 36.4667 172.373 37.8 170.08C39.1333 167.787 40.9333 165.987 43.2 164.68C45.4667 163.373 47.9467 162.72 50.64 162.72C52.7467 162.72 54.72 163.093 56.56 163.84C58.4267 164.587 59.96 165.64 61.16 167L58.72 169.44C57.8133 168.32 56.6533 167.467 55.24 166.88C53.8267 166.267 52.3067 165.96 50.68 165.96C48.6533 165.96 46.76 166.453 45 167.44C43.2667 168.4 41.8667 169.773 40.8 171.56C39.76 173.32 39.24 175.36 39.24 177.68C39.24 180 39.76 182.053 40.8 183.84C41.8667 185.6 43.28 186.973 45.04 187.96C46.8 188.92 48.68 189.4 50.68 189.4C52.6 189.4 54.2 189.107 55.48 188.52C56.7867 187.907 57.9067 187.107 58.84 186.12C59.5333 185.373 60.0933 184.48 60.52 183.44C60.9467 182.373 61.2133 181.2 61.32 179.92H50.72V176.76H64.48C64.6133 177.507 64.68 178.2 64.68 178.84C64.68 180.6 64.4 182.32 63.84 184C63.28 185.653 62.3867 187.107 61.16 188.36C58.52 191.213 55.0133 192.64 50.64 192.64ZM78.6638 192.64C76.6638 192.64 74.8638 192.16 73.2638 191.2C71.6638 190.24 70.4104 188.933 69.5038 187.28C68.6238 185.627 68.1838 183.8 68.1838 181.8C68.1838 179.8 68.6238 177.973 69.5038 176.32C70.4104 174.667 71.6638 173.36 73.2638 172.4C74.8638 171.44 76.6638 170.96 78.6638 170.96C80.6638 170.96 82.4638 171.44 84.0638 172.4C85.6638 173.36 86.9038 174.667 87.7838 176.32C88.6904 177.973 89.1438 179.8 89.1438 181.8C89.1438 183.8 88.6904 185.627 87.7838 187.28C86.9038 188.933 85.6638 190.24 84.0638 191.2C82.4638 192.16 80.6638 192.64 78.6638 192.64ZM78.6638 189.56C79.9171 189.56 81.0771 189.253 82.1438 188.64C83.2371 188 84.1038 187.093 84.7438 185.92C85.4104 184.747 85.7438 183.373 85.7438 181.8C85.7438 180.227 85.4104 178.853 84.7438 177.68C84.1038 176.507 83.2371 175.613 82.1438 175C81.0771 174.36 79.9171 174.04 78.6638 174.04C77.4104 174.04 76.2371 174.36 75.1438 175C74.0504 175.613 73.1704 176.507 72.5038 177.68C71.8638 178.853 71.5438 180.227 71.5438 181.8C71.5438 183.373 71.8638 184.747 72.5038 185.92C73.1704 187.093 74.0504 188 75.1438 188.64C76.2371 189.253 77.4104 189.56 78.6638 189.56ZM102.892 192.64C100.892 192.64 99.0919 192.16 97.4919 191.2C95.8919 190.24 94.6385 188.933 93.7319 187.28C92.8519 185.627 92.4119 183.8 92.4119 181.8C92.4119 179.8 92.8519 177.973 93.7319 176.32C94.6385 174.667 95.8919 173.36 97.4919 172.4C99.0919 171.44 100.892 170.96 102.892 170.96C104.892 170.96 106.692 171.44 108.292 172.4C109.892 173.36 111.132 174.667 112.012 176.32C112.919 177.973 113.372 179.8 113.372 181.8C113.372 183.8 112.919 185.627 112.012 187.28C111.132 188.933 109.892 190.24 108.292 191.2C106.692 192.16 104.892 192.64 102.892 192.64ZM102.892 189.56C104.145 189.56 105.305 189.253 106.372 188.64C107.465 188 108.332 187.093 108.972 185.92C109.639 184.747 109.972 183.373 109.972 181.8C109.972 180.227 109.639 178.853 108.972 177.68C108.332 176.507 107.465 175.613 106.372 175C105.305 174.36 104.145 174.04 102.892 174.04C101.639 174.04 100.465 174.36 99.3719 175C98.2785 175.613 97.3985 176.507 96.7319 177.68C96.0919 178.853 95.7719 180.227 95.7719 181.8C95.7719 183.373 96.0919 184.747 96.7319 185.92C97.3985 187.093 98.2785 188 99.3719 188.64C100.465 189.253 101.639 189.56 102.892 189.56ZM126.68 201.28C124.28 201.28 122.293 200.72 120.72 199.6C119.173 198.48 118.133 197.133 117.6 195.56L120.68 194.24C121.133 195.413 121.88 196.36 122.92 197.08C123.987 197.827 125.24 198.2 126.68 198.2C128.787 198.2 130.413 197.587 131.56 196.36C132.733 195.133 133.32 193.4 133.32 191.16V188.88H133.16C132.493 189.92 131.547 190.773 130.32 191.44C129.12 192.08 127.747 192.4 126.2 192.4C124.44 192.4 122.827 191.947 121.36 191.04C119.92 190.133 118.773 188.867 117.92 187.24C117.067 185.613 116.64 183.76 116.64 181.68C116.64 179.627 117.067 177.787 117.92 176.16C118.773 174.507 119.92 173.227 121.36 172.32C122.827 171.413 124.44 170.96 126.2 170.96C127.747 170.96 129.12 171.293 130.32 171.96C131.547 172.6 132.493 173.453 133.16 174.52H133.32V171.6H136.56V191.2C136.56 194.48 135.653 196.973 133.84 198.68C132.027 200.413 129.64 201.28 126.68 201.28ZM126.68 189.32C127.907 189.32 129.013 189.013 130 188.4C131.013 187.787 131.813 186.907 132.4 185.76C133.013 184.613 133.32 183.253 133.32 181.68C133.32 180.08 133.013 178.707 132.4 177.56C131.813 176.413 131.013 175.547 130 174.96C129.013 174.347 127.907 174.04 126.68 174.04C125.453 174.04 124.333 174.347 123.32 174.96C122.307 175.573 121.493 176.453 120.88 177.6C120.293 178.747 120 180.107 120 181.68C120 183.253 120.293 184.627 120.88 185.8C121.493 186.947 122.307 187.827 123.32 188.44C124.333 189.027 125.453 189.32 126.68 189.32ZM141.987 163.36H145.387V192H141.987V163.36ZM159.709 192.64C157.763 192.64 156.016 192.173 154.469 191.24C152.923 190.307 151.709 189.027 150.829 187.4C149.976 185.747 149.549 183.893 149.549 181.84C149.549 179.867 149.949 178.053 150.749 176.4C151.576 174.747 152.736 173.427 154.229 172.44C155.723 171.453 157.456 170.96 159.429 170.96C161.429 170.96 163.163 171.413 164.629 172.32C166.096 173.2 167.216 174.427 167.989 176C168.789 177.573 169.189 179.373 169.189 181.4C169.189 181.8 169.149 182.147 169.069 182.44H152.949C153.029 183.987 153.403 185.293 154.069 186.36C154.736 187.427 155.576 188.227 156.589 188.76C157.629 189.293 158.709 189.56 159.829 189.56C162.443 189.56 164.456 188.333 165.869 185.88L168.749 187.28C167.869 188.933 166.669 190.24 165.149 191.2C163.656 192.16 161.843 192.64 159.709 192.64ZM165.589 179.64C165.536 178.787 165.296 177.933 164.869 177.08C164.443 176.227 163.763 175.507 162.829 174.92C161.923 174.333 160.776 174.04 159.389 174.04C157.789 174.04 156.429 174.56 155.309 175.6C154.216 176.613 153.496 177.96 153.149 179.64H165.589ZM183.945 163.36H192.585C195.519 163.36 198.079 163.973 200.265 165.2C202.452 166.4 204.132 168.08 205.305 170.24C206.479 172.4 207.065 174.88 207.065 177.68C207.065 180.48 206.479 182.96 205.305 185.12C204.132 187.28 202.452 188.973 200.265 190.2C198.079 191.4 195.519 192 192.585 192H183.945V163.36ZM192.585 188.76C195.972 188.76 198.652 187.787 200.625 185.84C202.625 183.893 203.625 181.173 203.625 177.68C203.625 174.187 202.625 171.467 200.625 169.52C198.652 167.573 195.972 166.6 192.585 166.6H187.305V188.76H192.585ZM220.284 192.64C218.338 192.64 216.591 192.173 215.044 191.24C213.498 190.307 212.284 189.027 211.404 187.4C210.551 185.747 210.124 183.893 210.124 181.84C210.124 179.867 210.524 178.053 211.324 176.4C212.151 174.747 213.311 173.427 214.804 172.44C216.298 171.453 218.031 170.96 220.004 170.96C222.004 170.96 223.738 171.413 225.204 172.32C226.671 173.2 227.791 174.427 228.564 176C229.364 177.573 229.764 179.373 229.764 181.4C229.764 181.8 229.724 182.147 229.644 182.44H213.524C213.604 183.987 213.978 185.293 214.644 186.36C215.311 187.427 216.151 188.227 217.164 188.76C218.204 189.293 219.284 189.56 220.404 189.56C223.018 189.56 225.031 188.333 226.444 185.88L229.324 187.28C228.444 188.933 227.244 190.24 225.724 191.2C224.231 192.16 222.418 192.64 220.284 192.64ZM226.164 179.64C226.111 178.787 225.871 177.933 225.444 177.08C225.018 176.227 224.338 175.507 223.404 174.92C222.498 174.333 221.351 174.04 219.964 174.04C218.364 174.04 217.004 174.56 215.884 175.6C214.791 176.613 214.071 177.96 213.724 179.64H226.164ZM231.513 171.6H235.153L241.473 188H241.553L247.953 171.6H251.513L243.193 192H239.753L231.513 171.6ZM263.194 192.64C261.247 192.64 259.5 192.173 257.954 191.24C256.407 190.307 255.194 189.027 254.314 187.4C253.46 185.747 253.034 183.893 253.034 181.84C253.034 179.867 253.434 178.053 254.234 176.4C255.06 174.747 256.22 173.427 257.714 172.44C259.207 171.453 260.94 170.96 262.914 170.96C264.914 170.96 266.647 171.413 268.114 172.32C269.58 173.2 270.7 174.427 271.474 176C272.274 177.573 272.674 179.373 272.674 181.4C272.674 181.8 272.634 182.147 272.554 182.44H256.434C256.514 183.987 256.887 185.293 257.554 186.36C258.22 187.427 259.06 188.227 260.074 188.76C261.114 189.293 262.194 189.56 263.314 189.56C265.927 189.56 267.94 188.333 269.354 185.88L272.234 187.28C271.354 188.933 270.154 190.24 268.634 191.2C267.14 192.16 265.327 192.64 263.194 192.64ZM269.074 179.64C269.02 178.787 268.78 177.933 268.354 177.08C267.927 176.227 267.247 175.507 266.314 174.92C265.407 174.333 264.26 174.04 262.874 174.04C261.274 174.04 259.914 174.56 258.794 175.6C257.7 176.613 256.98 177.96 256.634 179.64H269.074ZM277.053 163.36H280.453V192H277.053V163.36ZM295.095 192.64C293.095 192.64 291.295 192.16 289.695 191.2C288.095 190.24 286.842 188.933 285.935 187.28C285.055 185.627 284.615 183.8 284.615 181.8C284.615 179.8 285.055 177.973 285.935 176.32C286.842 174.667 288.095 173.36 289.695 172.4C291.295 171.44 293.095 170.96 295.095 170.96C297.095 170.96 298.895 171.44 300.495 172.4C302.095 173.36 303.335 174.667 304.215 176.32C305.122 177.973 305.575 179.8 305.575 181.8C305.575 183.8 305.122 185.627 304.215 187.28C303.335 188.933 302.095 190.24 300.495 191.2C298.895 192.16 297.095 192.64 295.095 192.64ZM295.095 189.56C296.348 189.56 297.508 189.253 298.575 188.64C299.668 188 300.535 187.093 301.175 185.92C301.842 184.747 302.175 183.373 302.175 181.8C302.175 180.227 301.842 178.853 301.175 177.68C300.535 176.507 299.668 175.613 298.575 175C297.508 174.36 296.348 174.04 295.095 174.04C293.842 174.04 292.668 174.36 291.575 175C290.482 175.613 289.602 176.507 288.935 177.68C288.295 178.853 287.975 180.227 287.975 181.8C287.975 183.373 288.295 184.747 288.935 185.92C289.602 187.093 290.482 188 291.575 188.64C292.668 189.253 293.842 189.56 295.095 189.56ZM309.568 171.6H312.808V174.64H312.968C313.581 173.6 314.501 172.733 315.728 172.04C316.981 171.32 318.381 170.96 319.928 170.96C321.741 170.96 323.394 171.427 324.888 172.36C326.381 173.293 327.554 174.587 328.408 176.24C329.261 177.893 329.688 179.747 329.688 181.8C329.688 183.88 329.261 185.747 328.408 187.4C327.554 189.027 326.381 190.307 324.888 191.24C323.394 192.173 321.741 192.64 319.928 192.64C318.381 192.64 316.981 192.293 315.728 191.6C314.501 190.88 313.581 190.013 312.968 189H312.808L312.968 191.8V200.64H309.568V171.6ZM319.528 189.56C320.701 189.56 321.808 189.24 322.848 188.6C323.888 187.96 324.714 187.053 325.328 185.88C325.968 184.68 326.288 183.32 326.288 181.8C326.288 180.28 325.968 178.933 325.328 177.76C324.714 176.56 323.888 175.64 322.848 175C321.808 174.36 320.701 174.04 319.528 174.04C318.354 174.04 317.248 174.36 316.208 175C315.168 175.64 314.341 176.547 313.728 177.72C313.114 178.893 312.808 180.253 312.808 181.8C312.808 183.347 313.114 184.707 313.728 185.88C314.341 187.053 315.168 187.96 316.208 188.6C317.248 189.24 318.354 189.56 319.528 189.56ZM343.114 192.64C341.167 192.64 339.421 192.173 337.874 191.24C336.327 190.307 335.114 189.027 334.234 187.4C333.381 185.747 332.954 183.893 332.954 181.84C332.954 179.867 333.354 178.053 334.154 176.4C334.981 174.747 336.141 173.427 337.634 172.44C339.127 171.453 340.861 170.96 342.834 170.96C344.834 170.96 346.567 171.413 348.034 172.32C349.501 173.2 350.621 174.427 351.394 176C352.194 177.573 352.594 179.373 352.594 181.4C352.594 181.8 352.554 182.147 352.474 182.44H336.354C336.434 183.987 336.807 185.293 337.474 186.36C338.141 187.427 338.981 188.227 339.994 188.76C341.034 189.293 342.114 189.56 343.234 189.56C345.847 189.56 347.861 188.333 349.274 185.88L352.154 187.28C351.274 188.933 350.074 190.24 348.554 191.2C347.061 192.16 345.247 192.64 343.114 192.64ZM348.994 179.64C348.941 178.787 348.701 177.933 348.274 177.08C347.847 176.227 347.167 175.507 346.234 174.92C345.327 174.333 344.181 174.04 342.794 174.04C341.194 174.04 339.834 174.56 338.714 175.6C337.621 176.613 336.901 177.96 336.554 179.64H348.994ZM356.973 171.6H360.213V174.88H360.373C360.773 173.76 361.546 172.84 362.693 172.12C363.84 171.373 365.04 171 366.293 171C367.226 171 368.026 171.133 368.693 171.4V175.08C367.84 174.653 366.88 174.44 365.813 174.44C364.826 174.44 363.92 174.72 363.093 175.28C362.266 175.84 361.6 176.6 361.093 177.56C360.613 178.493 360.373 179.507 360.373 180.6V192H356.973V171.6ZM395.409 192.64C392.715 192.64 390.235 191.987 387.969 190.68C385.702 189.373 383.902 187.573 382.569 185.28C381.235 182.987 380.569 180.453 380.569 177.68C380.569 174.907 381.235 172.373 382.569 170.08C383.902 167.787 385.702 165.987 387.969 164.68C390.235 163.373 392.715 162.72 395.409 162.72C397.515 162.72 399.489 163.093 401.329 163.84C403.195 164.587 404.729 165.64 405.929 167L403.489 169.44C402.582 168.32 401.422 167.467 400.009 166.88C398.595 166.267 397.075 165.96 395.449 165.96C393.422 165.96 391.529 166.453 389.769 167.44C388.035 168.4 386.635 169.773 385.569 171.56C384.529 173.32 384.009 175.36 384.009 177.68C384.009 180 384.529 182.053 385.569 183.84C386.635 185.6 388.049 186.973 389.809 187.96C391.569 188.92 393.449 189.4 395.449 189.4C397.369 189.4 398.969 189.107 400.249 188.52C401.555 187.907 402.675 187.107 403.609 186.12C404.302 185.373 404.862 184.48 405.289 183.44C405.715 182.373 405.982 181.2 406.089 179.92H395.489V176.76H409.249C409.382 177.507 409.449 178.2 409.449 178.84C409.449 180.6 409.169 182.32 408.609 184C408.049 185.653 407.155 187.107 405.929 188.36C403.289 191.213 399.782 192.64 395.409 192.64ZM413.447 171.6H416.687V174.88H416.847C417.247 173.76 418.02 172.84 419.167 172.12C420.313 171.373 421.513 171 422.767 171C423.7 171 424.5 171.133 425.167 171.4V175.08C424.313 174.653 423.353 174.44 422.287 174.44C421.3 174.44 420.393 174.72 419.567 175.28C418.74 175.84 418.073 176.6 417.567 177.56C417.087 178.493 416.847 179.507 416.847 180.6V192H413.447V171.6ZM437.036 192.64C435.036 192.64 433.236 192.16 431.636 191.2C430.036 190.24 428.782 188.933 427.876 187.28C426.996 185.627 426.556 183.8 426.556 181.8C426.556 179.8 426.996 177.973 427.876 176.32C428.782 174.667 430.036 173.36 431.636 172.4C433.236 171.44 435.036 170.96 437.036 170.96C439.036 170.96 440.836 171.44 442.436 172.4C444.036 173.36 445.276 174.667 446.156 176.32C447.062 177.973 447.516 179.8 447.516 181.8C447.516 183.8 447.062 185.627 446.156 187.28C445.276 188.933 444.036 190.24 442.436 191.2C440.836 192.16 439.036 192.64 437.036 192.64ZM437.036 189.56C438.289 189.56 439.449 189.253 440.516 188.64C441.609 188 442.476 187.093 443.116 185.92C443.782 184.747 444.116 183.373 444.116 181.8C444.116 180.227 443.782 178.853 443.116 177.68C442.476 176.507 441.609 175.613 440.516 175C439.449 174.36 438.289 174.04 437.036 174.04C435.782 174.04 434.609 174.36 433.516 175C432.422 175.613 431.542 176.507 430.876 177.68C430.236 178.853 429.916 180.227 429.916 181.8C429.916 183.373 430.236 184.747 430.876 185.92C431.542 187.093 432.422 188 433.516 188.64C434.609 189.253 435.782 189.56 437.036 189.56ZM459.068 192.64C456.615 192.64 454.735 191.92 453.428 190.48C452.148 189.04 451.508 187.027 451.508 184.44V171.6H454.908V183.92C454.908 185.867 455.348 187.293 456.228 188.2C457.108 189.107 458.295 189.56 459.788 189.56C460.935 189.56 461.948 189.253 462.828 188.64C463.735 188.027 464.428 187.227 464.908 186.24C465.415 185.253 465.668 184.213 465.668 183.12V171.6H469.068V192H465.828V189.04H465.668C465.108 190.053 464.215 190.907 462.988 191.6C461.762 192.293 460.455 192.64 459.068 192.64ZM474.33 171.6H477.57V174.64H477.73C478.344 173.6 479.264 172.733 480.49 172.04C481.744 171.32 483.144 170.96 484.69 170.96C486.504 170.96 488.157 171.427 489.65 172.36C491.144 173.293 492.317 174.587 493.17 176.24C494.024 177.893 494.45 179.747 494.45 181.8C494.45 183.88 494.024 185.747 493.17 187.4C492.317 189.027 491.144 190.307 489.65 191.24C488.157 192.173 486.504 192.64 484.69 192.64C483.144 192.64 481.744 192.293 480.49 191.6C479.264 190.88 478.344 190.013 477.73 189H477.57L477.73 191.8V200.64H474.33V171.6ZM484.29 189.56C485.464 189.56 486.57 189.24 487.61 188.6C488.65 187.96 489.477 187.053 490.09 185.88C490.73 184.68 491.05 183.32 491.05 181.8C491.05 180.28 490.73 178.933 490.09 177.76C489.477 176.56 488.65 175.64 487.61 175C486.57 174.36 485.464 174.04 484.29 174.04C483.117 174.04 482.01 174.36 480.97 175C479.93 175.64 479.104 176.547 478.49 177.72C477.877 178.893 477.57 180.253 477.57 181.8C477.57 183.347 477.877 184.707 478.49 185.88C479.104 187.053 479.93 187.96 480.97 188.6C482.01 189.24 483.117 189.56 484.29 189.56ZM505.721 192.64C503.535 192.64 501.708 192.133 500.241 191.12C498.775 190.08 497.735 188.76 497.121 187.16L500.161 185.8C500.668 187.027 501.415 187.973 502.401 188.64C503.415 189.307 504.521 189.64 505.721 189.64C507.001 189.64 508.095 189.387 509.001 188.88C509.908 188.347 510.361 187.6 510.361 186.64C510.361 185.787 510.001 185.107 509.281 184.6C508.561 184.067 507.428 183.613 505.881 183.24L503.401 182.6C501.775 182.2 500.441 181.52 499.401 180.56C498.361 179.6 497.841 178.36 497.841 176.84C497.841 175.667 498.188 174.64 498.881 173.76C499.601 172.853 500.548 172.16 501.721 171.68C502.895 171.2 504.161 170.96 505.521 170.96C507.308 170.96 508.895 171.347 510.281 172.12C511.695 172.893 512.695 173.973 513.281 175.36L510.321 176.72C509.415 174.907 507.801 174 505.481 174C504.361 174 503.375 174.267 502.521 174.8C501.695 175.307 501.281 175.96 501.281 176.76C501.281 177.507 501.575 178.12 502.161 178.6C502.748 179.053 503.628 179.427 504.801 179.72L507.761 180.48C509.761 180.987 511.268 181.747 512.281 182.76C513.295 183.747 513.801 184.96 513.801 186.4C513.801 187.653 513.441 188.76 512.721 189.72C512.001 190.653 511.028 191.373 509.801 191.88C508.575 192.387 507.215 192.64 505.721 192.64Z" fill="#656C73"/>
<rect x="186" y="75.9102" width="81.8203" height="28.0424" rx="14.0212" transform="rotate(-30 186 75.9102)" fill="#EA4335"/>
<rect x="200" y="62" width="81.8203" height="28.0424" rx="14.0212" transform="rotate(30 200 62)" fill="#4285F4"/>
<rect x="364.88" y="86.2854" width="81.8203" height="28.0424" rx="14.0212" transform="rotate(150 364.88 86.2854)" fill="#FBBC04"/>
<rect x="350.88" y="100.196" width="81.8203" height="28.0424" rx="14.0212" transform="rotate(-150 350.88 100.196)" fill="#0F9D58"/>
</svg>
