<?xml version="1.0" encoding="utf-8"?>
<!-- Generator: Adobe Illustrator 19.0.0, SVG Export Plug-In . SVG Version: 6.00 Build 0)  -->
<!DOCTYPE svg PUBLIC "-//W3C//DTD SVG 1.1//EN" "http://www.w3.org/Graphics/SVG/1.1/DTD/svg11.dtd">
<svg version="1.1" xmlns="http://www.w3.org/2000/svg" xmlns:xlink="http://www.w3.org/1999/xlink" x="0px" y="0px"
	 viewBox="0 0 100 200" style="enable-background:new 0 0 100 200;" xml:space="preserve">
<style type="text/css">
	.st0{fill:none;}
	.st1{fill:#E2001A;}
</style>
<g id="Boundingbox">
	<rect class="st0" width="100" height="200"/>
</g>
<g id="Ascom">
	<g>
		<path class="st1" d="M13.1,100c-0.2-1-0.2-1.9-0.2-2.9h-0.1c-1.2,2.1-3.6,3.4-6,3.4c-3.4,0-6.8-2.1-6.8-5.8
			c0-7.2,7.7-6.7,12.7-6.7c0-3.1-1.4-4.2-4.4-4.2c-2.2,0-4.3,0.8-6,2.1l-0.1-4.4c2-0.9,4.6-1.5,6.8-1.5c5.8,0,8.5,2.3,8.5,8.3V100
			H13.1z M10.5,91c-2.3,0-5.7,0.4-5.7,3.4c0,1.8,1.7,2.4,3.2,2.4c3.4,0,4.7-2.8,4.7-5.8H10.5z"/>
		<path class="st1" d="M24.6,100.5c-2,0-3.9-0.3-5.8-0.8l0.3-4.2c1.6,0.8,3.2,1.3,5,1.3c1.5,0,3.4-0.6,3.4-2.4
			c0-3.8-8.8-1.2-8.8-8.3c0-4.4,3.9-6.1,7.7-6.1c1.9,0,3.7,0.3,5.6,0.7l-0.3,3.9c-1.6-0.6-2.9-0.9-4.6-0.9c-1.4,0-3,0.5-3,2.2
			c0,3.1,8.8,1.1,8.8,8.2C32.7,98.7,28.6,100.5,24.6,100.5z"/>
		<path class="st1" d="M43.5,100.5c-6.3,0-9.6-4.3-9.6-10.3c0-5.8,3.4-10.1,9.5-10.1c1.7,0,3.3,0.2,4.9,0.7l-0.4,4
			c-1.1-0.5-2.2-0.7-3.5-0.7c-3.5,0-5.2,3-5.2,6.2c0,3.4,1.5,6.4,5.3,6.4c1.3,0,2.7-0.4,3.9-0.9l0.2,4.2
			C47,100.3,45.3,100.5,43.5,100.5z"/>
		<path class="st1" d="M59.2,100.5c-6,0-10.2-4-10.2-10.1C49,84.3,53.1,80,59.2,80c6.2,0,10.3,4.2,10.3,10.4
			C69.5,96.5,65.2,100.5,59.2,100.5z M59.2,83.9c-3.3,0-4.9,2.9-4.9,5.8c0,3.2,1.1,6.7,4.9,6.7c3.9,0,4.9-3.5,4.9-6.7
			C64.1,86.8,62.5,83.9,59.2,83.9z"/>
		<path class="st1" d="M94.9,100V88.4c0-2.1-0.1-4.4-2.9-4.4c-3.4,0-3.8,4-3.8,6.6v9.5h-5.1V88.4c0-2.2-0.1-4.4-2.9-4.4
			c-3.4,0-3.8,4-3.8,6.6v9.5h-5.1V80.4H76v2.7h0.1c1.3-2,3.4-3.2,5.8-3.2c2.7,0,4.7,1,5.8,3.4c1.1-2.3,3.7-3.4,6.1-3.4
			c4.9,0,6.2,3.4,6.2,7.7V100H94.9z"/>
	</g>
</g>
<g id="guides">
</g>
</svg>
