<?xml version="1.0" encoding="UTF-8"?>
<!DOCTYPE svg PUBLIC "-//W3C//DTD SVG 1.1//EN" "http://www.w3.org/Graphics/SVG/1.1/DTD/svg11.dtd">
<svg xmlns="http://www.w3.org/2000/svg" version="1.1" width="8000px" height="1880px" style="shape-rendering:geometricPrecision; text-rendering:geometricPrecision; image-rendering:optimizeQuality; fill-rule:evenodd; clip-rule:evenodd" xmlns:xlink="http://www.w3.org/1999/xlink">
<g><path style="opacity:0.993" fill="#c0022f" d="M 854.5,36.5 C 855.833,36.5 857.167,36.5 858.5,36.5C 858.5,172.5 858.5,308.5 858.5,444.5C 677.377,460.774 518.044,527.441 380.5,644.5C 347.249,822.989 368.915,994.489 445.5,1159C 368.33,1204.09 290.997,1248.92 213.5,1293.5C 215.563,1095.01 257.396,905.347 339,724.5C 350.803,699.234 362.803,674.234 375,649.5C 235.56,772.955 145.893,926.288 106,1109.5C 89.0607,1193.5 84.394,1278.17 92,1363.5C 26.613,1142.12 31.9463,922.451 108,704.5C 202.595,450.07 369.095,258.237 607.5,129C 686.12,88.0136 768.453,57.1803 854.5,36.5 Z"/></g>
<g><path style="opacity:0.994" fill="#709849" d="M 996.5,37.5 C 996.917,36.8761 997.584,36.5427 998.5,36.5C 1251.66,99.0621 1455.16,234.729 1609,443.5C 1770.77,673.914 1833.43,929.247 1797,1209.5C 1789.41,1261.84 1777.75,1313.17 1762,1363.5C 1644.23,1295.7 1526.73,1227.53 1409.5,1159C 1485.92,994.386 1507.42,822.886 1474,644.5C 1336.5,527.783 1177.33,461.116 996.5,444.5C 996.333,354.833 996.5,265.166 997,175.5C 1173.81,281.97 1321.48,419.97 1440,589.5C 1451.25,606.33 1462.25,623.33 1473,640.5C 1431.64,437.843 1330.8,272.009 1170.5,143C 1116.93,101.026 1058.93,65.8591 996.5,37.5 Z"/></g>
<g><path style="opacity:0.993" fill="#221f1f" d="M 2466.5,174.5 C 2544.74,170.916 2621.08,181.249 2695.5,205.5C 2696.83,250.833 2696.83,296.167 2695.5,341.5C 2623.5,295.086 2545.17,278.92 2460.5,293C 2402.97,303.816 2357.14,332.65 2323,379.5C 2293.18,427.608 2283.51,479.608 2294,535.5C 2313.31,625.477 2368.14,678.977 2458.5,696C 2502.86,703.127 2545.86,698.294 2587.5,681.5C 2588.32,678.553 2588.82,675.553 2589,672.5C 2589.58,637.5 2590.08,602.5 2590.5,567.5C 2543.16,567.833 2495.83,567.5 2448.5,566.5C 2468.71,530.585 2489.04,494.752 2509.5,459C 2585.83,458.5 2662.17,458.333 2738.5,458.5C 2737.76,555.499 2736.92,652.499 2736,749.5C 2646.54,789.926 2552.7,809.093 2454.5,807C 2389.44,805.487 2328.44,789.153 2271.5,758C 2190.19,708.632 2143.02,636.466 2130,541.5C 2118.16,451.181 2139.82,370.181 2195,298.5C 2239.18,247.135 2294.01,211.968 2359.5,193C 2394.64,182.961 2430.3,176.794 2466.5,174.5 Z"/></g>
<g><path style="opacity:0.992" fill="#221f1f" d="M 5393.5,174.5 C 5458.88,171.672 5522.88,179.672 5585.5,198.5C 5585.5,243.5 5585.5,288.5 5585.5,333.5C 5566.1,321.799 5545.77,311.633 5524.5,303C 5468.03,283.4 5411.7,283.734 5355.5,304C 5283.48,335.723 5243.32,390.889 5235,469.5C 5229.26,529.598 5245.59,582.598 5284,628.5C 5322.41,667.952 5369.25,690.119 5424.5,695C 5472.76,698.841 5520.09,693.841 5566.5,680C 5581.93,674.932 5597.27,669.932 5612.5,665C 5588.04,706.751 5563.71,748.585 5539.5,790.5C 5505.61,800.604 5470.94,806.104 5435.5,807C 5368.08,810.986 5303.42,799.653 5241.5,773C 5135.98,721.227 5078.81,636.394 5070,518.5C 5064.86,431.595 5089.53,354.595 5144,287.5C 5195.49,230.658 5259.32,195.491 5335.5,182C 5354.88,178.662 5374.21,176.162 5393.5,174.5 Z"/></g>
<g><path style="opacity:0.994" fill="#221f1f" d="M 5902.5,174.5 C 5961.84,170.669 6019.18,179.502 6074.5,201C 6168.48,242.102 6227.31,312.602 6251,412.5C 6269.14,499.159 6256.81,581.159 6214,658.5C 6161.69,742.285 6086.19,790.785 5987.5,804C 5913.94,813.569 5842.94,804.236 5774.5,776C 5674.54,727.644 5617.37,648.144 5603,537.5C 5593.64,465.016 5605.64,396.35 5639,331.5C 5684.32,253.543 5751.16,204.376 5839.5,184C 5860.44,179.462 5881.44,176.295 5902.5,174.5 Z M 5913.5,291.5 C 5991.85,288.251 6045.69,322.918 6075,395.5C 6092.69,444.797 6096.36,495.131 6086,546.5C 6077.21,588.902 6057.05,624.735 6025.5,654C 5986.18,684.2 5942.18,693.867 5893.5,683C 5851.93,672.086 5820.1,648.253 5798,611.5C 5772.52,564.308 5762.85,513.975 5769,460.5C 5773.45,409.737 5793.29,366.237 5828.5,330C 5852.9,308.465 5881.24,295.631 5913.5,291.5 Z"/></g>
<g><path style="opacity:0.992" fill="#221f1f" d="M 2792.5,189.5 C 2845.5,189.5 2898.5,189.5 2951.5,189.5C 2951.5,390.5 2951.5,591.5 2951.5,792.5C 2898.5,792.5 2845.5,792.5 2792.5,792.5C 2792.5,591.5 2792.5,390.5 2792.5,189.5 Z"/></g>
<g><path style="opacity:0.994" fill="#221f1f" d="M 3030.5,189.5 C 3083.17,189.5 3135.83,189.5 3188.5,189.5C 3188.5,349.833 3188.5,510.167 3188.5,670.5C 3280.83,670.5 3373.17,670.5 3465.5,670.5C 3465.51,672.308 3465.01,673.975 3464,675.5C 3441.3,714.037 3418.8,752.704 3396.5,791.5C 3274.5,792.5 3152.5,792.833 3030.5,792.5C 3030.5,591.5 3030.5,390.5 3030.5,189.5 Z"/></g>
<g><path style="opacity:0.993" fill="#221f1f" d="M 3483.5,189.5 C 3578.18,189.032 3672.85,189.532 3767.5,191C 3808.79,194.199 3845.79,208.199 3878.5,233C 3918.85,270.045 3935.02,315.878 3927,370.5C 3921.42,406.391 3903.92,434.891 3874.5,456C 3863.32,463.425 3851.66,470.092 3839.5,476C 3862.97,484.398 3884.31,496.398 3903.5,512C 3938.42,546.087 3953.59,587.587 3949,636.5C 3940.6,693.821 3911.44,736.988 3861.5,766C 3833.04,781.033 3802.7,789.366 3770.5,791C 3674.84,792.428 3579.18,792.928 3483.5,792.5C 3483.5,591.5 3483.5,390.5 3483.5,189.5 Z M 3635.5,301.5 C 3662.18,301.253 3688.85,301.753 3715.5,303C 3733.98,304.269 3750.65,310.269 3765.5,321C 3780.87,337.635 3786.04,357.135 3781,379.5C 3773.8,404.37 3757.63,420.203 3732.5,427C 3718.04,430.379 3703.37,432.046 3688.5,432C 3671.12,457.92 3653.62,483.753 3636,509.5C 3635.5,440.167 3635.33,370.834 3635.5,301.5 Z M 3635.5,525.5 C 3659.86,525.132 3684.19,525.632 3708.5,527C 3730.83,528.443 3751.17,535.443 3769.5,548C 3785.84,562.828 3793.5,581.328 3792.5,603.5C 3792.35,640.98 3774.35,665.147 3738.5,676C 3731.6,677.872 3724.6,679.205 3717.5,680C 3690.19,681.374 3662.85,681.874 3635.5,681.5C 3635.5,629.5 3635.5,577.5 3635.5,525.5 Z"/></g>
<g><path style="opacity:0.993" fill="#221f1f" d="M 4182.5,189.5 C 4233.83,189.5 4285.17,189.5 4336.5,189.5C 4413.7,390.422 4490.7,591.422 4567.5,792.5C 4511.83,792.833 4456.16,792.5 4400.5,791.5C 4387.03,751.759 4373.36,712.092 4359.5,672.5C 4288.17,671.5 4216.84,671.167 4145.5,671.5C 4131.57,711.617 4117.24,751.617 4102.5,791.5C 4050.17,792.5 3997.84,792.833 3945.5,792.5C 4024.22,591.394 4103.22,390.394 4182.5,189.5 Z M 4255.5,358.5 C 4257.15,365.417 4258.98,372.417 4261,379.5C 4283.47,445.758 4305.64,512.091 4327.5,578.5C 4277.83,578.833 4228.16,578.5 4178.5,577.5C 4205.17,504.832 4230.83,431.832 4255.5,358.5 Z"/></g>
<g><path style="opacity:0.993" fill="#221f1f" d="M 4586.5,189.5 C 4682.17,189.333 4777.83,189.5 4873.5,190C 4918.59,191.696 4959.26,205.696 4995.5,232C 5033.94,264.554 5052.94,306.221 5052.5,357C 5050.16,425.045 5019.49,475.711 4960.5,509C 5018.54,602.916 5076.21,697.083 5133.5,791.5C 5076.17,792.667 5018.84,792.833 4961.5,792C 4910.37,707.583 4859.37,623.083 4808.5,538.5C 4806.67,538.167 4804.83,537.833 4803,537.5C 4782.17,538.38 4761.34,539.047 4740.5,539.5C 4740.5,623.833 4740.5,708.167 4740.5,792.5C 4689.17,792.5 4637.83,792.5 4586.5,792.5C 4586.5,591.5 4586.5,390.5 4586.5,189.5 Z M 4740.5,301.5 C 4768.17,301.333 4795.84,301.5 4823.5,302C 4842.77,302.142 4860.1,307.809 4875.5,319C 4897.22,341.238 4902.72,367.071 4892,396.5C 4879.48,421.988 4858.98,436.155 4830.5,439C 4820.18,439.911 4809.85,440.578 4799.5,441C 4779.88,468.412 4760.38,495.912 4741,523.5C 4740.5,449.501 4740.33,375.501 4740.5,301.5 Z"/></g>
<g><path style="opacity:0.989" fill="#221f1f" d="M 2105.5,900.5 C 4055.17,900.5 6004.83,900.5 7954.5,900.5C 7954.5,908.5 7954.5,916.5 7954.5,924.5C 6004.83,924.5 4055.17,924.5 2105.5,924.5C 2105.5,916.5 2105.5,908.5 2105.5,900.5 Z"/></g>
<g><path style="opacity:0.994" fill="#221f1f" d="M 6447.5,1043.5 C 6513.43,1040.05 6576.1,1052.55 6635.5,1081C 6729.1,1132.92 6782.26,1212.42 6795,1319.5C 6804.25,1409.52 6781.92,1490.52 6728,1562.5C 6668.17,1633.16 6591.67,1670.99 6498.5,1676C 6433.65,1680.47 6371.32,1670.14 6311.5,1645C 6223.1,1602.58 6167.94,1533.41 6146,1437.5C 6130.93,1365.63 6136.93,1295.63 6164,1227.5C 6201.47,1144.99 6263.31,1089.49 6349.5,1061C 6381.6,1051.21 6414.27,1045.38 6447.5,1043.5 Z M 6455.5,1160.5 C 6534.67,1159.51 6587.84,1196.18 6615,1270.5C 6631.13,1319.44 6633.8,1369.11 6623,1419.5C 6614.75,1457.18 6597.25,1489.68 6570.5,1517C 6534.85,1548.77 6493.19,1561.43 6445.5,1555C 6400.35,1547.81 6365.18,1525.31 6340,1487.5C 6312.77,1441.59 6301.44,1391.92 6306,1338.5C 6308.66,1296.53 6321.66,1258.2 6345,1223.5C 6372.69,1186.57 6409.52,1165.57 6455.5,1160.5 Z"/></g>
<g><path style="opacity:0.993" fill="#221f1f" d="M 7136.5,1043.5 C 7197.69,1040.31 7256.36,1050.81 7312.5,1075C 7401.23,1118.23 7456.73,1188.07 7479,1284.5C 7496.32,1370.58 7483.66,1451.92 7441,1528.5C 7393.24,1605.18 7324.74,1652.35 7235.5,1670C 7156.57,1684.24 7079.9,1676.57 7005.5,1647C 6913.71,1604.86 6856.88,1534.36 6835,1435.5C 6818.03,1352.99 6828.69,1274.32 6867,1199.5C 6912.91,1122 6980.07,1073.16 7068.5,1053C 7091.09,1048.18 7113.75,1045.01 7136.5,1043.5 Z M 7144.5,1160.5 C 7223.26,1159.43 7276.43,1195.77 7304,1269.5C 7324.47,1328.86 7324.47,1388.19 7304,1447.5C 7272.97,1528.18 7214.47,1563.68 7128.5,1554C 7082.17,1544.6 7047.33,1519.43 7024,1478.5C 6999.71,1432.44 6990.38,1383.44 6996,1331.5C 6999.88,1286.44 7015.88,1246.44 7044,1211.5C 7071.11,1181.86 7104.61,1164.86 7144.5,1160.5 Z"/></g>
<g><path style="opacity:0.992" fill="#221f1f" d="M 2101.5,1058.5 C 2159.17,1058.5 2216.83,1058.5 2274.5,1058.5C 2321.64,1196.09 2369.48,1333.43 2418,1470.5C 2467,1333.5 2516,1196.5 2565,1059.5C 2617.76,1058.5 2670.6,1058.17 2723.5,1058.5C 2643.42,1259.35 2562.75,1460.01 2481.5,1660.5C 2434.6,1661.83 2387.77,1661.83 2341,1660.5C 2260.88,1459.92 2181.04,1259.26 2101.5,1058.5 Z"/></g>
<g><path style="opacity:0.992" fill="#221f1f" d="M 2746.5,1058.5 C 2877.17,1058.5 3007.83,1058.5 3138.5,1058.5C 3138.5,1098.5 3138.5,1138.5 3138.5,1178.5C 3060.5,1178.5 2982.5,1178.5 2904.5,1178.5C 2904.5,1216.5 2904.5,1254.5 2904.5,1292.5C 2971.17,1292.5 3037.83,1292.5 3104.5,1292.5C 3104.5,1331.83 3104.5,1371.17 3104.5,1410.5C 3037.83,1410.5 2971.17,1410.5 2904.5,1410.5C 2904.5,1454.17 2904.5,1497.83 2904.5,1541.5C 2997.5,1541.33 3090.5,1541.5 3183.5,1542C 3160.96,1581.58 3138.29,1621.08 3115.5,1660.5C 2992.5,1661.5 2869.5,1661.83 2746.5,1661.5C 2746.5,1460.5 2746.5,1259.5 2746.5,1058.5 Z"/></g>
<g><path style="opacity:0.994" fill="#221f1f" d="M 3205.5,1058.5 C 3335.83,1058.5 3466.17,1058.5 3596.5,1058.5C 3596.5,1098.5 3596.5,1138.5 3596.5,1178.5C 3518.83,1178.5 3441.17,1178.5 3363.5,1178.5C 3363.5,1216.5 3363.5,1254.5 3363.5,1292.5C 3430.17,1292.5 3496.83,1292.5 3563.5,1292.5C 3563.5,1331.83 3563.5,1371.17 3563.5,1410.5C 3496.83,1410.5 3430.17,1410.5 3363.5,1410.5C 3363.5,1454.17 3363.5,1497.83 3363.5,1541.5C 3456.17,1541.17 3548.84,1541.5 3641.5,1542.5C 3618.71,1581.92 3596.04,1621.42 3573.5,1661C 3450.83,1661.5 3328.17,1661.67 3205.5,1661.5C 3205.5,1460.5 3205.5,1259.5 3205.5,1058.5 Z"/></g>
<g><path style="opacity:0.993" fill="#221f1f" d="M 3663.5,1058.5 C 3763.18,1058.05 3862.84,1058.55 3962.5,1060C 4029.85,1064.37 4089.18,1088.03 4140.5,1131C 4192.84,1180.51 4222.67,1241.35 4230,1313.5C 4238.12,1385.12 4225.45,1452.78 4192,1516.5C 4145.94,1594.82 4077.77,1641.32 3987.5,1656C 3975.55,1657.77 3963.55,1659.11 3951.5,1660C 3855.51,1661.45 3759.51,1661.95 3663.5,1661.5C 3663.5,1460.5 3663.5,1259.5 3663.5,1058.5 Z M 3820.5,1176.5 C 3845.5,1176.33 3870.5,1176.5 3895.5,1177C 3934.63,1178.82 3969.97,1191.15 4001.5,1214C 4039.66,1246.15 4060.49,1287.32 4064,1337.5C 4068.42,1383.72 4059.42,1427.05 4037,1467.5C 4011.13,1506.71 3974.97,1530.88 3928.5,1540C 3916.58,1542.06 3904.58,1543.4 3892.5,1544C 3868.5,1544.5 3844.5,1544.67 3820.5,1544.5C 3820.5,1421.83 3820.5,1299.17 3820.5,1176.5 Z"/></g>
<g><path style="opacity:0.994" fill="#221f1f" d="M 4265.5,1058.5 C 4395.83,1058.5 4526.17,1058.5 4656.5,1058.5C 4656.5,1098.5 4656.5,1138.5 4656.5,1178.5C 4578.83,1178.5 4501.17,1178.5 4423.5,1178.5C 4423.5,1216.5 4423.5,1254.5 4423.5,1292.5C 4490.17,1292.5 4556.83,1292.5 4623.5,1292.5C 4623.5,1331.83 4623.5,1371.17 4623.5,1410.5C 4556.83,1410.5 4490.17,1410.5 4423.5,1410.5C 4423.5,1454.17 4423.5,1497.83 4423.5,1541.5C 4516.17,1541.17 4608.84,1541.5 4701.5,1542.5C 4679.03,1582.13 4656.37,1621.63 4633.5,1661C 4510.83,1661.5 4388.17,1661.67 4265.5,1661.5C 4265.5,1460.5 4265.5,1259.5 4265.5,1058.5 Z"/></g>
<g><path style="opacity:0.992" fill="#221f1f" d="M 4723.5,1058.5 C 4817.17,1058.33 4910.83,1058.5 5004.5,1059C 5051.81,1059.48 5094.48,1073.48 5132.5,1101C 5171.65,1133.49 5190.65,1175.32 5189.5,1226.5C 5189.25,1279.8 5168.91,1323.64 5128.5,1358C 5118.67,1365.08 5108.67,1371.91 5098.5,1378.5C 5156.63,1472.43 5213.96,1566.77 5270.5,1661.5C 5213.17,1661.67 5155.83,1661.5 5098.5,1661C 5047.29,1576.75 4996.46,1492.25 4946,1407.5C 4944.94,1406.9 4943.77,1406.57 4942.5,1406.5C 4921.2,1408.04 4899.87,1408.71 4878.5,1408.5C 4878.5,1492.83 4878.5,1577.17 4878.5,1661.5C 4826.83,1661.5 4775.17,1661.5 4723.5,1661.5C 4723.5,1460.5 4723.5,1259.5 4723.5,1058.5 Z M 4878.5,1170.5 C 4904.17,1170.33 4929.84,1170.5 4955.5,1171C 4976.48,1170.39 4995.48,1176.05 5012.5,1188C 5034.21,1209.72 5040.04,1235.22 5030,1264.5C 5018.4,1290.07 4998.57,1304.57 4970.5,1308C 4959.12,1308.78 4947.78,1309.78 4936.5,1311C 4917.21,1337.75 4898.04,1364.58 4879,1391.5C 4878.5,1317.83 4878.33,1244.17 4878.5,1170.5 Z"/></g>
<g><path style="opacity:0.991" fill="#221f1f" d="M 5637.5,1058.5 C 5731.17,1058.33 5824.83,1058.5 5918.5,1059C 5965.27,1059.48 6007.61,1073.15 6045.5,1100C 6085.05,1132.79 6104.72,1175.12 6104.5,1227C 6101.83,1294.71 6071.17,1345.05 6012.5,1378C 6070.17,1472.33 6127.83,1566.67 6185.5,1661C 6127.83,1661.67 6070.17,1661.67 6012.5,1661C 5961.79,1576.42 5910.96,1491.92 5860,1407.5C 5858.94,1406.9 5857.77,1406.57 5856.5,1406.5C 5835.2,1408.04 5813.87,1408.71 5792.5,1408.5C 5792.5,1492.83 5792.5,1577.17 5792.5,1661.5C 5740.83,1661.5 5689.17,1661.5 5637.5,1661.5C 5637.5,1460.5 5637.5,1259.5 5637.5,1058.5 Z M 5792.5,1170.5 C 5822.85,1170.12 5853.19,1170.62 5883.5,1172C 5932.6,1178.72 5953.76,1206.55 5947,1255.5C 5939.44,1282.06 5922.27,1298.9 5895.5,1306C 5880.56,1308.42 5865.56,1310.09 5850.5,1311C 5831.33,1338.17 5812.17,1365.33 5793,1392.5C 5792.5,1318.5 5792.33,1244.5 5792.5,1170.5 Z"/></g>
<g><path style="opacity:0.991" fill="#221f1f" d="M 7453.5,1058.5 C 7620.5,1058.5 7787.5,1058.5 7954.5,1058.5C 7954.5,1098.83 7954.5,1139.17 7954.5,1179.5C 7897.5,1179.5 7840.5,1179.5 7783.5,1179.5C 7783.5,1340.17 7783.5,1500.83 7783.5,1661.5C 7730.83,1661.5 7678.17,1661.5 7625.5,1661.5C 7625.5,1500.83 7625.5,1340.17 7625.5,1179.5C 7568.17,1179.5 7510.83,1179.5 7453.5,1179.5C 7453.5,1139.17 7453.5,1098.83 7453.5,1058.5 Z"/></g>
<g><path style="opacity:0.994" fill="#236092" d="M 512.5,1279.5 C 514.91,1279.92 516.743,1281.25 518,1283.5C 621.516,1429.65 757.849,1532.65 927,1592.5C 1074.89,1540.24 1198.89,1453.91 1299,1333.5C 1313.06,1315.62 1326.89,1297.62 1340.5,1279.5C 1417.66,1323.58 1494.66,1367.91 1571.5,1412.5C 1572.83,1413.17 1572.83,1413.83 1571.5,1414.5C 1372.1,1524.6 1158.44,1584.44 930.5,1594C 1081.49,1645.21 1234.82,1653.55 1390.5,1619C 1500.11,1593.35 1600.45,1548.01 1691.5,1483C 1692.17,1482.33 1692.83,1482.33 1693.5,1483C 1520.76,1665.21 1309.1,1773.21 1058.5,1807C 803.169,1836.24 567.502,1781.91 351.5,1644C 282.081,1598.11 218.747,1544.61 161.5,1483.5C 161.977,1482.52 162.643,1481.69 163.5,1481C 280.223,1414.31 396.556,1347.15 512.5,1279.5 Z"/></g>
<g><path style="opacity:0.995" fill="#221f1f" d="M 5325.5,1323.5 C 5410.17,1323.33 5494.83,1323.5 5579.5,1324C 5558.56,1355.27 5537.22,1386.27 5515.5,1417C 5431.16,1417.83 5346.83,1417.67 5262.5,1416.5C 5283.76,1385.64 5304.76,1354.64 5325.5,1323.5 Z"/></g>
<g><path style="opacity:0.94" fill="#221f1f" d="M 46.5,1721.5 C 71.5,1721.5 96.5,1721.5 121.5,1721.5C 121.5,1726.5 121.5,1731.5 121.5,1736.5C 112.167,1736.5 102.833,1736.5 93.5,1736.5C 93.5,1762.17 93.5,1787.83 93.5,1813.5C 87.1667,1813.5 80.8333,1813.5 74.5,1813.5C 74.5,1787.83 74.5,1762.17 74.5,1736.5C 65.1667,1736.5 55.8333,1736.5 46.5,1736.5C 46.5,1731.5 46.5,1726.5 46.5,1721.5 Z"/></g>
<g><path style="opacity:0.937" fill="#221f1f" d="M 138.5,1721.5 C 147.525,1721.17 156.525,1721.5 165.5,1722.5C 173.382,1742.99 181.549,1763.32 190,1783.5C 197.833,1763.17 205.667,1742.83 213.5,1722.5C 222.475,1721.5 231.475,1721.17 240.5,1721.5C 240.5,1752.17 240.5,1782.83 240.5,1813.5C 234.5,1813.5 228.5,1813.5 222.5,1813.5C 222.667,1790.83 222.5,1768.16 222,1745.5C 213.195,1768.09 204.695,1790.75 196.5,1813.5C 191.786,1813.83 187.12,1813.49 182.5,1812.5C 174,1790.17 165.5,1767.83 157,1745.5C 156.5,1768.16 156.333,1790.83 156.5,1813.5C 150.5,1813.5 144.5,1813.5 138.5,1813.5C 138.5,1782.83 138.5,1752.17 138.5,1721.5 Z"/></g>
</svg>
