<?xml version="1.0" encoding="UTF-8" standalone="no"?>
<svg
   version="1.0"
   width="6649.000000pt"
   height="1826.000000pt"
   viewBox="0 0 6649.000000 1826.000000"
   preserveAspectRatio="xMidYMid meet"
   id="svg20"
   sodipodi:docname="logo_ntt_data_colori.svg"
   inkscape:version="1.1.2 (b8e25be833, 2022-02-05)"
   xmlns:inkscape="http://www.inkscape.org/namespaces/inkscape"
   xmlns:sodipodi="http://sodipodi.sourceforge.net/DTD/sodipodi-0.dtd"
   xmlns="http://www.w3.org/2000/svg"
   xmlns:svg="http://www.w3.org/2000/svg">
  <defs
     id="defs24">
    <clipPath
       clipPathUnits="userSpaceOnUse"
       id="clipPath861">
      <path
         d="M 0,0 H 1596 V 439 H 0 Z"
         id="path859" />
    </clipPath>
  </defs>
  <sodipodi:namedview
     id="namedview22"
     pagecolor="#ffffff"
     bordercolor="#666666"
     borderopacity="1.0"
     inkscape:pageshadow="2"
     inkscape:pageopacity="0.0"
     inkscape:pagecheckerboard="0"
     inkscape:document-units="pt"
     showgrid="false"
     inkscape:zoom="0.025962166"
     inkscape:cx="-3928.7939"
     inkscape:cy="982.19848"
     inkscape:window-width="1536"
     inkscape:window-height="890"
     inkscape:window-x="-6"
     inkscape:window-y="-6"
     inkscape:window-maximized="1"
     inkscape:current-layer="svg20" />
  <g
     transform="matrix(0.11849558,0,0,-0.11849558,-600.49334,1991.9164)"
     fill="#000000"
     stroke="none"
     id="g18"
     style="fill:#006db9;fill-opacity:1">
    <path
       d="m 9995,14694 c -1159,-130 -2212,-758 -2976,-1774 -620,-825 -989,-1825 -1091,-2960 -20,-222 -17,-850 5,-1070 91,-902 360,-1726 810,-2475 449,-747 1096,-1420 1827,-1897 808,-528 1674,-836 2660,-944 225,-25 786,-30 1035,-10 629,51 1221,193 1800,430 187,77 547,255 720,357 952,558 1732,1366 2244,2328 417,782 653,1667 679,2546 22,715 -58,1349 -249,1990 -510,1705 -1784,3011 -3304,3385 -353,87 -620,115 -1008,107 -436,-9 -773,-68 -1176,-203 l -164,-55 -111,41 c -232,84 -511,151 -806,191 -206,28 -700,35 -895,13 z m 315,-1420 c 0,-3 -34,-42 -75,-86 -312,-332 -577,-782 -730,-1241 -328,-986 -194,-1935 373,-2647 92,-116 279,-302 390,-390 199,-156 476,-311 706,-395 124,-46 330,-99 466,-120 161,-25 475,-31 644,-11 1102,128 1986,963 2170,2051 41,239 49,564 21,812 -81,714 -410,1432 -887,1939 l -83,89 75,3 c 159,7 407,-37 618,-109 248,-84 569,-266 812,-459 135,-106 431,-403 544,-545 303,-380 546,-835 701,-1315 230,-715 275,-1525 124,-2275 C 15971,7537 15412,6622 14585,5963 13239,4890 11386,4691 9841,5453 8971,5882 8264,6584 7831,7449 c -257,511 -414,1074 -461,1648 -14,169 -14,591 0,753 84,985 477,1890 1108,2551 458,479 1015,792 1536,863 104,14 296,21 296,10 z m 1744,-550 c 408,-362 712,-927 791,-1469 21,-145 22,-401 1,-518 -82,-453 -366,-779 -774,-889 -117,-31 -346,-36 -473,-10 -358,74 -638,326 -767,692 -57,162 -67,234 -67,465 1,226 10,301 65,511 135,524 506,1076 909,1353 l 74,50 75,-52 c 42,-29 116,-88 166,-133 z"
       id="path2"
       style="fill:#006db9;fill-opacity:1" />
    <path
       d="m 21007,12214 c -115,-18 -265,-69 -363,-125 -90,-51 -226,-176 -289,-263 -151,-212 -237,-502 -265,-891 -6,-88 -10,-960 -10,-2337 V 6400 h 645 645 v 1913 c 0,1162 -4,2023 -11,2194 -9,244 -8,286 5,317 12,30 20,36 44,36 17,0 37,-9 49,-22 12,-13 132,-241 268,-508 897,-1759 1499,-2906 1718,-3270 221,-367 435,-563 722,-659 238,-80 541,-89 795,-25 280,71 498,250 634,522 78,156 143,405 165,636 8,74 11,850 11,2373 v 2263 h -641 -640 l 5,-2157 c 3,-1187 6,-2181 7,-2209 2,-87 -38,-125 -89,-87 -17,12 -125,212 -314,579 -1200,2324 -1616,3111 -1765,3337 -93,141 -234,296 -342,377 -140,105 -315,176 -506,205 -123,18 -358,18 -478,-1 z"
       id="path4"
       style="fill:#006db9;fill-opacity:1" />
    <path
       d="m 26220,11565 v -605 h 930 930 V 8680 6400 h 650 650 l 2,2278 3,2277 928,3 927,2 v 605 605 h -2510 -2510 z"
       id="path6"
       style="fill:#006db9;fill-opacity:1" />
    <path
       d="m 31660,11565 v -605 h 925 925 V 8680 6400 h 655 655 v 2280 2280 h 925 925 v 605 605 h -2505 -2505 z"
       id="path8"
       style="fill:#006db9;fill-opacity:1" />
    <path
       d="M 38270,9285 V 6399 l 1953,4 1952,3 137,22 c 336,55 559,137 765,281 270,190 464,521 548,935 62,306 60,263 60,1641 0,1154 -2,1271 -18,1390 -42,305 -98,510 -196,710 -240,490 -672,726 -1416,775 -101,6 -822,10 -1972,10 h -1813 z m 3636,1640 c 173,-33 300,-125 367,-266 87,-183 89,-217 85,-1444 -4,-1022 -4,-1042 -25,-1134 -45,-193 -133,-320 -267,-386 -148,-73 -90,-70 -1351,-70 h -1130 l -3,1658 -2,1657 h 1124 c 956,0 1136,-2 1202,-15 z"
       id="path10"
       style="fill:#006db9;fill-opacity:1" />
    <path
       d="m 44520,11560 v -610 l 1693,-2 1692,-3 78,-22 c 103,-29 170,-67 232,-128 125,-125 175,-310 175,-647 v -178 h -1404 c -886,0 -1442,-4 -1507,-10 -282,-28 -519,-104 -708,-227 -76,-50 -248,-223 -300,-303 -123,-189 -202,-429 -243,-735 -18,-137 -18,-892 0,-1025 54,-400 165,-667 362,-874 190,-199 435,-314 797,-373 100,-16 262,-17 2206,-20 l 2098,-3 -4,2057 c -3,1418 -8,2091 -16,2163 -50,474 -143,773 -311,1000 -249,334 -637,500 -1265,540 -98,6 -824,10 -1867,10 h -1708 z m 3870,-3340 v -590 l -1297,2 -1298,3 -48,22 c -74,35 -149,112 -186,192 -51,112 -65,193 -64,386 1,181 15,266 63,368 46,97 137,173 237,196 21,5 613,9 1316,10 l 1277,1 z"
       id="path12"
       style="fill:#006db9;fill-opacity:1" />
    <path
       d="m 49950,11565 v -605 h 930 930 V 8680 6400 h 655 655 v 2280 2280 h 925 925 v 605 605 h -2510 -2510 z"
       id="path14"
       style="fill:#006db9;fill-opacity:1" />
    <path
       d="m 55410,11560 v -610 h 1644 c 1089,0 1671,-4 1723,-10 264,-36 415,-169 477,-420 21,-89 36,-258 36,-417 v -133 h -1413 c -1515,0 -1545,-1 -1761,-51 -569,-133 -878,-495 -980,-1146 -46,-291 -46,-870 0,-1179 74,-505 291,-842 659,-1024 170,-84 377,-138 615,-159 76,-7 806,-11 2143,-11 h 2028 l -4,2098 c -4,2271 -1,2164 -57,2457 -130,683 -483,1040 -1145,1159 -275,50 -228,49 -2147,53 l -1818,4 z m 3880,-3340 v -590 l -1297,2 -1298,3 -56,26 c -111,52 -181,145 -222,294 -28,104 -35,353 -13,478 36,199 119,311 263,357 55,18 118,19 1341,19 l 1282,1 z"
       id="path16"
       style="fill:#006db9;fill-opacity:1" />
  </g>
</svg>
