<?xml version="1.0" encoding="UTF-8" standalone="no"?>
<svg
   xml:space="preserve"
   viewBox="0 0 283.46999 61.84"
   version="1.1"
   id="svg1"
   sodipodi:docname="randstad.svg"
   width="283.47"
   height="61.84"
   inkscape:version="1.3.2 (091e20e, 2023-11-25)"
   xmlns:inkscape="http://www.inkscape.org/namespaces/inkscape"
   xmlns:sodipodi="http://sodipodi.sourceforge.net/DTD/sodipodi-0.dtd"
   xmlns="http://www.w3.org/2000/svg"
   xmlns:svg="http://www.w3.org/2000/svg"><defs
     id="defs1" /><sodipodi:namedview
     id="namedview1"
     pagecolor="#ffffff"
     bordercolor="#000000"
     borderopacity="0.25"
     inkscape:showpageshadow="2"
     inkscape:pageopacity="0.0"
     inkscape:pagecheckerboard="true"
     inkscape:deskcolor="#d1d1d1"
     inkscape:zoom="1.6025251"
     inkscape:cx="141.33944"
     inkscape:cy="33.696819"
     inkscape:window-width="1512"
     inkscape:window-height="917"
     inkscape:window-x="0"
     inkscape:window-y="65"
     inkscape:window-maximized="0"
     inkscape:current-layer="svg1" /><path
     d="m 125,10.82 h 3.95 v 3.55 h 0.09 c 1.13,-2.39 3.56,-4.1 6,-4.1 1.26,0 1.89,0.14 2.8,0.32 v 3.79 c -0.77,-0.32 -1.62,-0.41 -2.35,-0.41 -3.79,0 -6.27,3.61 -6.27,9.39 V 33.83 H 125 Z m 129.56,12.03 c -0.9,0 -1.8,-0.09 -2.7,-0.09 -2.3,0 -7.97,0.36 -7.97,4.46 0,2.45 2.34,3.77 4.28,3.77 4.19,0 6.39,-2.64 6.39,-6.11 z M 241.99,12.41 c 2.12,-1.25 4.64,-2.15 7.57,-2.15 6.57,0 9.21,3.22 9.21,9.51 V 33.83 H 255 V 30.9 h -0.09 c -0.99,1.39 -3.24,3.49 -7.11,3.49 -4.96,0 -8.43,-2.15 -8.43,-7.2 0,-5.78 6.31,-7.58 10.68,-7.58 1.67,0 2.84,0 4.5,0.09 0,-3.97 -1.44,-6.03 -5.67,-6.03 -2.39,0 -4.95,0.92 -6.67,2.39 z M 152.2,22.85 c -0.9,0 -1.8,-0.09 -2.7,-0.09 -2.3,0 -7.97,0.36 -7.97,4.46 0,2.45 2.34,3.77 4.28,3.77 4.19,0 6.39,-2.64 6.39,-6.11 z M 139.64,12.41 c 2.12,-1.25 4.64,-2.15 7.57,-2.15 6.57,0 9.22,3.22 9.22,9.51 v 14.06 h -3.77 V 30.9 h -0.09 c -0.99,1.39 -3.24,3.49 -7.11,3.49 -4.96,0 -8.43,-2.15 -8.43,-7.2 0,-5.78 6.31,-7.58 10.68,-7.58 1.67,0 2.84,0 4.5,0.09 0,-3.97 -1.44,-6.03 -5.67,-6.03 -2.39,0 -4.95,0.92 -6.67,2.39 z m 20.23,21.42 h 4.22 V 23.18 c 0,-5.63 2.17,-9.52 7,-9.52 3.71,0.23 4.88,2.85 4.88,8.23 v 11.94 h 4.22 v -13.7 c 0,-6.19 -2.65,-9.87 -8.6,-9.87 -3.21,0 -6.28,1.57 -7.55,4.17 h -0.09 v -3.61 h -4.08 z m 47.67,-0.7 c 1.94,1.03 4.15,1.25 6.31,1.25 4.1,0 8.02,-2.24 8.02,-7.17 0,-7.39 -9.96,-6.03 -9.96,-10.75 0,-1.9 1.89,-2.81 4.05,-2.81 0.99,0 3.52,0.59 4.46,1.18 l 0.36,-3.67 c -1.67,-0.51 -3.29,-0.91 -5.27,-0.91 -4.55,0 -8.11,2.28 -8.11,7.08 0,6.48 9.96,6.12 9.96,10.34 0,2.49 -2.39,3.31 -4.32,3.31 -1.22,0 -3.61,-0.54 -5.28,-1.63 z M 237.99,10.82 H 231.9 V 4.14 l -4.22,1.35 v 5.32 h -5.19 v 3.4 h 5.19 v 13.5 c 0,4.61 2.69,6.66 7.06,6.66 1.35,0 2.66,-0.36 3.61,-0.63 v -3.59 c -0.63,0.41 -1.58,0.82 -2.89,0.82 -1.94,0 -3.56,-1.45 -3.56,-4.12 V 14.21 h 6.09 z m 34.5,20.16 c 4.78,0 6.76,-4.76 6.76,-8.62 0,-4.31 -2.21,-8.71 -6.8,-8.71 -4.59,0 -6.4,4.35 -6.31,8.57 -0.09,3.64 1.8,8.76 6.35,8.76 z m 6.94,-0.36 h -0.09 c -1.13,1.71 -3.74,3.77 -7.84,3.77 -6.94,0 -9.87,-6.17 -9.87,-12.49 0,-6.2 3.25,-11.64 9.92,-11.64 4.01,0 6.31,1.57 7.61,3.68 h 0.09 V 0 h 4.22 v 33.83 h -4.04 z m -85.5,0.36 c 4.78,0 6.76,-4.76 6.76,-8.62 0,-4.31 -2.21,-8.71 -6.8,-8.71 -4.59,0 -6.4,4.35 -6.31,8.57 -0.09,3.64 1.8,8.76 6.35,8.76 z m 6.94,-0.36 h -0.09 c -1.13,1.71 -3.74,3.77 -7.84,3.77 -6.94,0 -9.87,-6.17 -9.87,-12.49 0,-6.2 3.25,-11.64 9.92,-11.64 4.01,0 6.31,1.57 7.61,3.68 h 0.09 V 0 h 4.22 v 33.83 h -4.04 z M 35.79,28.72 c 0,-4.24 -3.43,-7.67 -7.67,-7.67 H 0 V 10.82 h 25.71 c 1.43,0 2.72,0.57 3.64,1.51 L 44.5,27.48 c 0.94,0.92 1.51,2.21 1.51,3.64 V 56.83 H 35.79 Z m 25.43,0 c 0,-4.24 3.43,-7.67 7.67,-7.67 H 97.01 V 10.82 H 71.3 c -1.43,0 -2.72,0.57 -3.64,1.51 L 52.5,27.48 c -0.94,0.92 -1.51,2.22 -1.51,3.65 v 25.71 h 10.23 z m 71.32,26.49 c -0.39,0.59 -0.93,1.05 -1.62,1.39 -0.69,0.34 -1.46,0.51 -2.3,0.51 -1.08,0 -2,-0.29 -2.74,-0.86 -0.75,-0.57 -1.3,-1.33 -1.66,-2.27 -0.36,-0.94 -0.54,-1.97 -0.54,-3.1 0,-1.07 0.19,-2.04 0.56,-2.92 0.37,-0.88 0.94,-1.58 1.68,-2.11 0.74,-0.53 1.65,-0.79 2.72,-0.79 1.79,0 3.06,0.62 3.81,1.85 h 0.04 v -6.99 h 2.12 v 16.92 h -2.03 v -1.63 z m -0.05,-4.1 c 0,-0.72 -0.12,-1.41 -0.37,-2.07 -0.25,-0.66 -0.63,-1.2 -1.14,-1.62 -0.51,-0.42 -1.15,-0.63 -1.92,-0.63 -1.01,0 -1.78,0.39 -2.32,1.17 -0.54,0.78 -0.81,1.77 -0.81,2.98 0,1.29 0.29,2.36 0.87,3.2 0.58,0.84 1.35,1.26 2.31,1.26 0.74,0 1.36,-0.21 1.87,-0.63 0.51,-0.42 0.89,-0.96 1.14,-1.61 0.25,-0.65 0.37,-1.35 0.37,-2.05 z m 6.88,-5.78 v 11.5 h -2.12 v -11.5 z m 6.79,11.51 c -1.05,0 -1.95,-0.26 -2.7,-0.78 -0.75,-0.52 -1.3,-1.21 -1.67,-2.06 -0.37,-0.86 -0.55,-1.8 -0.55,-2.82 0,-1.07 0.2,-2.07 0.61,-3 0.41,-0.93 1,-1.68 1.77,-2.26 0.77,-0.57 1.7,-0.86 2.76,-0.86 1.86,0 3.13,0.66 3.79,1.98 h 0.05 v -1.71 h 1.96 v 11.03 c 0,1.79 -0.49,3.15 -1.47,4.08 -0.98,0.93 -2.47,1.4 -4.47,1.4 -0.71,0 -1.36,-0.06 -1.95,-0.18 -0.59,-0.12 -1.32,-0.32 -2.18,-0.61 l 0.23,-1.96 c 0.86,0.41 1.58,0.68 2.18,0.82 0.59,0.14 1.24,0.21 1.95,0.21 1.13,0 2.01,-0.35 2.64,-1.06 0.63,-0.71 0.95,-1.67 0.95,-2.89 v -1.13 h -0.04 c -0.44,0.57 -1,1.01 -1.68,1.32 a 5.1,5.1 0 0 1 -2.18,0.48 z m 3.9,-5.64 c 0,-1.26 -0.29,-2.31 -0.88,-3.16 -0.59,-0.85 -1.41,-1.26 -2.48,-1.26 -0.66,0 -1.23,0.21 -1.71,0.62 -0.48,0.41 -0.85,0.95 -1.11,1.6 a 5.5,5.5 0 0 0 -0.38,2.06 c 0,0.75 0.14,1.44 0.41,2.05 0.27,0.61 0.65,1.1 1.13,1.47 0.48,0.36 1.04,0.54 1.67,0.54 0.62,0 1.18,-0.17 1.69,-0.51 0.51,-0.34 0.92,-0.8 1.22,-1.4 0.3,-0.6 0.44,-1.26 0.44,-2.01 z m 6.88,-5.87 v 11.5 h -2.12 v -11.5 z m 7.11,11.78 c -1.16,0 -2.03,-0.29 -2.63,-0.87 -0.59,-0.58 -0.89,-1.39 -0.89,-2.45 v -6.74 h -2.59 v -1.71 h 2.59 V 42.68 L 162.65,42 v 3.34 h 3.04 v 1.71 h -3.04 v 6.34 c 0,0.56 0.16,1.03 0.47,1.42 0.32,0.39 0.75,0.59 1.31,0.59 0.53,0 1.01,-0.14 1.44,-0.41 v 1.8 c -0.75,0.21 -1.36,0.32 -1.82,0.32 z m 10.08,-1.76 c -0.41,0.57 -0.92,1.01 -1.53,1.31 -0.62,0.3 -1.3,0.45 -2.05,0.45 -1.34,0 -2.37,-0.31 -3.1,-0.92 -0.73,-0.62 -1.09,-1.5 -1.09,-2.66 0,-1.19 0.51,-2.12 1.52,-2.79 1.01,-0.67 2.34,-1 3.98,-1 0.77,0 1.47,0.02 2.1,0.05 0,-1.05 -0.22,-1.82 -0.67,-2.29 -0.45,-0.47 -1.17,-0.71 -2.18,-0.71 -0.59,0 -1.18,0.1 -1.77,0.3 -0.59,0.2 -1.12,0.49 -1.57,0.87 l -0.11,-1.8 c 1.22,-0.72 2.48,-1.08 3.79,-1.08 1.58,0 2.74,0.38 3.5,1.15 0.75,0.77 1.13,1.96 1.13,3.59 v 5.05 c 0,0.84 0.03,1.5 0.09,1.98 h -1.98 v -1.49 h -0.06 z m -1.56,-4.04 c -1.23,0 -2.2,0.19 -2.91,0.56 -0.71,0.37 -1.06,0.92 -1.06,1.65 0,0.54 0.21,0.99 0.64,1.34 0.43,0.35 0.94,0.53 1.52,0.53 0.98,0 1.75,-0.28 2.32,-0.83 0.57,-0.56 0.86,-1.29 0.86,-2.19 v -1.02 c -0.11,0 -0.29,-0.01 -0.56,-0.02 -0.27,-0.01 -0.54,-0.02 -0.81,-0.02 z m 8.24,-11.39 v 16.92 h -2.12 V 39.92 Z m -42.41,0.27 c -0.76,0 -1.38,0.62 -1.38,1.38 0,0.76 0.62,1.38 1.38,1.38 0.76,0 1.38,-0.62 1.38,-1.38 0,-0.77 -0.62,-1.38 -1.38,-1.38 z m 17.57,0 c -0.76,0 -1.38,0.62 -1.38,1.38 0,0.76 0.62,1.38 1.38,1.38 0.76,0 1.38,-0.62 1.38,-1.38 0,-0.77 -0.62,-1.38 -1.38,-1.38 z"
     style="fill:#2175d9"
     id="path1" /></svg>
