<?xml version="1.0" encoding="UTF-8" standalone="no"?>
<svg
   id="_x32_A:_QM_small_top"
   viewBox="0 0 425.14999 160"
   version="1.1"
   sodipodi:docname="2B Tagetik Pos.svg"
   width="425.14999"
   height="160"
   inkscape:version="1.1.2 (b8e25be833, 2022-02-05)"
   xmlns:inkscape="http://www.inkscape.org/namespaces/inkscape"
   xmlns:sodipodi="http://sodipodi.sourceforge.net/DTD/sodipodi-0.dtd"
   xmlns="http://www.w3.org/2000/svg"
   xmlns:svg="http://www.w3.org/2000/svg">
  <sodipodi:namedview
     id="namedview119"
     pagecolor="#ffffff"
     bordercolor="#666666"
     borderopacity="1.0"
     inkscape:pageshadow="2"
     inkscape:pageopacity="0.0"
     inkscape:pagecheckerboard="0"
     showgrid="false"
     fit-margin-top="0"
     fit-margin-left="0"
     fit-margin-right="0"
     fit-margin-bottom="0"
     inkscape:zoom="1.3956522"
     inkscape:cx="176.26168"
     inkscape:cy="70.576324"
     inkscape:window-width="1536"
     inkscape:window-height="890"
     inkscape:window-x="-6"
     inkscape:window-y="-6"
     inkscape:window-maximized="1"
     inkscape:current-layer="_x32_A:_QM_small_top" />
  <defs
     id="defs4">
    <style
       id="style2">.cls-1{fill:none;}.cls-2{fill:#7ac143;}.cls-3{fill:#429ed6;}.cls-4{fill:#007bc6;}.cls-5{fill:#9acd6e;}.cls-6{fill:#cae3b2;}.cls-7{fill:#a0c4e6;}.cls-8{fill:#fff;}.cls-9{fill:#ef3e42;}</style>
  </defs>
  <path
     d="m 169.42,31.13 c 1.64,0.68 3.25,1.7 4.83,3.05 l -3.62,4.24 c -2.11,-1.77 -4.28,-2.66 -6.5,-2.66 -2.56,0 -4.58,1.15 -6.05,3.45 -1.47,2.3 -2.2,6.03 -2.2,11.19 0,5.16 0.73,8.74 2.2,11.07 1.47,2.34 3.5,3.5 6.1,3.5 1.36,0 2.54,-0.25 3.56,-0.76 1.02,-0.51 2.15,-1.25 3.39,-2.23 l 3.5,4.18 c -1.32,1.36 -2.88,2.48 -4.69,3.36 -1.81,0.88 -3.84,1.33 -6.1,1.33 -3.13,0 -5.87,-0.76 -8.22,-2.29 -2.35,-1.53 -4.18,-3.82 -5.48,-6.89 -1.3,-3.07 -1.95,-6.83 -1.95,-11.27 0,-4.44 0.68,-8.08 2.03,-11.13 1.36,-3.05 3.2,-5.34 5.54,-6.86 2.33,-1.53 4.99,-2.29 7.97,-2.29 2.15,0 4.04,0.34 5.68,1.02 z"
     id="path6" />
  <path
     d="m 197.5,31.13 c 1.64,0.68 3.25,1.7 4.83,3.05 l -3.62,4.24 c -2.11,-1.77 -4.28,-2.66 -6.5,-2.66 -2.56,0 -4.58,1.15 -6.05,3.45 -1.47,2.3 -2.2,6.03 -2.2,11.19 0,5.16 0.73,8.74 2.2,11.07 1.47,2.34 3.5,3.5 6.1,3.5 1.36,0 2.54,-0.25 3.56,-0.76 1.02,-0.51 2.15,-1.25 3.39,-2.23 l 3.5,4.18 c -1.32,1.36 -2.88,2.48 -4.69,3.36 -1.81,0.88 -3.84,1.33 -6.1,1.33 -3.13,0 -5.87,-0.76 -8.22,-2.29 -2.35,-1.53 -4.18,-3.82 -5.48,-6.89 -1.3,-3.07 -1.95,-6.83 -1.95,-11.27 0,-4.44 0.68,-8.08 2.03,-11.13 1.36,-3.05 3.2,-5.34 5.54,-6.86 2.33,-1.53 4.99,-2.29 7.97,-2.29 2.15,0 4.04,0.34 5.68,1.02 z"
     id="path8" />
  <path
     d="M 226.28,70 V 52.48 H 214.53 V 70 h -7.34 V 30.96 h 7.34 v 15.71 h 11.75 V 30.96 h 7.35 V 70 Z"
     id="path10" />
  <path
     d="m 283.95,30.96 -0.79,5.76 h -8.98 V 70 h -7.29 V 36.72 h -9.38 v -5.76 z"
     id="path12" />
  <path
     d="m 305.93,64.83 c 0.3,0.51 0.79,0.91 1.47,1.21 l -1.47,4.69 c -1.62,-0.19 -2.93,-0.6 -3.93,-1.24 -1,-0.64 -1.74,-1.64 -2.23,-2.99 -1.85,2.9 -4.52,4.35 -8.02,4.35 -2.67,0 -4.8,-0.85 -6.38,-2.54 -1.58,-1.69 -2.37,-3.92 -2.37,-6.67 0,-3.24 1.07,-5.71 3.22,-7.43 2.15,-1.71 5.25,-2.57 9.32,-2.57 h 2.99 v -1.87 c 0,-1.88 -0.38,-3.22 -1.13,-4.01 -0.75,-0.79 -1.98,-1.19 -3.67,-1.19 -1.96,0 -4.37,0.51 -7.23,1.53 l -1.64,-4.69 c 3.43,-1.43 6.76,-2.15 10,-2.15 7.08,0 10.62,3.37 10.62,10.11 v 13.11 c 0,1.05 0.15,1.84 0.45,2.34 z m -7.4,-2.8 v -6.21 h -2.26 c -4.14,0 -6.21,1.77 -6.21,5.31 0,1.51 0.32,2.65 0.96,3.42 0.64,0.77 1.53,1.16 2.66,1.16 2.07,0 3.69,-1.22 4.86,-3.67 z"
     id="path14" />
  <path
     d="m 336.21,41.64 c -1.73,0.72 -4.31,1.07 -7.74,1.07 1.69,0.75 2.96,1.76 3.79,3.02 0.83,1.26 1.24,2.8 1.24,4.6 0,3.01 -1,5.44 -3,7.29 -2,1.85 -4.69,2.77 -8.08,2.77 -1.24,0 -2.3,-0.15 -3.16,-0.45 -0.34,0.26 -0.61,0.59 -0.82,0.99 -0.21,0.4 -0.31,0.82 -0.31,1.27 0,0.68 0.23,1.21 0.71,1.61 0.47,0.4 1.31,0.59 2.51,0.59 h 3.79 c 3.16,0 5.67,0.79 7.51,2.37 1.84,1.58 2.77,3.6 2.77,6.05 0,2.9 -1.17,5.2 -3.5,6.89 -2.34,1.7 -5.71,2.54 -10.11,2.54 -4.63,0 -7.88,-0.78 -9.75,-2.35 -1.86,-1.56 -2.8,-3.89 -2.8,-6.98 h 6.33 c 0,1.58 0.43,2.71 1.3,3.39 0.87,0.68 2.52,1.02 4.97,1.02 2.45,0 4.05,-0.35 5.03,-1.04 0.98,-0.7 1.47,-1.71 1.47,-3.02 0,-2.45 -1.56,-3.67 -4.69,-3.67 h -3.16 c -2.86,0 -4.97,-0.53 -6.33,-1.58 -1.36,-1.05 -2.03,-2.43 -2.03,-4.12 0,-1.05 0.28,-2.05 0.85,-2.99 0.57,-0.94 1.36,-1.75 2.37,-2.43 -1.66,-0.98 -2.87,-2.15 -3.64,-3.5 -0.77,-1.36 -1.16,-3.01 -1.16,-4.97 0,-3.24 1.05,-5.83 3.14,-7.77 2.09,-1.94 4.85,-2.91 8.28,-2.91 2.83,0 5.11,-0.26 6.87,-0.79 1.75,-0.53 3.61,-1.34 5.56,-2.43 l 1.81,5.54 z m -17.49,3.9 c -0.77,0.98 -1.16,2.43 -1.16,4.35 0,1.92 0.4,3.34 1.19,4.38 0.79,1.04 1.9,1.55 3.33,1.55 1.54,0 2.69,-0.48 3.45,-1.44 0.75,-0.96 1.13,-2.48 1.13,-4.55 0,-3.84 -1.53,-5.76 -4.58,-5.76 -1.47,0 -2.59,0.49 -3.36,1.47 z"
     id="path16" />
  <path
     d="m 361.35,57.23 h -16.89 c 0.23,3.01 0.87,5.14 1.92,6.38 1.05,1.24 2.52,1.86 4.41,1.86 1.21,0 2.33,-0.21 3.39,-0.62 1.05,-0.41 2.18,-1.05 3.39,-1.92 l 2.94,4.01 c -2.98,2.6 -6.38,3.9 -10.23,3.9 -4.18,0 -7.4,-1.38 -9.66,-4.12 -2.26,-2.75 -3.39,-6.57 -3.39,-11.47 0,-4.9 1.08,-8.69 3.25,-11.61 2.17,-2.92 5.19,-4.38 9.07,-4.38 3.88,0 6.7,1.3 8.81,3.9 2.11,2.6 3.16,6.33 3.16,11.19 0,0.34 -0.06,1.3 -0.17,2.88 z m -6.78,-4.91 c 0,-2.71 -0.4,-4.74 -1.19,-6.07 -0.79,-1.34 -2.05,-2.01 -3.79,-2.01 -1.58,0 -2.8,0.65 -3.64,1.95 -0.85,1.3 -1.35,3.46 -1.5,6.47 h 10.11 v -0.34 z"
     id="path18" />
  <path
     d="m 383.05,68.59 c -0.98,0.75 -2.06,1.32 -3.25,1.7 -1.19,0.38 -2.4,0.57 -3.64,0.57 -2.75,0 -4.85,-0.79 -6.3,-2.37 -1.45,-1.58 -2.18,-3.79 -2.18,-6.61 V 45.21 h -4.01 v -5.08 h 4.01 v -6.61 l 7.06,-0.85 v 7.46 h 6.27 l -0.73,5.08 h -5.54 v 16.61 c 0,1.13 0.22,1.97 0.65,2.51 0.43,0.55 1.12,0.82 2.06,0.82 1.02,0 2.05,-0.32 3.11,-0.96 l 2.49,4.41 z"
     id="path20" />
  <path
     d="m 393.13,26.3 c 0.81,0.81 1.21,1.84 1.21,3.08 0,1.24 -0.41,2.27 -1.21,3.08 -0.81,0.81 -1.86,1.21 -3.14,1.21 -1.28,0 -2.33,-0.4 -3.14,-1.21 -0.81,-0.81 -1.21,-1.84 -1.21,-3.08 0,-1.24 0.4,-2.27 1.21,-3.08 0.81,-0.81 1.86,-1.21 3.14,-1.21 1.28,0 2.33,0.41 3.14,1.21 z m 0.37,13.81 V 70 h -7.06 V 40.11 Z"
     id="path22" />
  <path
     d="M 408.02,27.4 V 70 h -7.06 V 28.13 Z m 16.33,12.71 -8.81,13.16 9.61,16.72 h -7.8 l -9.04,-16.33 8.93,-13.56 h 7.12 z"
     id="path24" />
  <path
     d="m 242.28,27.23 h 1.67 c 0.34,0 0.64,0.04 0.86,0.13 0.7,0.21 1.05,0.74 1.05,1.35 0,0.87 -0.66,1.32 -1.27,1.46 v 0.02 c 0.37,0.18 0.94,1.25 1.58,2.43 h -1.26 c -0.7,-1.28 -1.12,-2.13 -1.36,-2.15 h -0.18 v 2.15 h -1.09 v -5.4 0 z m 1.36,2.38 c 0.56,0 1.05,-0.22 1.05,-0.78 0,-0.33 -0.14,-0.58 -0.44,-0.66 -0.16,-0.07 -0.34,-0.08 -0.59,-0.08 h -0.29 v 1.52 h 0.26 z"
     id="path26" />
  <path
     d="m 249,30 c 0,2.76 -2.24,5 -5,5 -2.76,0 -5,-2.24 -5,-5 0,-2.76 2.24,-5 5,-5 2.76,0 5,2.24 5,5 z m -5.01,-3.95 c -2.18,0 -3.95,1.77 -3.95,3.95 0,2.18 1.77,3.95 3.95,3.95 2.18,0 3.95,-1.77 3.95,-3.95 0,-2.18 -1.77,-3.95 -3.95,-3.95 z"
     id="path28" />
  <path
     d="m 159.6,104.33 c 0,3.52 -1.69,5.89 -4.42,5.89 -1.24,0 -2.22,-0.55 -2.99,-1.49 l -0.19,1.24 h -1.73 V 94.19 l 1.96,-0.24 v 6.17 c 0.77,-1.05 1.81,-1.67 3.18,-1.67 2.54,0 4.18,2.11 4.18,5.87 z m -2.11,0 c 0,-3.2 -1.05,-4.31 -2.63,-4.31 -1.24,0 -2.05,0.85 -2.63,1.75 v 5.38 c 0.58,0.9 1.47,1.52 2.48,1.52 1.64,0 2.77,-1.26 2.77,-4.33 z"
     id="path30" />
  <path
     d="m 162.01,114.51 -0.21,-1.54 c 2.28,-0.38 2.92,-1.26 3.56,-3.01 h -0.66 l -3.78,-11.25 h 2.09 l 3.01,9.82 2.95,-9.82 H 171 l -3.76,11.31 c -0.79,2.39 -2.11,4.14 -5.23,4.48 z"
     id="path32" />
  <path
     d="m 188.38,109.96 -2.71,-12.32 -2.73,12.32 h -2.54 l -2.99,-14.71 h 1.99 l 2.37,12.94 2.84,-12.94 h 2.16 l 2.9,12.94 2.45,-12.94 h 1.86 l -2.99,14.71 h -2.6 z"
     id="path34" />
  <path
     d="m 205.11,104.33 c 0,3.48 -1.84,5.89 -5.02,5.89 -3.18,0 -5.02,-2.3 -5.02,-5.87 0,-3.57 1.84,-5.89 5.04,-5.89 3.2,0 5,2.31 5,5.87 z m -7.92,0.02 c 0,2.92 1.02,4.29 2.9,4.29 1.88,0 2.9,-1.37 2.9,-4.31 0,-2.94 -1.02,-4.29 -2.88,-4.29 -1.86,0 -2.92,1.37 -2.92,4.31 z"
     id="path36" />
  <path
     d="m 210.92,108.6 c 0.28,0 0.51,-0.04 0.73,-0.13 l 0.51,1.37 c -0.53,0.26 -1.09,0.38 -1.67,0.38 -1.43,0 -2.24,-0.85 -2.24,-2.48 V 94.18 l 1.96,-0.24 v 13.75 c 0,0.6 0.19,0.9 0.7,0.9 z"
     id="path38" />
  <path
     d="m 217.77,110.22 c -1.9,0 -3.03,-1.11 -3.03,-3.2 v -6.79 h -1.96 v -1.52 h 1.96 v -2.54 l 1.96,-0.24 v 2.78 h 2.67 l -0.21,1.52 h -2.45 v 6.7 c 0,1.13 0.36,1.67 1.34,1.67 0.49,0 0.94,-0.15 1.49,-0.49 l 0.75,1.34 c -0.75,0.51 -1.56,0.77 -2.52,0.77 z"
     id="path40" />
  <path
     d="m 230.55,105.01 h -7.17 c 0.19,2.6 1.41,3.61 3.03,3.61 1.11,0 1.94,-0.3 2.92,-0.98 l 0.85,1.17 c -1.11,0.88 -2.37,1.41 -3.93,1.41 -3.14,0 -4.97,-2.2 -4.97,-5.76 0,-3.56 1.77,-6 4.67,-6 2.9,0 4.63,2.11 4.63,5.55 0,0.38 -0.02,0.75 -0.04,1 z m -1.9,-1.58 c 0,-2.2 -0.88,-3.42 -2.65,-3.42 -1.49,0 -2.48,1.05 -2.63,3.54 h 5.27 v -0.13 z"
     id="path42" />
  <path
     d="m 239.84,98.59 -0.36,1.92 c -0.34,-0.08 -0.58,-0.13 -0.98,-0.13 -1.41,0 -2.22,1 -2.69,3.16 v 6.43 h -1.96 V 98.72 h 1.69 l 0.19,2.28 c 0.6,-1.69 1.64,-2.54 3.01,-2.54 0.36,0 0.77,0.04 1.11,0.13 z"
     id="path44" />
  <path
     d="m 248.74,99.74 -0.85,1.3 c -0.98,-0.71 -1.86,-1.02 -2.9,-1.02 -1.28,0 -2.07,0.58 -2.07,1.47 0,0.89 0.6,1.34 2.41,1.81 2.37,0.6 3.74,1.54 3.74,3.5 0,2.35 -2.16,3.42 -4.44,3.42 -1.9,0 -3.27,-0.62 -4.25,-1.47 l 1.09,-1.24 c 0.85,0.73 1.9,1.13 3.12,1.13 1.47,0 2.41,-0.66 2.41,-1.64 0,-1.17 -0.56,-1.6 -2.73,-2.18 -2.43,-0.64 -3.39,-1.69 -3.39,-3.29 0,-1.77 1.73,-3.07 4.06,-3.07 1.58,0 2.75,0.47 3.82,1.28 z"
     id="path46" />
  <path
     d="M 257.6,109.96 V 95.25 h 2.03 v 14.71 z m 10.43,0 h -2.5 l -5.81,-7.86 5.59,-6.85 h 2.31 l -5.57,6.72 5.98,7.98 z"
     id="path48" />
  <path
     d="m 272.62,108.6 c 0.28,0 0.51,-0.04 0.73,-0.13 l 0.51,1.37 c -0.53,0.26 -1.09,0.38 -1.67,0.38 -1.43,0 -2.24,-0.85 -2.24,-2.48 V 94.18 l 1.96,-0.24 v 13.75 c 0,0.6 0.19,0.9 0.7,0.9 z"
     id="path50" />
  <path
     d="m 283,109.96 -0.15,-1.75 c -0.85,1.37 -1.9,2.01 -3.5,2.01 -1.96,0 -3.14,-1.24 -3.14,-3.44 v -8.07 h 1.96 v 7.86 c 0,1.54 0.51,2.11 1.73,2.11 1.22,0 2.13,-0.81 2.82,-1.94 v -8.03 h 1.96 v 11.25 h -1.69 z"
     id="path52" />
  <path
     d="m 296.36,109.96 -1.96,-9.48 -2.03,9.48 h -2.6 l -2.63,-11.25 h 1.96 l 2.03,9.88 2.22,-9.88 h 2.2 l 2.11,9.88 2.05,-9.88 h 1.88 l -2.56,11.25 z"
     id="path54" />
  <path
     d="m 312.28,105.01 h -7.17 c 0.19,2.6 1.41,3.61 3.03,3.61 1.11,0 1.94,-0.3 2.92,-0.98 l 0.85,1.17 c -1.11,0.88 -2.37,1.41 -3.93,1.41 -3.14,0 -4.97,-2.2 -4.97,-5.76 0,-3.56 1.77,-6 4.67,-6 2.9,0 4.63,2.11 4.63,5.55 0,0.38 -0.02,0.75 -0.04,1 z m -1.9,-1.58 c 0,-2.2 -0.88,-3.42 -2.65,-3.42 -1.49,0 -2.48,1.05 -2.63,3.54 h 5.27 v -0.13 z"
     id="path56" />
  <path
     d="m 321.57,98.59 -0.36,1.92 c -0.34,-0.08 -0.58,-0.13 -0.98,-0.13 -1.41,0 -2.22,1 -2.69,3.16 v 6.43 h -1.96 V 98.72 h 1.69 l 0.19,2.28 c 0.6,-1.69 1.64,-2.54 3.01,-2.54 0.36,0 0.77,0.04 1.11,0.13 z"
     id="path58" />
  <path
     d="M 120,10 C 120,4.48 115.52,0 110,0 H 10 C 4.48,0 0,4.48 0,10 v 150 c 0,0 120,0 120,0 z"
     id="path60" />
  <path
     class="cls-8"
     d="m 103.29,102.23 h 1.67 c 0.34,0 0.64,0.04 0.86,0.13 0.7,0.21 1.05,0.74 1.05,1.35 0,0.87 -0.66,1.32 -1.27,1.46 v 0.02 c 0.37,0.18 0.94,1.25 1.58,2.43 h -1.26 c -0.7,-1.28 -1.12,-2.13 -1.36,-2.15 h -0.18 v 2.15 h -1.09 v -5.4 0 z m 1.35,2.38 c 0.56,0 1.05,-0.22 1.05,-0.78 0,-0.33 -0.14,-0.58 -0.44,-0.66 -0.16,-0.07 -0.34,-0.08 -0.59,-0.08 h -0.29 v 1.52 h 0.26 z"
     id="path62" />
  <path
     class="cls-8"
     d="m 110,105 c 0,2.76 -2.24,5 -5,5 -2.76,0 -5,-2.24 -5,-5 0,-2.76 2.24,-5 5,-5 2.76,0 5,2.24 5,5 z m -5,-3.95 c -2.18,0 -3.95,1.77 -3.95,3.95 0,2.18 1.77,3.95 3.95,3.95 2.18,0 3.95,-1.77 3.95,-3.95 0,-2.18 -1.77,-3.95 -3.95,-3.95 z"
     id="path64" />
  <rect
     class="cls-5"
     x="30"
     y="40"
     width="20"
     height="20"
     id="rect66" />
  <rect
     class="cls-6"
     x="50"
     y="40"
     width="20"
     height="20"
     id="rect68" />
  <rect
     class="cls-2"
     x="70"
     y="40"
     width="20"
     height="20"
     id="rect70" />
  <rect
     class="cls-6"
     x="30"
     y="60"
     width="20"
     height="20"
     id="rect72" />
  <rect
     class="cls-9"
     x="50"
     y="60"
     width="20"
     height="20"
     id="rect74" />
  <rect
     class="cls-5"
     x="70"
     y="60"
     width="20"
     height="20"
     id="rect76" />
  <rect
     class="cls-2"
     x="30"
     y="80"
     width="20"
     height="20"
     id="rect78" />
  <rect
     class="cls-5"
     x="50"
     y="80"
     width="20"
     height="20"
     id="rect80" />
  <rect
     class="cls-2"
     x="70"
     y="80"
     width="20"
     height="20"
     id="rect82" />
  <polygon
     class="cls-1"
     points=""
     id="polygon84" />
  <polygon
     class="cls-1"
     points=""
     id="polygon86" />
  <polygon
     class="cls-1"
     points=""
     id="polygon88" />
  <polygon
     class="cls-1"
     points=""
     id="polygon90" />
  <polygon
     class="cls-1"
     points="50,40 30,40 30,40 30,60 30,80 30,100 30,100 50,100 70,100 90,100 90,100 90,80 90,60 90,40 70,40 "
     id="polygon92" />
  <path
     class="cls-3"
     d="M 50,28.77 C 42.3,30.63 35.42,34.58 30,40 h 20 z"
     id="path94" />
  <path
     class="cls-7"
     d="M 70,40 V 28.77 c -3.21,-0.78 -6.55,-1.2 -10,-1.2 -3.45,0 -6.79,0.42 -10,1.2 V 40 Z"
     id="path96" />
  <path
     class="cls-4"
     d="M 90,40 C 84.58,34.58 77.7,30.63 70,28.77 V 40 Z"
     id="path98" />
  <path
     class="cls-3"
     d="M 30,40 C 24.58,45.42 20.63,52.3 18.77,60 H 30 Z"
     id="path100" />
  <path
     class="cls-4"
     d="M 101.23,60 C 99.37,52.3 95.42,45.42 90,40 v 20 z"
     id="path102" />
  <path
     class="cls-7"
     d="M 30,60 H 18.77 c -0.78,3.21 -1.2,6.55 -1.2,10 0,3.45 0.42,6.79 1.2,10 H 30 Z"
     id="path104" />
  <path
     class="cls-3"
     d="m 90,80 h 11.23 c 0.78,-3.21 1.2,-6.55 1.2,-10 0,-3.45 -0.42,-6.79 -1.2,-10 H 90 Z"
     id="path106" />
  <path
     class="cls-4"
     d="m 18.77,80 c 1.86,7.7 5.81,14.58 11.23,20 V 80 Z"
     id="path108" />
  <path
     class="cls-4"
     d="m 90,100 c 5.42,-5.42 9.37,-12.3 11.23,-20 H 90 Z"
     id="path110" />
  <path
     class="cls-4"
     d="m 30,100 c 5.42,5.42 12.3,9.37 20,11.23 V 100 Z"
     id="path112" />
  <path
     class="cls-3"
     d="m 50,100 v 11.23 c 3.21,0.78 6.55,1.2 10,1.2 3.45,0 6.79,-0.42 10,-1.2 V 100 Z"
     id="path114" />
  <path
     class="cls-4"
     d="M 70,111.23 C 77.7,109.37 84.58,105.42 90,100 H 70 Z"
     id="path116" />
</svg>
