<?xml version="1.0" encoding="UTF-8" standalone="no"?>
<!-- Generator: Adobe Illustrator 19.0.0, SVG Export Plug-In . SVG Version: 6.00 Build 0)  -->

<svg
   version="1.1"
   x="0px"
   y="0px"
   viewBox="0 0 100 20.6"
   xml:space="preserve"
   id="svg5"
   sodipodi:docname="ascom.svg"
   width="100"
   height="20.6"
   inkscape:version="1.3.2 (091e20e, 2023-11-25)"
   xmlns:inkscape="http://www.inkscape.org/namespaces/inkscape"
   xmlns:sodipodi="http://sodipodi.sourceforge.net/DTD/sodipodi-0.dtd"
   xmlns="http://www.w3.org/2000/svg"
   xmlns:svg="http://www.w3.org/2000/svg"><defs
   id="defs5" /><sodipodi:namedview
   id="namedview5"
   pagecolor="#ffffff"
   bordercolor="#000000"
   borderopacity="0.25"
   inkscape:showpageshadow="2"
   inkscape:pageopacity="0.0"
   inkscape:pagecheckerboard="true"
   inkscape:deskcolor="#d1d1d1"
   inkscape:zoom="1.18"
   inkscape:cx="49.576271"
   inkscape:cy="20.338983"
   inkscape:window-width="1512"
   inkscape:window-height="945"
   inkscape:window-x="0"
   inkscape:window-y="37"
   inkscape:window-maximized="0"
   inkscape:current-layer="svg5" />
<style
   type="text/css"
   id="style1">
	.st0{fill:none;}
	.st1{fill:#E2001A;}
</style>

<g
   id="Ascom"
   transform="translate(0,-79.9)">
	<g
   id="g5">
		<path
   class="st1"
   d="m 13.1,100 c -0.2,-1 -0.2,-1.9 -0.2,-2.9 h -0.1 c -1.2,2.1 -3.6,3.4 -6,3.4 C 3.4,100.5 0,98.4 0,94.7 0,87.5 7.7,88 12.7,88 c 0,-3.1 -1.4,-4.2 -4.4,-4.2 -2.2,0 -4.3,0.8 -6,2.1 L 2.2,81.5 C 4.2,80.6 6.8,80 9,80 c 5.8,0 8.5,2.3 8.5,8.3 V 100 Z m -2.6,-9 c -2.3,0 -5.7,0.4 -5.7,3.4 0,1.8 1.7,2.4 3.2,2.4 3.4,0 4.7,-2.8 4.7,-5.8 z"
   id="path1" />
		<path
   class="st1"
   d="m 24.6,100.5 c -2,0 -3.9,-0.3 -5.8,-0.8 l 0.3,-4.2 c 1.6,0.8 3.2,1.3 5,1.3 1.5,0 3.4,-0.6 3.4,-2.4 0,-3.8 -8.8,-1.2 -8.8,-8.3 0,-4.4 3.9,-6.1 7.7,-6.1 1.9,0 3.7,0.3 5.6,0.7 l -0.3,3.9 c -1.6,-0.6 -2.9,-0.9 -4.6,-0.9 -1.4,0 -3,0.5 -3,2.2 0,3.1 8.8,1.1 8.8,8.2 -0.2,4.6 -4.3,6.4 -8.3,6.4 z"
   id="path2" />
		<path
   class="st1"
   d="m 43.5,100.5 c -6.3,0 -9.6,-4.3 -9.6,-10.3 0,-5.8 3.4,-10.1 9.5,-10.1 1.7,0 3.3,0.2 4.9,0.7 l -0.4,4 c -1.1,-0.5 -2.2,-0.7 -3.5,-0.7 -3.5,0 -5.2,3 -5.2,6.2 0,3.4 1.5,6.4 5.3,6.4 1.3,0 2.7,-0.4 3.9,-0.9 l 0.2,4.2 c -1.6,0.3 -3.3,0.5 -5.1,0.5 z"
   id="path3" />
		<path
   class="st1"
   d="M 59.2,100.5 C 53.2,100.5 49,96.5 49,90.4 49,84.3 53.1,80 59.2,80 c 6.2,0 10.3,4.2 10.3,10.4 0,6.1 -4.3,10.1 -10.3,10.1 z m 0,-16.6 c -3.3,0 -4.9,2.9 -4.9,5.8 0,3.2 1.1,6.7 4.9,6.7 3.9,0 4.9,-3.5 4.9,-6.7 0,-2.9 -1.6,-5.8 -4.9,-5.8 z"
   id="path4" />
		<path
   class="st1"
   d="M 94.9,100 V 88.4 C 94.9,86.3 94.8,84 92,84 c -3.4,0 -3.8,4 -3.8,6.6 v 9.5 H 83.1 V 88.4 C 83.1,86.2 83,84 80.2,84 c -3.4,0 -3.8,4 -3.8,6.6 v 9.5 H 71.3 V 80.4 H 76 v 2.7 h 0.1 c 1.3,-2 3.4,-3.2 5.8,-3.2 2.7,0 4.7,1 5.8,3.4 1.1,-2.3 3.7,-3.4 6.1,-3.4 4.9,0 6.2,3.4 6.2,7.7 V 100 Z"
   id="path5" />
	</g>
</g>

</svg>
