<?xml version="1.0" encoding="UTF-8" standalone="no"?>
<!-- Created with Inkscape (http://www.inkscape.org/) -->

<svg
   width="1048.5724mm"
   height="150.35555mm"
   viewBox="0 0 1048.5724 150.35555"
   version="1.1"
   id="svg5"
   inkscape:version="1.1.2 (b8e25be833, 2022-02-05)"
   sodipodi:docname="garmin.svg"
   xmlns:inkscape="http://www.inkscape.org/namespaces/inkscape"
   xmlns:sodipodi="http://sodipodi.sourceforge.net/DTD/sodipodi-0.dtd"
   xmlns="http://www.w3.org/2000/svg"
   xmlns:svg="http://www.w3.org/2000/svg">
  <sodipodi:namedview
     id="namedview7"
     pagecolor="#ffffff"
     bordercolor="#666666"
     borderopacity="1.0"
     inkscape:pageshadow="2"
     inkscape:pageopacity="0"
     inkscape:pagecheckerboard="0"
     inkscape:document-units="mm"
     showgrid="false"
     inkscape:zoom="0.097481387"
     inkscape:cx="841.18622"
     inkscape:cy="1615.693"
     inkscape:window-width="1536"
     inkscape:window-height="890"
     inkscape:window-x="-6"
     inkscape:window-y="-6"
     inkscape:window-maximized="1"
     inkscape:current-layer="layer1"
     fit-margin-top="0"
     fit-margin-left="0"
     fit-margin-right="0"
     fit-margin-bottom="0" />
  <defs
     id="defs2">
    <clipPath
       clipPathUnits="userSpaceOnUse"
       id="clipPath23">
      <path
         d="M 0,175.607 H 522.263 V 0 H 0 Z"
         id="path21" />
    </clipPath>
  </defs>
  <g
     inkscape:label="Livello 1"
     inkscape:groupmode="layer"
     id="layer1"
     transform="translate(-16.200097,-26.112611)">
    <path
       d="m 1045.1569,158.59903 h 3.748 c 2.4196,0 3.9727,-0.49876 3.9727,-3.01236 0,-2.19752 -1.9653,-2.83704 -3.9727,-2.83704 h -3.748 z m -3.1559,-8.31357 h 7.4002 c 4.4367,0 6.6267,1.78269 6.6267,5.43455 0,3.10865 -1.9653,5.34814 -4.9778,5.34814 l 5.4846,8.54815 h -3.3386 l -5.3928,-8.54815 h -2.6464 v 8.54815 h -3.1559 z m 6.3503,23.71357 c 7.5856,0 13.2991,-6.12098 13.2991,-14.02717 0,-7.90371 -5.7135,-14.02963 -13.2991,-14.02963 -7.671,0 -13.39,6.12592 -13.39,14.02963 0,7.90619 5.719,14.02717 13.39,14.02717 m -0.07,-30.52346 c 9.089,0 16.4912,7.40493 16.4912,16.49629 0,9.09383 -7.4022,16.49629 -16.4912,16.49629 -9.0961,0 -16.4984,-7.40246 -16.4984,-16.49629 0,-9.09136 7.4023,-16.49629 16.4984,-16.49629 M 16.200097,101.11755 c 0,70.62962 72.242166,74.21235 86.728243,74.21235 47.94121,0 68.19809,-12.95556 69.04009,-13.5136 2.99704,-1.6963 6.64915,-5.12098 6.64915,-11.53084 v -48.74569 c 0,-4.493844 -3.65915,-8.153094 -8.15328,-8.153094 h -60.22468 c -4.50112,0 -7.45686,3.65925 -7.45686,8.153094 v 5.04938 c 0,4.49877 2.95574,8.16544 7.45686,8.16544 h 34.83748 c 3.36518,0 6.09623,2.73087 6.09623,6.09134 0,0 0,21.36791 0,22.72593 -6.88436,2.80989 -38.22992,11.96791 -63.417667,5.9605 -36.53547,-8.73828 -39.38478,-38.88149 -39.38478,-47.91111 0,-7.575324 2.27402,-45.540744 47.1426,-49.380254 36.321237,-3.10864 60.240067,11.55802 60.476617,11.69877 4.27161,2.21482 8.68942,0.63951 11.06702,-3.88395 0,-0.0343 4.53053,-9.18024 4.53053,-9.18024 1.87927,-3.76543 1.24725,-7.66668 -3.34765,-10.785182 -0.30097,-0.17533 -25.76587,-13.977783 -65.27456,-13.977783 -84.300952,0 -86.733132,67.330855 -86.733132,75.004939 m 632.713882,9.56542 c -1.90379,3.42471 -5.0373,3.41481 -6.91652,-0.0196 L 600.99309,35.300442 c -1.74628,-3.498765 -5.32145,-6.372836 -10.30621,-6.372836 h -22.25934 c -3.92578,0 -7.13838,3.199993 -7.13838,7.128388 V 166.97202 c 0,3.91605 2.57774,6.59507 7.13838,6.59507 h 13.8317 c 3.92857,0 6.76046,-2.47408 6.76046,-6.2568 0,-1.81482 0.07,-95.219764 0.20295,-95.219764 0.154,0 51.22519,95.195084 51.22519,95.195084 1.84635,3.45185 6.38742,3.46665 8.27158,0.0273 0,0 51.49327,-94.948144 51.64443,-94.948144 0.161,0 0.10498,92.219754 0.10498,94.945684 0,3.78273 3.0243,6.2568 6.95293,6.2568 h 15.93558 c 3.92862,0 7.1258,-1.9531 7.1258,-7.13088 V 36.055823 c 0,-3.928395 -3.19718,-7.128399 -7.1258,-7.128399 h -21.34033 c -5.44459,0 -8.72162,2.777779 -10.66456,6.187656 z M 991.24755,28.927424 c -3.9238,0 -7.0915,2.585183 -7.0915,6.360495 0,1.812355 0.07,83.846891 0.07,83.846891 0,3.92842 -2.2222,4.82471 -4.9435,2.00001 l -83.958,-87.083936 c -2.72822,-2.824697 -6.71562,-5.12346 -12.09095,-5.12346 h -15.78796 c -4.96514,0 -7.13839,2.649389 -7.13839,5.333333 V 168.33976 c 0,2.67407 2.54839,5.22717 6.47631,5.22717 h 15.81238 c 3.91604,0 6.66178,-2.13333 6.66178,-5.74323 0,-1.81233 0.077,-88.330844 0.077,-88.330844 0,-3.91851 2.21729,-4.81482 4.93576,-1.98518 l 87.53877,91.009874 c 2.78,2.78271 6.1599,5.04938 12.168,5.04938 h 11.87895 c 3.9279,0 7.1328,-3.20494 7.1328,-7.13087 V 36.055823 c 0,-3.928395 -3.2049,-7.128399 -7.1328,-7.128399 z M 475.61984,91.853336 c -4.39964,1.01235 -9.35499,1.2173 -9.35499,1.2173 -3.91674,0.17036 -10.32654,0.30859 -14.24952,0.30859 h -33.29135 c -3.92373,0 -7.1314,-3.20987 -7.1314,-7.13334 v -26.55797 c 0,-3.92346 3.20767,-7.13334 7.1314,-7.13334 h 33.29135 c 3.92298,0 10.33278,0.14075 14.24952,0.30614 0,0 4.95535,0.19507 9.35499,1.21236 4.40249,1.01481 7.89431,2.43209 10.44479,4.26419 2.56523,1.84198 4.3976,4 5.50342,6.48396 1.0912,2.48147 1.64691,5.18764 1.64691,8.13579 0,2.93581 -0.55291,5.65679 -1.64691,8.13827 -1.10582,2.48149 -2.93819,4.64198 -5.50342,6.4815 -2.55048,1.83949 -6.0423,3.27406 -10.44479,4.27653 m 13.52092,26.622214 c -2.2537,-3.21232 -1.01698,-6.75801 2.73876,-7.87652 0,0 14.94316,-4.47409 22.09623,-10.886444 7.15523,-6.42962 10.75066,-15.71603 10.75066,-27.81973 0,-7.9136 -1.38303,-14.56792 -4.13856,-19.98025 -2.75278,-5.39752 -6.70379,-9.81478 -11.84466,-13.197512 -5.13802,-3.399994 -11.28883,-5.891353 -18.45385,-7.45431 -7.1727,-1.553096 -16.85179,-2.007418 -16.85179,-2.007418 -3.92094,-0.180221 -10.33353,-0.325945 -14.24742,-0.325945 h -71.81455 c -3.916,0 -7.12581,3.200004 -7.12581,7.128399 v 131.08148 c 0,3.92593 3.20981,6.42963 7.12581,6.42963 h 16.99525 c 3.92095,0 7.13076,-2.5037 7.13076,-6.42963 0,0 0,-52.13581 0.07,-52.13581 0,0 0.0701,-0.0295 0.0701,-0.0665 0,-0.0441 32.21698,-0.079 32.21698,-0.079 3.91389,0 8.97566,2.62222 11.24195,5.8321 l 33.44466,47.08641 c 3.1062,4.17285 6.06193,5.79261 9.98496,5.79261 h 22.2124 c 3.92093,0 4.53612,-3.69631 3.18039,-5.61977 -1.34802,-1.91111 -34.73315,-49.47161 -34.73315,-49.47161 M 778.98014,36.325091 V 167.48311 c 0,3.60987 3.20702,6.08396 7.13286,6.08396 h 17.29408 c 3.92094,0 7.13076,-2.5037 7.13076,-6.42963 V 36.055823 c 0,-3.928395 -2.533,-7.128399 -6.45459,-7.128399 H 786.113 c -3.92584,0 -7.13286,2.412344 -7.13286,7.397542 M 250.01495,132.56199 c -3.92088,0 -5.76794,-2.92347 -4.11619,-6.47162 l 24.93581,-53.422214 c 1.65949,-3.55802 4.34297,-3.53335 5.96045,0.0245 l 24.27928,53.419754 c 1.62169,3.56296 -0.25898,6.48396 -4.17782,6.48396 z m 39.9797,-97.261719 c -1.74279,-3.508649 -6.38458,-6.372847 -10.30831,-6.372847 h -7.9853 c -3.91598,0 -8.50604,2.898764 -10.19979,6.432095 L 198.21722,167.56445 c -1.76027,3.49878 0.154,6.00248 4.07909,6.00248 h 14.6247 c 5.77289,0 8.41716,-2.62222 9.98007,-5.84198 1.5706,-3.21728 5.05403,-10.20987 5.72105,-11.63704 0.90148,-1.93087 3.68363,-3.1111 7.60527,-3.10865 l 68.08887,0.0371 c 3.92303,0.008 6.4441,0.7531 7.60735,3.07162 0.75523,1.51111 4.23445,7.79753 5.94787,11.23209 1.72318,3.43211 4.62222,6.24692 10.2446,6.24692 h 21.21997 c 3.92089,0 5.6413,-2.98025 4.22676,-5.74322 -1.4124,-2.77784 -67.56817,-132.523487 -67.56817,-132.523487"
       style="fill:#100f0d;fill-opacity:1;fill-rule:nonzero;stroke:none;stroke-width:2.46913"
       id="path27" />
  </g>
</svg>
