<?xml version="1.0" encoding="utf-8"?>
<!-- Generator: Adobe Illustrator 27.9.6, SVG Export Plug-In . SVG Version: 9.03 Build 54986)  -->
<svg version="1.1" id="Layer_1" xmlns="http://www.w3.org/2000/svg" xmlns:xlink="http://www.w3.org/1999/xlink" x="0px" y="0px"
	 viewBox="0 0 198.43 87.25" style="enable-background:new 0 0 198.43 87.25;" xml:space="preserve">
<style type="text/css">
	.st0{filter:url(#Adobe_OpacityMaskFilter);}
	.st1{fill:url(#SVGID_1_);}
	.st2{display:none;mask:url(#Schattten_00000040559891243601572760000013826344763748737408_);}
	.st3{display:inline;}
	.st4{fill:#A8A8A7;}
	.st5{fill:#143A84;}
	.st6{fill:#E1E2F1;}
</style>
<defs>
	<filter id="Adobe_OpacityMaskFilter" filterUnits="userSpaceOnUse" x="4.37" y="41.57" width="50.43" height="15.5">
		<feFlood  style="flood-color:white;flood-opacity:1" result="back"/>
		<feBlend  in="SourceGraphic" in2="back" mode="normal"/>
	</filter>
</defs>
<mask maskUnits="userSpaceOnUse" x="4.37" y="41.57" width="50.43" height="15.5" id="Schattten_00000086672785051199871980000018258789213835573150_">
	<g class="st0">
		
			<linearGradient id="SVGID_1_" gradientUnits="userSpaceOnUse" x1="-331.1869" y1="357.4164" x2="-330.2164" y2="357.4164" gradientTransform="matrix(3.0354 23.3712 23.3712 -3.0354 -7319.8521 8863.1191)">
			<stop  offset="0" style="stop-color:#000000"/>
			<stop  offset="0.118" style="stop-color:#383838"/>
			<stop  offset="0.2434" style="stop-color:#6C6C6C"/>
			<stop  offset="0.371" style="stop-color:#999999"/>
			<stop  offset="0.4981" style="stop-color:#BEBEBE"/>
			<stop  offset="0.6248" style="stop-color:#DADADA"/>
			<stop  offset="0.7509" style="stop-color:#EFEFEF"/>
			<stop  offset="0.8762" style="stop-color:#FBFBFB"/>
			<stop  offset="1" style="stop-color:#FFFFFF"/>
		</linearGradient>
		<polygon class="st1" points="53.97,35.13 56.78,56.82 5.21,63.51 2.39,41.83 		"/>
	</g>
</mask>
<g id="Schattten" style="display:none;mask:url(#Schattten_00000086672785051199871980000018258789213835573150_);">
	<g class="st3">
		<polygon class="st4" points="54.8,57.07 4.37,42.57 30.49,41.57 53.67,41.57 		"/>
	</g>
</g>
<g>
	<polygon class="st5" points="55.18,1.25 34.07,7.17 34.07,28.24 55.18,28.24 55.18,1.25 	"/>
	<polygon class="st5" points="57.35,1.25 78.58,7.17 78.58,28.24 57.35,28.24 57.35,1.25 	"/>
	<polygon class="st5" points="55.18,57.14 34.07,51.22 34.07,30.15 55.18,30.15 55.18,57.14 	"/>
	<g>
		<polygon class="st6" points="57.35,57.14 78.58,51.22 78.58,30.15 57.35,30.15 		"/>
	</g>
</g>
<g>
	<polygon points="17.6,86.02 17.6,82.93 9.71,82.93 9.71,68.26 6.31,68.26 6.31,86.02 17.6,86.02 	"/>
	<path d="M37.58,70.06c-1.22-1.25-2.71-1.94-4.69-1.94c-1.98,0-3.49,0.7-4.71,1.94c-1.76,1.8-1.71,4.02-1.71,7.08
		c0,3.07-0.05,5.29,1.71,7.08c1.22,1.25,2.74,1.94,4.71,1.94c1.98,0,3.47-0.7,4.69-1.94c1.76-1.8,1.73-4.02,1.73-7.08
		C39.32,74.07,39.34,71.85,37.58,70.06z M35.06,82.13c-0.49,0.57-1.25,0.95-2.17,0.95c-0.93,0-1.71-0.37-2.2-0.95
		c-0.66-0.75-0.83-1.57-0.83-4.99c0-3.42,0.17-4.24,0.83-4.99c0.49-0.57,1.27-0.95,2.2-0.95c0.93,0,1.69,0.37,2.17,0.95
		c0.66,0.75,0.85,1.57,0.85,4.99C35.92,80.56,35.72,81.38,35.06,82.13z"/>
	<path d="M62.5,78.74v-2.59h-6.57v2.89h3.2v0.67c0,0.92-0.22,1.72-0.78,2.37c-0.56,0.62-1.39,1-2.42,1c-0.93,0-1.69-0.35-2.18-0.92
		c-0.66-0.75-0.83-1.6-0.83-5.01c0-3.42,0.17-4.24,0.83-4.99c0.49-0.57,1.25-0.95,2.18-0.95c1.73,0,2.74,0.92,3.13,2.6h3.42
		c-0.46-3-2.52-5.69-6.55-5.69c-1.96,0-3.47,0.7-4.69,1.94c-1.76,1.8-1.71,4.02-1.71,7.09c0,3.07-0.05,5.29,1.71,7.08
		c1.22,1.25,2.79,1.94,4.69,1.94c1.86,0,3.52-0.55,4.91-2.02C62.06,82.85,62.5,81.31,62.5,78.74L62.5,78.74z"/>
	<path d="M83.63,69.96c-1.17-1.2-2.71-1.85-4.45-1.85c-1.73,0-3.27,0.65-4.45,1.85c-1.64,1.67-1.64,3.42-1.64,7.18
		c0,3.76,0,5.51,1.64,7.18c1.17,1.2,2.71,1.84,4.45,1.84c1.73,0,3.27-0.65,4.45-1.84c1.64-1.67,1.64-3.42,1.64-7.18
		C85.27,73.38,85.27,71.63,83.63,69.96z M82.19,83.2c-0.76,0.8-1.86,1.27-3.01,1.27c-1.15,0-2.25-0.47-3.01-1.27
		c-1.1-1.15-1.22-2.34-1.22-6.06c0-3.72,0.12-4.91,1.22-6.06c0.76-0.8,1.86-1.27,3.01-1.27c1.15,0,2.25,0.47,3.01,1.27
		c1.1,1.15,1.22,2.34,1.22,6.06C83.41,80.86,83.29,82.06,82.19,83.2z"/>
	<path d="M106.09,76.89c1.46-0.55,2.56-2.02,2.56-3.89c0-2.97-2.1-4.74-5.13-4.74h-6.55v17.76h6.77c3.08,0,5.18-1.69,5.18-4.91
		C108.92,78.99,107.75,77.52,106.09,76.89z M98.83,69.96h4.54c1.93,0,3.42,0.95,3.42,3.07c0,2.12-1.49,3.09-3.42,3.09h-4.54V69.96z
		 M103.57,84.33h-4.74v-6.51h4.74c2.15,0,3.49,1.25,3.49,3.24C107.06,83.05,105.72,84.33,103.57,84.33z"/>
	<path d="M127.41,80.63V68.26h-1.86v12.12c0,2.62-1.29,4.09-3.56,4.09c-1.44,0-2.1-0.52-2.74-1.17l-1.25,1.27
		c1.07,1.1,2.32,1.6,3.98,1.6C125.16,86.17,127.41,84.05,127.41,80.63L127.41,80.63z"/>
	<polygon points="150.33,86.02 150.33,84.33 141.39,84.33 141.39,77.92 149.01,77.92 149.01,76.22 141.39,76.22 141.39,69.96 
		150.33,69.96 150.33,68.26 139.53,68.26 139.53,86.02 150.33,86.02 	"/>
	<path d="M172.97,80.88h-1.85c-0.47,2.17-2.01,3.59-4.18,3.59c-1.15,0-2.25-0.45-3-1.25c-1.1-1.15-1.22-2.37-1.22-6.08
		c0-3.72,0.12-4.94,1.22-6.09c0.76-0.8,1.86-1.25,3-1.25c2.17,0,3.67,1.42,4.13,3.59h1.91c-0.59-3.34-2.91-5.29-6.04-5.29
		c-1.71,0-3.27,0.65-4.44,1.85c-1.64,1.67-1.64,3.42-1.64,7.18c0,3.76,0,5.51,1.64,7.18c1.17,1.2,2.74,1.84,4.44,1.84
		C170.04,86.17,172.41,84.23,172.97,80.88L172.97,80.88z"/>
	<polygon points="194.06,69.96 194.06,68.26 182.14,68.26 182.14,69.96 187.17,69.96 187.17,86.02 189.02,86.02 189.02,69.96 
		194.06,69.96 	"/>
</g>
</svg>
