<?xml version="1.0" encoding="UTF-8" standalone="no"?>
<!-- Created with Inkscape (http://www.inkscape.org/) -->

<svg
   width="1255.3076mm"
   height="176.67139mm"
   viewBox="0 0 1255.3076 176.67139"
   version="1.1"
   id="svg5"
   inkscape:version="1.1.2 (b8e25be833, 2022-02-05)"
   sodipodi:docname="nextworks.svg"
   xmlns:inkscape="http://www.inkscape.org/namespaces/inkscape"
   xmlns:sodipodi="http://sodipodi.sourceforge.net/DTD/sodipodi-0.dtd"
   xmlns="http://www.w3.org/2000/svg"
   xmlns:svg="http://www.w3.org/2000/svg">
  <sodipodi:namedview
     id="namedview7"
     pagecolor="#ffffff"
     bordercolor="#666666"
     borderopacity="1.0"
     inkscape:pageshadow="2"
     inkscape:pageopacity="0.0"
     inkscape:pagecheckerboard="0"
     inkscape:document-units="mm"
     showgrid="false"
     inkscape:zoom="0.068929749"
     inkscape:cx="-406.21068"
     inkscape:cy="1211.3783"
     inkscape:window-width="1536"
     inkscape:window-height="890"
     inkscape:window-x="-6"
     inkscape:window-y="-6"
     inkscape:window-maximized="1"
     inkscape:current-layer="layer1"
     fit-margin-top="0"
     fit-margin-left="0"
     fit-margin-right="0"
     fit-margin-bottom="0" />
  <defs
     id="defs2">
    <clipPath
       clipPathUnits="userSpaceOnUse"
       id="clipPath27">
      <path
         d="M 0,441.558 H 1920 V 0 H 0 Z"
         id="path25" />
    </clipPath>
    <clipPath
       clipPathUnits="userSpaceOnUse"
       id="clipPath395">
      <path
         d="M 71.811,117.313 H 1207.727 V 579.308 H 71.811 Z"
         id="path393" />
    </clipPath>
    <clipPath
       clipPathUnits="userSpaceOnUse"
       id="clipPath409">
      <path
         d="M 0,0 H 1281.12 V 688.185 H 0 Z"
         id="path407" />
    </clipPath>
    <clipPath
       clipPathUnits="userSpaceOnUse"
       id="clipPath419">
      <path
         d="M 71.811,117.313 H 1207.727 V 579.308 H 71.811 Z"
         id="path417" />
    </clipPath>
    <clipPath
       clipPathUnits="userSpaceOnUse"
       id="clipPath429">
      <path
         d="M 0,0 H 1281.12 V 688.185 H 0 Z"
         id="path427" />
    </clipPath>
    <clipPath
       clipPathUnits="userSpaceOnUse"
       id="clipPath443">
      <path
         d="M 71.811,117.313 H 1207.727 V 579.308 H 71.811 Z"
         id="path441" />
    </clipPath>
    <clipPath
       clipPathUnits="userSpaceOnUse"
       id="clipPath453">
      <path
         d="M 0,0 H 1281.12 V 688.185 H 0 Z"
         id="path451" />
    </clipPath>
    <clipPath
       clipPathUnits="userSpaceOnUse"
       id="clipPath473">
      <path
         d="M 71.811,117.313 H 1207.727 V 579.308 H 71.811 Z"
         id="path471" />
    </clipPath>
    <clipPath
       clipPathUnits="userSpaceOnUse"
       id="clipPath483">
      <path
         d="M 0,0 H 1281.12 V 688.185 H 0 Z"
         id="path481" />
    </clipPath>
    <clipPath
       clipPathUnits="userSpaceOnUse"
       id="clipPath497">
      <path
         d="M 71.811,117.313 H 1207.727 V 579.308 H 71.811 Z"
         id="path495" />
    </clipPath>
    <clipPath
       clipPathUnits="userSpaceOnUse"
       id="clipPath507">
      <path
         d="M 0,0 H 1281.12 V 688.185 H 0 Z"
         id="path505" />
    </clipPath>
    <clipPath
       clipPathUnits="userSpaceOnUse"
       id="clipPath517">
      <path
         d="M 71.811,117.313 H 1207.727 V 579.308 H 71.811 Z"
         id="path515" />
    </clipPath>
    <clipPath
       clipPathUnits="userSpaceOnUse"
       id="clipPath531">
      <path
         d="M 0,0 H 1281.12 V 688.185 H 0 Z"
         id="path529" />
    </clipPath>
    <clipPath
       clipPathUnits="userSpaceOnUse"
       id="clipPath823">
      <path
         d="M 0,688.185 H 595.276 V 0 H 0 Z"
         id="path821" />
    </clipPath>
    <clipPath
       clipPathUnits="userSpaceOnUse"
       id="clipPath829">
      <path
         d="M 0,0 H 595.276 V 688.185 H 0 Z"
         id="path827" />
    </clipPath>
    <clipPath
       clipPathUnits="userSpaceOnUse"
       id="clipPath843">
      <path
         d="M 0,0 H 595.276 V 688.185 H 0 Z"
         id="path841" />
    </clipPath>
    <clipPath
       clipPathUnits="userSpaceOnUse"
       id="clipPath853">
      <path
         d="M 0,688.185 H 595.276 V 0 H 0 Z"
         id="path851" />
    </clipPath>
    <clipPath
       clipPathUnits="userSpaceOnUse"
       id="clipPath859">
      <path
         d="M 0,0 H 595.276 V 688.185 H 0 Z"
         id="path857" />
    </clipPath>
    <clipPath
       clipPathUnits="userSpaceOnUse"
       id="clipPath1053">
      <path
         d="M 0,159.88 H 1136 V 0 H 0 Z"
         id="path1051" />
    </clipPath>
  </defs>
  <g
     inkscape:label="Livello 1"
     inkscape:groupmode="layer"
     id="layer1"
     transform="translate(-18.41398,-21.698799)">
    <g
       id="g1029"
       inkscape:label="nxw-logo (1)"
       transform="matrix(1.1050249,0,0,-1.1050249,18.413759,198.37018)">
      <g
         id="g1031"
         transform="translate(69.6402,157.4451)">
        <path
           d="M 0,0 V -66.529 H -0.272 L -40.973,0 H -69.64 v -95.736 h 21.094 v 68.151 h 0.269 L -6.491,-95.736 H 21.093 V 0 Z"
           style="fill:#000000;fill-opacity:1;fill-rule:nonzero;stroke:none"
           id="path1033" />
      </g>
      <g
         id="g1035"
         transform="translate(144.8224,157.4447)">
        <path
           d="M 0,0 H 65.041 V -19.47 H 21.094 V -37.322 H 62.608 V -56.791 H 21.094 v -19.474 h 46.382 v -19.47 H 0 Z"
           style="fill:#000000;fill-opacity:1;fill-rule:nonzero;stroke:none"
           id="path1037" />
      </g>
      <g
         id="g1039"
         transform="translate(412.9645,138.7839)">
        <path
           d="M 0,0 H -27.315 V 18.661 H 48.411 V 0 H 21.096 V -77.074 H 0 Z"
           style="fill:#000000;fill-opacity:1;fill-rule:nonzero;stroke:none"
           id="path1041" />
      </g>
      <g
         id="g1043"
         transform="translate(495.8574,157.4447)">
        <path
           d="m 0,0 h 22.988 l 15.279,-61.388 h 0.27 L 58.55,0 h 19.607 l 19.879,-63.01 h 0.269 L 114.4,0 h 21.362 L 107.773,-95.735 H 88.977 l -21.096,66.259 h -0.27 L 46.515,-95.735 H 28.396 Z"
           style="fill:#000000;fill-opacity:1;fill-rule:nonzero;stroke:none"
           id="path1045" />
      </g>
      <g
         id="g1047">
        <g
           id="g1049"
           clip-path="url(#clipPath1053)">
          <g
             id="g1055"
             transform="translate(691.6589,109.5771)">
            <path
               d="m 0,0 c 0,-4.508 0.699,-8.633 2.098,-12.375 1.395,-3.741 3.4,-6.985 6.017,-9.732 2.612,-2.752 5.747,-4.892 9.4,-6.426 3.649,-1.533 7.727,-2.296 12.235,-2.296 4.509,0 8.587,0.763 12.24,2.296 3.649,1.534 6.779,3.674 9.396,6.426 2.616,2.747 4.617,5.991 6.016,9.732 1.399,3.742 2.099,7.867 2.099,12.375 0,4.416 -0.7,8.519 -2.099,12.307 -1.399,3.784 -3.4,7.053 -6.016,9.8 -2.617,2.752 -5.747,4.892 -9.396,6.426 -3.653,1.533 -7.731,2.3 -12.24,2.3 -4.508,0 -8.586,-0.767 -12.235,-2.3 -3.653,-1.534 -6.788,-3.674 -9.4,-6.426 C 5.498,19.36 3.493,16.091 2.098,12.307 0.699,8.519 0,4.416 0,0 m -21.905,0 c 0,7.66 1.285,14.603 3.855,20.826 2.57,6.219 6.152,11.515 10.748,15.889 4.601,4.369 10.053,7.727 16.365,10.074 6.307,2.343 13.204,3.514 20.687,3.514 7.483,0 14.38,-1.171 20.692,-3.514 6.307,-2.347 11.764,-5.705 16.36,-10.074 4.597,-4.374 8.182,-9.67 10.748,-15.889 C 80.121,14.603 81.406,7.66 81.406,0 c 0,-7.664 -1.285,-14.603 -3.856,-20.822 -2.566,-6.223 -6.151,-11.519 -10.748,-15.889 -4.596,-4.377 -10.053,-7.731 -16.36,-10.074 -6.312,-2.347 -13.209,-3.518 -20.692,-3.518 -7.483,0 -14.38,1.171 -20.687,3.518 -6.312,2.343 -11.764,5.697 -16.365,10.074 -4.596,4.37 -8.178,9.666 -10.748,15.889 -2.57,6.219 -3.855,13.158 -3.855,20.822"
               style="fill:#000000;fill-opacity:1;fill-rule:nonzero;stroke:none"
               id="path1057" />
          </g>
          <g
             id="g1059"
             transform="translate(842.2936,117.8268)">
            <path
               d="m 0,0 h 12.442 c 1.892,0 3.897,0.067 6.017,0.202 2.119,0.135 4.036,0.54 5.747,1.218 1.714,0.674 3.134,1.736 4.259,3.177 1.129,1.441 1.69,3.467 1.69,6.084 0,2.435 -0.493,4.373 -1.488,5.814 -0.99,1.441 -2.254,2.549 -3.783,3.316 -1.534,0.763 -3.291,1.285 -5.275,1.555 -1.985,0.269 -3.923,0.404 -5.815,0.404 L 0,21.77 Z M -21.092,39.618 H 15.96 c 4.866,0 9.484,-0.472 13.858,-1.42 4.373,-0.944 8.203,-2.524 11.494,-4.732 3.29,-2.207 5.902,-5.182 7.845,-8.923 1.938,-3.742 2.907,-8.406 2.907,-13.997 0,-6.762 -1.757,-12.509 -5.275,-17.241 -3.514,-4.732 -8.654,-7.731 -15.417,-8.991 L 55.713,-56.117 H 30.429 L 10.415,-17.852 H 0 v -38.265 h -21.092 z"
               style="fill:#000000;fill-opacity:1;fill-rule:nonzero;stroke:none"
               id="path1061" />
          </g>
          <g
             id="g1063"
             transform="translate(943.4385,157.4447)">
            <path
               d="M 0,0 H 21.096 V -39.753 L 58.283,0 H 85.867 L 43.271,-44.488 89.52,-95.735 H 60.04 L 21.096,-50.303 V -95.735 H 0 Z"
               style="fill:#000000;fill-opacity:1;fill-rule:nonzero;stroke:none"
               id="path1065" />
          </g>
          <g
             id="g1067"
             transform="translate(1121.3966,134.0523)">
            <path
               d="m 0,0 c -1.715,2.166 -4.036,3.762 -6.965,4.799 -2.932,1.036 -5.704,1.559 -8.317,1.559 -1.533,0 -3.109,-0.185 -4.731,-0.544 -1.622,-0.362 -3.156,-0.922 -4.597,-1.689 -1.445,-0.767 -2.616,-1.782 -3.518,-3.042 -0.902,-1.264 -1.353,-2.798 -1.353,-4.597 0,-2.886 1.083,-5.094 3.245,-6.627 2.165,-1.534 4.891,-2.84 8.182,-3.923 3.291,-1.079 6.83,-2.161 10.617,-3.244 3.784,-1.083 7.323,-2.617 10.614,-4.597 3.291,-1.985 6.016,-4.643 8.182,-7.98 2.162,-3.333 3.244,-7.799 3.244,-13.386 0,-5.321 -0.994,-9.96 -2.974,-13.929 -1.985,-3.965 -4.664,-7.255 -8.048,-9.872 -3.379,-2.612 -7.301,-4.55 -11.763,-5.814 -4.462,-1.26 -9.173,-1.892 -14.132,-1.892 -6.219,0 -11.991,0.948 -17.308,2.84 -5.321,1.892 -10.276,4.955 -14.873,9.193 l 15.008,16.5 c 2.165,-2.887 4.891,-5.12 8.182,-6.695 3.291,-1.576 6.695,-2.364 10.209,-2.364 1.711,0 3.446,0.202 5.208,0.607 1.757,0.404 3.332,1.015 4.731,1.824 1.395,0.813 2.524,1.85 3.379,3.109 0.856,1.264 1.285,2.752 1.285,4.467 0,2.882 -1.104,5.157 -3.311,6.825 -2.212,1.669 -4.985,3.089 -8.317,4.26 -3.337,1.171 -6.944,2.342 -10.816,3.518 -3.881,1.171 -7.487,2.747 -10.82,4.732 -3.337,1.98 -6.109,4.596 -8.317,7.845 -2.208,3.244 -3.312,7.525 -3.312,12.842 0,5.14 1.016,9.648 3.042,13.525 2.027,3.876 4.732,7.12 8.115,9.737 3.379,2.612 7.277,4.571 11.696,5.881 4.416,1.307 8.971,1.96 13.656,1.96 5.41,0 10.638,-0.767 15.686,-2.297 5.048,-1.537 9.602,-4.103 13.66,-7.71 z"
               style="fill:#000000;fill-opacity:1;fill-rule:nonzero;stroke:none"
               id="path1069" />
          </g>
          <g
             id="g1071"
             transform="translate(350.9002,61.7096)">
            <path
               d="M 0,0 -27.642,40.275 -39.298,21.079 -26.504,0 Z"
               style="fill:#000000;fill-opacity:1;fill-rule:nonzero;stroke:none"
               id="path1073" />
          </g>
          <g
             id="g1075"
             transform="translate(347.2493,157.4447)">
            <path
               d="m 0,0 h -25.558 l -8.459,-14.468 11.173,-18.948 z"
               style="fill:#000000;fill-opacity:1;fill-rule:nonzero;stroke:none"
               id="path1077" />
          </g>
          <g
             id="g1079"
             transform="translate(281.6669,157.4447)">
            <path
               d="M 0,0 H -3.748 -26.504 L 5.138,-45.702 -28.398,-95.735 h 25.017 l 30.337,50.033 z"
               style="fill:#000000;fill-opacity:1;fill-rule:nonzero;stroke:none"
               id="path1081" />
          </g>
          <g
             id="g1083"
             transform="translate(236.1144,31.3261)">
            <path
               d="M 0,0 H 6.729 V -11.393 H 19.803 V 0 h 6.733 v -30.547 h -6.733 v 13.201 H 6.729 V -30.547 H 0 Z"
               style="fill:#000000;fill-opacity:1;fill-rule:nonzero;stroke:none"
               id="path1085" />
          </g>
          <g
             id="g1087"
             transform="translate(279.9035,31.3261)">
            <path
               d="M 0,0 H 20.755 V -6.215 H 6.733 v -5.696 H 19.98 v -6.211 H 6.733 v -6.214 H 21.53 v -6.211 H 0 Z"
               style="fill:#000000;fill-opacity:1;fill-rule:nonzero;stroke:none"
               id="path1089" />
          </g>
          <g
             id="g1091"
             transform="translate(330.2527,22.4359)">
            <path
               d="M 0,0 -3.708,-9.493 H 3.754 Z M -2.587,8.89 H 2.979 L 16.268,-21.656 H 8.675 l -2.633,6.471 H -5.823 l -2.545,-6.471 h -7.419 z"
               style="fill:#000000;fill-opacity:1;fill-rule:nonzero;stroke:none"
               id="path1093" />
          </g>
          <g
             id="g1095"
             transform="translate(367.0982,6.9899)">
            <path
               d="m 0,0 h 3.497 c 1.555,0 3,0.16 4.336,0.476 1.335,0.316 2.494,0.843 3.471,1.576 0.978,0.733 1.749,1.694 2.309,2.89 0.561,1.193 0.843,2.655 0.843,4.378 0,1.496 -0.282,2.798 -0.843,3.906 -0.56,1.108 -1.314,2.018 -2.262,2.738 -0.953,0.721 -2.065,1.26 -3.346,1.618 -1.281,0.358 -2.625,0.54 -4.032,0.54 H 0 Z M -6.729,24.336 H 3.366 c 2.444,0 4.77,-0.274 6.969,-0.821 2.2,-0.548 4.121,-1.433 5.76,-2.655 1.639,-1.222 2.941,-2.81 3.906,-4.765 0.96,-1.955 1.445,-4.331 1.445,-7.121 0,-2.473 -0.468,-4.651 -1.403,-6.534 C 19.107,0.556 17.848,-1.028 16.268,-2.309 14.683,-3.586 12.859,-4.559 10.786,-5.22 8.717,-5.882 6.543,-6.21 4.272,-6.21 H -6.729 Z"
               style="fill:#000000;fill-opacity:1;fill-rule:nonzero;stroke:none"
               id="path1097" />
          </g>
          <path
             d="m 403.817,31.326 h 6.729 V 0.779 h -6.729 z"
             style="fill:#000000;fill-opacity:1;fill-rule:nonzero;stroke:none"
             id="path1099" />
          <g
             id="g1101"
             transform="translate(427.4583,31.3261)">
            <path
               d="m 0,0 h 9.147 l 12.986,-21.227 h 0.088 V 0 H 28.95 V -30.547 H 20.148 L 6.817,-8.802 H 6.729 V -30.547 H 0 Z"
               style="fill:#000000;fill-opacity:1;fill-rule:nonzero;stroke:none"
               id="path1103" />
          </g>
          <g
             id="g1105"
             transform="translate(501.0608,2.9367)">
            <path
               d="m 0,0 c -1.984,-1.036 -4.053,-1.786 -6.21,-2.246 -2.158,-0.459 -4.357,-0.691 -6.603,-0.691 -2.389,0 -4.588,0.375 -6.602,1.125 -2.014,0.746 -3.754,1.816 -5.22,3.215 -1.467,1.395 -2.608,3.084 -3.43,5.069 -0.817,1.984 -1.23,4.196 -1.23,6.644 0,2.444 0.413,4.66 1.23,6.644 0.822,1.985 1.963,3.674 3.43,5.069 1.466,1.395 3.206,2.465 5.22,3.215 2.014,0.746 4.213,1.121 6.602,1.121 2.444,0 4.694,-0.295 6.754,-0.885 2.056,-0.59 3.86,-1.605 5.414,-3.042 L -5.393,20.06 c -0.919,0.952 -1.955,1.668 -3.105,2.157 -1.15,0.489 -2.587,0.733 -4.315,0.733 -1.436,0 -2.738,-0.244 -3.905,-0.733 -1.163,-0.489 -2.162,-1.171 -2.996,-2.048 -0.834,-0.876 -1.475,-1.921 -1.921,-3.126 -0.447,-1.209 -0.67,-2.52 -0.67,-3.927 0,-1.441 0.223,-2.755 0.67,-3.948 0.446,-1.196 1.087,-2.229 1.921,-3.109 0.834,-0.877 1.833,-1.559 2.996,-2.048 1.167,-0.489 2.469,-0.733 3.905,-0.733 1.467,0 2.735,0.164 3.796,0.497 1.066,0.329 1.913,0.666 2.545,1.011 V 9.75 h -5.477 v 6.214 H 0 Z"
               style="fill:#000000;fill-opacity:1;fill-rule:nonzero;stroke:none"
               id="path1107" />
          </g>
          <g
             id="g1109"
             transform="translate(547.2262,25.3726)">
            <path
               d="M 0,0 H -8.717 V 5.953 H 15.446 V 0 H 6.729 V -24.593 H 0 Z"
               style="fill:#000000;fill-opacity:1;fill-rule:nonzero;stroke:none"
               id="path1111" />
          </g>
          <g
             id="g1113"
             transform="translate(576.8669,31.3261)">
            <path
               d="M 0,0 H 6.729 V -11.393 H 19.803 V 0 h 6.728 v -30.547 h -6.728 v 13.201 H 6.729 V -30.547 H 0 Z"
               style="fill:#000000;fill-opacity:1;fill-rule:nonzero;stroke:none"
               id="path1115" />
          </g>
          <g
             id="g1117"
             transform="translate(620.656,31.3261)">
            <path
               d="M 0,0 H 20.751 V -6.215 H 6.729 v -5.696 h 13.246 v -6.211 H 6.729 v -6.214 H 21.53 v -6.211 H 0 Z"
               style="fill:#000000;fill-opacity:1;fill-rule:nonzero;stroke:none"
               id="path1119" />
          </g>
          <g
             id="g1121"
             transform="translate(682.179,31.3261)">
            <path
               d="M 0,0 H 20.494 V -6.215 H 6.733 v -6.21 H 19.461 V -18.64 H 6.733 V -30.547 H 0 Z"
               style="fill:#000000;fill-opacity:1;fill-rule:nonzero;stroke:none"
               id="path1123" />
          </g>
          <g
             id="g1125"
             transform="translate(744.0474,12.5557)">
            <path
               d="m 0,0 c 0,-1.812 -0.274,-3.48 -0.817,-5.005 -0.548,-1.521 -1.361,-2.844 -2.44,-3.969 -1.079,-1.121 -2.423,-1.997 -4.032,-2.63 -1.614,-0.632 -3.468,-0.952 -5.566,-0.952 -2.128,0 -3.998,0.32 -5.608,0.952 -1.614,0.633 -2.958,1.509 -4.036,2.63 -1.079,1.125 -1.892,2.448 -2.435,3.969 -0.548,1.525 -0.822,3.193 -0.822,5.005 v 18.77 h 6.729 V 0.261 c 0,-0.952 0.151,-1.828 0.455,-2.633 0.303,-0.805 0.724,-1.504 1.272,-2.094 0.548,-0.59 1.201,-1.049 1.963,-1.378 0.763,-0.333 1.589,-0.497 2.482,-0.497 0.889,0 1.711,0.164 2.457,0.497 0.749,0.329 1.398,0.788 1.942,1.378 0.548,0.59 0.973,1.289 1.272,2.094 0.304,0.805 0.455,1.681 0.455,2.633 V 18.77 H 0 Z"
               style="fill:#000000;fill-opacity:1;fill-rule:nonzero;stroke:none"
               id="path1127" />
          </g>
          <g
             id="g1129"
             transform="translate(766.9595,25.3726)">
            <path
               d="M 0,0 H -8.717 V 5.953 H 15.446 V 0 H 6.729 V -24.593 H 0 Z"
               style="fill:#000000;fill-opacity:1;fill-rule:nonzero;stroke:none"
               id="path1131" />
          </g>
          <g
             id="g1133"
             transform="translate(822.3604,12.5557)">
            <path
               d="m 0,0 c 0,-1.812 -0.278,-3.48 -0.826,-5.005 -0.548,-1.521 -1.356,-2.844 -2.435,-3.969 -1.079,-1.121 -2.427,-1.997 -4.036,-2.63 -1.61,-0.632 -3.464,-0.952 -5.562,-0.952 -2.132,0 -4.003,0.32 -5.612,0.952 -1.61,0.633 -2.954,1.509 -4.032,2.63 -1.079,1.125 -1.892,2.448 -2.44,3.969 -0.548,1.525 -0.817,3.193 -0.817,5.005 v 18.77 h 6.733 V 0.261 c 0,-0.952 0.151,-1.828 0.446,-2.633 0.304,-0.805 0.733,-1.504 1.273,-2.094 0.547,-0.59 1.205,-1.049 1.963,-1.378 0.767,-0.333 1.593,-0.497 2.486,-0.497 0.893,0 1.711,0.164 2.461,0.497 0.741,0.329 1.39,0.788 1.938,1.378 0.547,0.59 0.969,1.289 1.272,2.094 0.303,0.805 0.455,1.681 0.455,2.633 V 18.77 H 0 Z"
               style="fill:#000000;fill-opacity:1;fill-rule:nonzero;stroke:none"
               id="path1135" />
          </g>
          <g
             id="g1137"
             transform="translate(846.0857,18.6819)">
            <path
               d="M 0,0 H 3.969 C 4.571,0 5.212,0.021 5.886,0.067 6.564,0.11 7.175,0.24 7.723,0.455 8.267,0.67 8.722,1.007 9.08,1.47 9.442,1.93 9.619,2.574 9.619,3.409 9.619,4.188 9.463,4.803 9.147,5.267 8.827,5.726 8.427,6.076 7.938,6.324 7.449,6.564 6.889,6.733 6.257,6.817 5.621,6.906 5.005,6.948 4.399,6.948 H 0 Z M -6.733,12.644 H 5.09 c 1.554,0 3.025,-0.151 4.424,-0.455 1.394,-0.303 2.616,-0.805 3.665,-1.508 1.049,-0.708 1.884,-1.656 2.503,-2.848 0.619,-1.193 0.927,-2.684 0.927,-4.467 0,-2.157 -0.56,-3.99 -1.681,-5.502 -1.121,-1.509 -2.764,-2.465 -4.921,-2.865 l 7.769,-12.901 H 9.707 L 3.32,-5.692 H 0 v -12.21 h -6.733 z"
               style="fill:#000000;fill-opacity:1;fill-rule:nonzero;stroke:none"
               id="path1139" />
          </g>
          <g
             id="g1141"
             transform="translate(878.3597,31.3261)">
            <path
               d="M 0,0 H 20.751 V -6.215 H 6.729 v -5.696 h 13.246 v -6.211 H 6.729 v -6.214 h 14.797 v -6.211 H 0 Z"
               style="fill:#000000;fill-opacity:1;fill-rule:nonzero;stroke:none"
               id="path1143" />
          </g>
        </g>
      </g>
    </g>
  </g>
</svg>
