<?xml version="1.0" standalone="no"?>
<!DOCTYPE svg PUBLIC "-//W3C//DTD SVG 1.1//EN" "http://www.w3.org/Graphics/SVG/1.1/DTD/svg11.dtd">
<svg xmlns="http://www.w3.org/2000/svg" id="Livello_2" data-name="Livello 2" viewBox="0 0 707.47 144.74" width="707.469970703125" height="144.74000549316406">
  <defs>
    <style>
      .cls-1 {
        fill: #ba0f31;
        stroke-width: 0px;
      }
    </style>
  </defs>
  <g id="Livello_1-2" data-name="Livello 1">
    <g>
      <g>
        <path class="cls-1" d="M268.14,86.31c3.25,13.17,8.06,20.76,17.97,20.76,4.03,0,7.75-1.55,11-4.65l8.52,16.58c-8.21,6.35-13.79,9.29-24.17,9.29-15.34,0-24.63-10.38-29.43-21.22-3.56-7.9-4.8-13.63-5.42-19.05h-14.41v38.57h-23.86V18.15h48.18c10.69,0,19.21,3.41,25.41,10.22,6.04,6.97,9.14,15.34,9.14,25.41,0,15.49-8.67,28.04-22.93,32.53ZM232.2,68.81h21.22c8.52,0,13.63-6.04,13.63-15.18s-5.11-15.34-13.63-15.34h-21.22v30.52Z"/>
        <path class="cls-1" d="M301.83,72.37c0-15.34,5.58-28.5,16.58-39.5,11-11,24.17-16.42,39.81-16.42s28.81,5.42,39.81,16.42c11,11,16.42,24.17,16.42,39.5s-5.42,28.5-16.42,39.5c-11,11-24.32,16.42-39.81,16.42s-28.81-5.42-39.81-16.42c-11-11-16.58-24.17-16.58-39.5ZM325.53,72.37c0,9.76,3.25,17.97,9.6,24.32,6.35,6.35,13.94,9.61,23.08,9.61s16.73-3.25,23.08-9.61c6.35-6.35,9.45-14.56,9.45-24.32s-3.1-17.97-9.45-24.32c-6.35-6.35-13.94-9.6-23.08-9.6s-16.73,3.25-23.08,9.6c-6.35,6.35-9.6,14.56-9.6,24.32Z"/>
        <path class="cls-1" d="M439.63,92.2c2.94,9.91,9.45,14.87,19.67,14.87,9.29,0,16.27-3.56,16.27-11.15,0-4.8-3.1-8.37-12.55-11.62l-11.77-4.03c-18.43-6.35-27.57-17.04-27.57-32.22,0-9.6,3.41-17.35,10.22-23.08,6.82-5.73,15.65-8.52,26.33-8.52,16.89,0,29.9,8.21,36.25,23.7l-19.52,9.76c-3.41-8.21-8.98-12.24-16.73-12.24s-13.17,3.25-13.17,10.07c0,5.11,3.87,8.99,11.62,11.62l11.46,4.03c19.05,5.89,28.66,16.58,28.81,32.07,0,10.69-3.87,18.74-11.46,24.32-7.75,5.73-16.89,8.52-27.42,8.52s-20.29-2.94-28.19-8.68c-8.06-5.73-12.55-13.48-13.63-23.24l21.38-4.18Z"/>
        <path class="cls-1" d="M527.93,92.2c2.94,9.91,9.45,14.87,19.67,14.87,9.29,0,16.27-3.56,16.27-11.15,0-4.8-3.1-8.37-12.55-11.62l-11.77-4.03c-18.43-6.35-27.57-17.04-27.57-32.22,0-9.6,3.41-17.35,10.22-23.08,6.82-5.73,15.65-8.52,26.33-8.52,16.89,0,29.9,8.21,36.25,23.7l-19.52,9.76c-3.41-8.21-8.98-12.24-16.73-12.24s-13.17,3.25-13.17,10.07c0,5.11,3.87,8.99,11.62,11.62l11.46,4.03c19.05,5.89,28.66,16.58,28.81,32.07,0,10.69-3.87,18.74-11.46,24.32-7.75,5.73-16.89,8.52-27.42,8.52s-20.29-2.94-28.19-8.68c-8.06-5.73-12.55-13.48-13.63-23.24l21.38-4.18Z"/>
        <path class="cls-1" d="M594.85,72.37c0-15.34,5.58-28.5,16.58-39.5,11-11,24.17-16.42,39.81-16.42s28.81,5.42,39.81,16.42c11,11,16.42,24.17,16.42,39.5s-5.42,28.5-16.42,39.5c-11,11-24.32,16.42-39.81,16.42s-28.81-5.42-39.81-16.42c-11-11-16.58-24.17-16.58-39.5ZM618.56,72.37c0,9.76,3.25,17.97,9.6,24.32,6.35,6.35,13.94,9.61,23.08,9.61s16.73-3.25,23.08-9.61c6.35-6.35,9.45-14.56,9.45-24.32s-3.1-17.97-9.45-24.32c-6.35-6.35-13.94-9.6-23.08-9.6s-16.73,3.25-23.08,9.6c-6.35,6.35-9.6,14.56-9.6,24.32Z"/>
      </g>
      <path class="cls-1" d="M158.61,14.74C149.11,5.23,136.44,0,122.93,0s-26.19,5.23-35.68,14.74l-.57.57-.57-.57C76.61,5.24,63.94,0,50.42,0S24.24,5.23,14.74,14.74C5.23,24.23,0,36.91,0,50.42s5.23,26.19,14.74,35.68l49.26,49.26c6.25,6.25,14.47,9.38,22.68,9.38s16.43-3.13,22.68-9.38l49.26-49.26c9.5-9.5,14.74-22.18,14.74-35.69s-5.23-26.19-14.73-35.68ZM78.38,62.42c1.73-3.39,4.29-7.22,6.76-10.92.51-.76,1.02-1.56,1.54-2.38.52.82,1.03,1.62,1.54,2.38,2.47,3.71,5.03,7.54,6.76,10.92,1.13,2.22,1.44,4.78.86,7.2-.57,2.39-1.97,4.46-3.93,5.85-1.59,1.11-3.39,1.7-5.22,1.71-1.84,0-3.65-.59-5.23-1.71-1.97-1.39-3.37-3.46-3.93-5.85-.58-2.42-.27-4.98.86-7.2ZM144.75,72.24l-49.26,49.26c-2.36,2.36-5.49,3.65-8.82,3.65s-6.46-1.3-8.82-3.65l-49.26-49.26c-5.8-5.8-8.99-13.55-8.99-21.82s3.19-16.02,9-21.82c5.8-5.8,13.55-9,21.83-9s16.02,3.19,21.82,9l2.35,2.35c-1.72,3.12-3.85,6.82-5.76,9.67-2.78,4.17-5.66,8.49-7.91,12.9-3.25,6.37-4.13,13.7-2.47,20.65,1.68,7.04,5.84,13.2,11.73,17.34,4.9,3.44,10.6,5.27,16.51,5.27,5.89,0,11.59-1.83,16.49-5.27,5.88-4.14,10.05-10.29,11.73-17.33t0,0c1.66-6.95.78-14.28-2.47-20.65-2.25-4.4-5.13-8.72-7.92-12.9-1.9-2.85-4.04-6.54-5.77-9.66l2.36-2.36c5.8-5.8,13.55-8.99,21.82-8.99s16.02,3.19,21.83,9c5.8,5.79,8.99,13.54,8.99,21.82s-3.2,16.03-9,21.83Z"/>
    </g>
  </g>
</svg>