<?xml version="1.0" encoding="UTF-8"?>
<svg id="Layer_2" data-name="Layer 2" xmlns="http://www.w3.org/2000/svg" viewBox="0 0 93.478 19.756">
  <g id="Layer_1-2" data-name="Layer 1">
    <g>
      <g>
        <path d="M26.122,14.8c-.872,0-1.638-.173-2.298-.519-.66-.346-1.17-.872-1.529-1.577l1.461-.808c.244.474.555.808.933,1s.83.288,1.355.288c.372,0,.699-.048.981-.144.282-.096.507-.24.673-.433.166-.192.25-.423.25-.692,0-.333-.132-.583-.394-.75-.263-.166-.596-.298-1-.394-.404-.096-.84-.192-1.307-.288-.468-.096-.904-.24-1.307-.433-.404-.192-.738-.461-1-.808-.263-.346-.394-.814-.394-1.404,0-.551.151-1.041.452-1.471.301-.429.718-.769,1.25-1.019.532-.25,1.138-.375,1.817-.375.59,0,1.112.084,1.567.25.455.167.846.394,1.173.683s.593.612.798.971l-1.461.827c-.205-.41-.487-.699-.846-.865-.359-.166-.756-.25-1.192-.25-.295,0-.567.048-.817.144-.25.096-.452.234-.606.413-.154.18-.231.397-.231.654,0,.308.132.545.394.711.263.167.596.301,1,.404.404.103.84.205,1.308.308.467.103.903.247,1.307.433.404.186.737.452,1,.798.262.346.394.821.394,1.423,0,.59-.17,1.106-.51,1.548-.34.442-.795.782-1.365,1.019-.57.237-1.189.356-1.855.356Z" fill="#00162b" stroke-width="0"/>
        <path d="M36.544,14.8c-.949,0-1.801-.214-2.557-.644-.756-.429-1.353-1.019-1.788-1.769-.436-.75-.654-1.606-.654-2.567,0-.897.199-1.721.596-2.471.397-.75.955-1.346,1.673-1.788.718-.442,1.551-.663,2.5-.663s1.766.209,2.452.625c.685.417,1.218.981,1.596,1.692.378.711.567,1.503.567,2.375v.769h-7.903l.346-.769c-.039.667.07,1.263.327,1.788.256.526.628.945,1.115,1.26.487.314,1.058.471,1.711.471.59,0,1.125-.128,1.606-.385.48-.256.862-.641,1.144-1.154l1.462.75c-.41.808-.981,1.423-1.711,1.846s-1.557.634-2.48.634ZM33.467,9.128h5.557c-.026-.5-.157-.942-.394-1.327-.237-.384-.558-.679-.961-.884-.404-.205-.862-.308-1.375-.308-.526,0-.99.109-1.394.327-.404.218-.724.519-.961.904-.237.384-.394.814-.471,1.288Z" fill="#00162b" stroke-width="0"/>
        <path d="M47.331,14.82c-.91,0-1.721-.224-2.432-.673s-1.272-1.048-1.683-1.798c-.41-.75-.615-1.58-.615-2.49,0-.897.221-1.721.663-2.471s1.041-1.346,1.798-1.788c.756-.442,1.609-.663,2.557-.663s1.801.215,2.557.644c.756.43,1.355,1.016,1.798,1.759.442.744.664,1.583.664,2.519v4.73h-1.808v-3.519l.653-.5c0,.795-.176,1.513-.529,2.154-.353.641-.84,1.151-1.462,1.529s-1.343.567-2.163.567ZM47.619,13.012c.59,0,1.121-.141,1.596-.423.474-.282.846-.663,1.115-1.144.269-.481.404-1.003.404-1.567,0-.577-.135-1.102-.404-1.577-.269-.474-.641-.856-1.115-1.144-.475-.288-1.006-.433-1.596-.433s-1.119.144-1.586.433-.84.67-1.115,1.144c-.276.474-.413,1-.413,1.577,0,.564.138,1.086.413,1.567.276.481.647.862,1.115,1.144.468.282.997.423,1.586.423Z" fill="#00162b" stroke-width="0"/>
        <path d="M59.695,14.8c-.667.013-1.301-.109-1.904-.365s-1.128-.612-1.577-1.067c-.449-.455-.801-.984-1.058-1.586-.257-.602-.385-1.243-.385-1.923s.128-1.317.385-1.913c.256-.596.609-1.122,1.058-1.577.449-.455.974-.808,1.577-1.058s1.237-.375,1.904-.375c.871,0,1.679.199,2.423.596.743.398,1.333,1.026,1.769,1.884l-1.577.884c-.282-.525-.651-.916-1.106-1.173-.455-.256-.959-.385-1.51-.385s-1.054.141-1.51.423c-.455.282-.82.66-1.096,1.134-.276.474-.413.994-.413,1.558,0,.577.138,1.103.413,1.577.276.474.641.856,1.096,1.144.455.288.958.433,1.51.433s1.054-.131,1.51-.394c.455-.263.823-.651,1.106-1.163l1.577.865c-.436.846-1.026,1.471-1.769,1.875-.744.404-1.551.606-2.423.606Z" fill="#00162b" stroke-width="0"/>
        <path d="M70.27,14.82c-.949,0-1.801-.224-2.558-.673s-1.359-1.048-1.807-1.798c-.449-.75-.673-1.58-.673-2.49s.224-1.737.673-2.481c.449-.743,1.051-1.336,1.807-1.779s1.609-.663,2.558-.663,1.801.221,2.557.663,1.352,1.038,1.788,1.788c.435.75.654,1.574.654,2.471,0,.91-.218,1.74-.654,2.49-.436.75-1.035,1.349-1.798,1.798-.763.449-1.613.673-2.548.673ZM70.27,13.012c.589,0,1.118-.141,1.586-.423.468-.282.836-.663,1.106-1.144.269-.481.404-1.003.404-1.567,0-.577-.135-1.102-.404-1.577-.269-.474-.638-.856-1.106-1.144s-.997-.433-1.586-.433-1.119.144-1.586.433-.843.67-1.125,1.144c-.282.474-.423,1-.423,1.577,0,.564.141,1.086.423,1.567.282.481.657.862,1.125,1.144.468.282.996.423,1.586.423Z" fill="#00162b" stroke-width="0"/>
        <path d="M89.094,4.898c.949,0,1.746.211,2.394.634.647.423,1.141.994,1.48,1.711.34.718.51,1.513.51,2.384v4.961h-1.904v-4.653c0-.577-.093-1.109-.279-1.596-.186-.487-.475-.878-.865-1.173-.391-.295-.882-.442-1.471-.442-.564,0-1.039.144-1.423.433-.385.288-.673.673-.866,1.154-.192.481-.288,1.01-.288,1.586v4.692h-1.904v-4.692c0-.577-.093-1.106-.279-1.586-.186-.481-.475-.865-.866-1.154s-.881-.433-1.471-.433-1.074.148-1.452.442c-.378.295-.657.686-.836,1.173-.18.487-.269,1.019-.269,1.596v4.653h-1.903v-4.942c0-.884.163-1.685.49-2.404.327-.718.814-1.288,1.461-1.711s1.439-.634,2.375-.634c.795,0,1.484.154,2.067.461s1.039.731,1.365,1.269.497,1.16.51,1.865h-.423c.026-.705.202-1.327.529-1.865s.775-.961,1.346-1.269c.57-.308,1.227-.461,1.971-.461Z" fill="#00162b" stroke-width="0"/>
      </g>
      <g>
        <g>
          <path d="M14.061,15.33c.724-.638,1.213-1.353,1.455-2.125.001-.007.003-.015.005-.021.106-.343.16-.698.16-1.057,0-1.566-1.021-2.982-2.659-3.968.888.791,1.411,1.778,1.411,2.849,0,.841-.33,1.666-.953,2.386-.003.003-.006.007-.009.01,0,0,0,0,0,0-1.243,1.421-3.444,2.285-5.891,2.311-.031.002-.075.002-.119.002-.042,0-.081,0-.123-.002h-2.843l-1.551,1.799h4.662c2.562-.027,4.916-.823,6.456-2.184Z" fill="#1a80ad" stroke-width="0"/>
          <path d="M7.577,15.275c2.29-.025,4.424-.855,5.567-2.166.003-.003.006-.007.009-.01.55-.637.841-1.36.841-2.092,0-1.291-.869-2.448-2.253-3.23.636.593,1.01,1.323,1.01,2.11,0,1.886-2.167,3.459-4.933,3.581-.027.002-.061.005-.095.005-.084.002-.172.004-.262.004s-.178-.002-.267-.005h-.765l-1.553,1.802h2.703Z" fill="#48d3cf" stroke-width="0"/>
          <path d="M14.874,17.558c.86-.637,1.512-1.366,1.939-2.166.367-.688.553-1.408.553-2.138,0-1.678-.969-3.269-2.729-4.486-.115-.08-.233-.157-.354-.233,1.154.992,1.838,2.24,1.838,3.593,0,.397-.059.79-.174,1.17-.001.008-.003.015-.005.021-.264.857-.799,1.645-1.589,2.342-1.618,1.43-4.076,2.266-6.745,2.294-.044.002-.096.002-.148.002s-.103,0-.155-.002H2.564s-1.553,1.802-1.553,1.802h6.449c2.83,0,5.533-.801,7.414-2.198Z" fill="#242d64" stroke-width="0"/>
        </g>
        <g>
          <path d="M3.305,4.426c-.724.638-1.213,1.353-1.455,2.125-.001.007-.003.015-.005.021-.106.343-.16.698-.16,1.057,0,1.566,1.021,2.982,2.659,3.968-.888-.791-1.411-1.778-1.411-2.849,0-.841.33-1.666.953-2.386.003-.003.006-.007.009-.01,0,0,0,0,0,0,1.243-1.421,3.444-2.285,5.891-2.311.031-.002.075-.002.119-.002.042,0,.081,0,.123.002h2.843l1.551-1.799h-4.662c-2.562.027-4.916.823-6.456,2.184Z" fill="#1a80ad" stroke-width="0"/>
          <path d="M9.789,4.481c-2.29.025-4.424.855-5.567,2.166-.003.003-.006.007-.009.01-.55.637-.841,1.36-.841,2.092,0,1.291.869,2.448,2.253,3.23-.636-.593-1.01-1.323-1.01-2.11,0-1.886,2.167-3.459,4.933-3.581.027-.002.061-.005.095-.005.084-.002.172-.004.262-.004s.178.002.267.005h.765l1.553-1.802h-2.703Z" fill="#48d3cf" stroke-width="0"/>
          <path d="M2.491,2.198c-.86.637-1.512,1.366-1.939,2.166-.367.688-.553,1.408-.553,2.138,0,1.678.969,3.269,2.729,4.486.115.08.233.157.354.233-1.154-.992-1.838-2.24-1.838-3.593,0-.397.059-.79.174-1.17.001-.008.003-.015.005-.021.264-.857.799-1.645,1.589-2.342,1.618-1.43,4.076-2.266,6.745-2.294.044-.002.096-.002.148-.002s.103,0,.155.002h4.741s1.553-1.802,1.553-1.802h-6.449c-2.83,0-5.533.801-7.414,2.198Z" fill="#242d64" stroke-width="0"/>
        </g>
      </g>
    </g>
  </g>
</svg>