<?xml version="1.0" encoding="UTF-8" standalone="no"?>
<!-- Created with Inkscape (http://www.inkscape.org/) -->

<svg
   width="285.284mm"
   height="46.330002mm"
   viewBox="0 0 285.284 46.330002"
   version="1.1"
   id="svg5"
   inkscape:version="1.1.2 (b8e25be833, 2022-02-05)"
   sodipodi:docname="wondersys.svg"
   xmlns:inkscape="http://www.inkscape.org/namespaces/inkscape"
   xmlns:sodipodi="http://sodipodi.sourceforge.net/DTD/sodipodi-0.dtd"
   xmlns="http://www.w3.org/2000/svg"
   xmlns:svg="http://www.w3.org/2000/svg">
  <sodipodi:namedview
     id="namedview7"
     pagecolor="#ffffff"
     bordercolor="#666666"
     borderopacity="1.0"
     inkscape:pageshadow="2"
     inkscape:pageopacity="0.0"
     inkscape:pagecheckerboard="0"
     inkscape:document-units="mm"
     showgrid="false"
     inkscape:zoom="0.55143799"
     inkscape:cx="389.88971"
     inkscape:cy="271.10936"
     inkscape:window-width="1536"
     inkscape:window-height="890"
     inkscape:window-x="-6"
     inkscape:window-y="-6"
     inkscape:window-maximized="1"
     inkscape:current-layer="layer1" />
  <defs
     id="defs2">
    <clipPath
       clipPathUnits="userSpaceOnUse"
       id="clipPath838">
      <path
         d="M 0,157.194 H 847.057 V 0 H 0 Z"
         id="path836" />
    </clipPath>
  </defs>
  <g
     inkscape:label="Livello 1"
     inkscape:groupmode="layer"
     id="layer1">
    <g
       id="g834"
       clip-path="url(#clipPath838)"
       transform="matrix(0.35277777,0,0,-0.35277777,-5.9773607,50.892095)">
      <g
         id="g840"
         transform="translate(157.5757,112.0604)">
        <path
           d="m 0,0 c -3.572,-10.472 -5.257,-23.374 -7.171,-37.271 -1.67,-12.135 -3.398,-24.683 -6.229,-33.463 -2.077,-6.443 -4.342,-9.203 -5.542,-9.38 -2.128,-0.315 -3.148,1.339 -4.272,5.096 -1.8,6.021 -3.548,14.547 -5.218,22.833 -1.852,9.186 -3.766,18.685 -6.925,26.216 -3.237,7.72 -9.535,16.925 -21.175,16.941 -11.615,-0.016 -17.912,-9.221 -21.15,-16.941 -3.159,-7.531 -5.073,-17.03 -6.924,-26.216 -1.67,-8.286 -3.156,-16.345 -5.126,-22.662 -0.447,-1.434 -1.557,-3.164 -2.634,-4.282 -1.999,-2.075 -3.868,0.242 -4.855,1.941 -2.76,4.754 -3.619,10.298 -5.041,15.531 -1.568,5.766 -3.203,11.524 -4.984,17.227 -1.475,4.726 -3.679,9.548 -7.464,12.873 -2.751,2.417 -6.214,3.712 -9.876,3.712 v 0.007 c -4.716,0.172 -10.085,-0.226 -16.046,-4.042 v -19.579 c 3.367,2.452 6.639,3.392 9.855,3.768 4.482,0.2 6.191,-5.279 6.191,-5.279 0.818,-1.907 1.291,-4.642 1.799,-6.426 0.533,-1.869 0.864,-3.262 1.433,-5.121 3.9,-12.742 7.176,-30.124 22.324,-33.996 1.604,-0.41 3.257,-0.613 4.912,-0.615 h 0.025 c 11.632,0 17.942,9.206 21.187,16.931 3.167,7.542 5.084,17.055 6.939,26.256 1.667,8.274 3.392,16.831 5.819,22.619 1.454,3.465 1.655,4.516 3.736,4.542 1.594,0.021 2.175,-0.908 3.521,-4.542 2.18,-5.886 4.152,-14.345 5.82,-22.619 1.854,-9.201 3.771,-18.714 6.939,-26.256 3.245,-7.726 9.553,-16.931 21.187,-16.931 h 0.024 c 10.849,0.012 18.795,7.602 23.617,22.559 3.343,10.368 5.648,23.701 6.969,36.704 0.393,3.87 0.499,6.058 0.909,9.532 C 9.734,-28.255 -1.844,-18.61 0,0"
           style="fill:#636569;fill-opacity:1;fill-rule:nonzero;stroke:none"
           id="path842" />
      </g>
      <g
         id="g844"
         transform="translate(171.3903,86.98)">
        <path
           d="m 0,0 0.001,-0.002 c 0,0 0,0.001 0,0.001 C 0.001,0 0.001,0 0,0 Z"
           style="fill:#ffffff;fill-opacity:1;fill-rule:nonzero;stroke:none"
           id="path846" />
      </g>
      <g
         id="g848"
         transform="translate(182.4038,117.9563)">
        <path
           d="m 0,0 c 1.777,2.714 4.384,4.893 7.401,6.015 11.032,4.105 20.351,-8.799 20.742,-9.35 L 36.1,2.238 28.112,-3.29 36.1,2.238 44.089,7.765 C 43.641,8.413 39.509,14.239 32.608,19.159 22.381,26.453 11.322,28.203 0.626,24.225 -9.455,20.474 -17.332,12.067 -20.443,1.734 c -3.291,-10.928 -0.879,-22.281 6.619,-31.149 0.679,-0.803 1.393,-1.556 2.12,-2.286 0.882,6.572 3.585,19.876 11.689,31.723 z"
           style="fill:#006548;fill-opacity:1;fill-rule:nonzero;stroke:none"
           id="path850" />
      </g>
      <g
         id="g852"
         transform="translate(226.5224,71.6709)">
        <path
           d="m 0,0 c -6.232,10.965 -15.99,15.006 -24.601,18.571 l -1.296,0.538 c -7.428,3.093 -13.411,5.815 -17.209,10.307 -1.115,1.319 -2.243,3.06 -2.899,5.18 -2.471,-5.389 -5.269,-13.313 -6.359,-23.11 6.246,-4.997 13.406,-7.985 18.999,-10.313 l 1.331,-0.553 c 7.796,-3.228 12.343,-5.294 15.142,-10.22 2.433,-4.28 2.95,-9.594 1.419,-14.58 -1.554,-5.06 -5.015,-9.23 -9.498,-11.441 -7.886,-3.89 -18.725,-4.636 -30.524,-2.104 -1.599,0.344 -3.201,0.757 -4.771,1.22 -2.845,-10.132 -6.835,-15.443 -8.647,-17.656 2.019,-0.814 7.169,-2.094 9.339,-2.56 4.978,-1.069 10.983,-1.927 17.432,-1.927 8.27,0 17.27,1.412 25.765,5.602 9.261,4.567 16.36,13.01 19.477,23.163 C 6.195,-19.804 5.065,-8.912 0,0"
           style="fill:#00945e;fill-opacity:1;fill-rule:nonzero;stroke:none"
           id="path854" />
      </g>
      <g
         id="g856"
         transform="translate(805.0394,121.9586)">
        <path
           d="m 0,0 h 5.361 v -24.33 h 15.093 v -4.537 H 0 Z"
           style="fill:#00945e;fill-opacity:1;fill-rule:nonzero;stroke:none"
           id="path858" />
      </g>
      <g
         id="g860"
         transform="translate(303.1251,121.9586)">
        <path
           d="m 0,0 -9.568,-28.867 h -5.691 l -7.134,21.362 -7.258,-21.362 h -5.732 L -44.951,0 h 5.567 L -32.209,-21.938 -24.743,0 h 4.947 l 7.3,-22.063 L -5.115,0 Z"
           style="fill:#00945e;fill-opacity:1;fill-rule:nonzero;stroke:none"
           id="path862" />
      </g>
      <g
         id="g864"
         transform="translate(341.9294,98.6801)">
        <path
           d="m 0,0 c 1.539,0.865 2.75,2.074 3.629,3.629 0.88,1.552 1.32,3.292 1.32,5.216 0,1.924 -0.44,3.664 -1.32,5.217 -0.879,1.552 -2.09,2.763 -3.629,3.63 -1.539,0.865 -3.271,1.297 -5.195,1.297 -1.925,0 -3.658,-0.432 -5.197,-1.297 -1.539,-0.867 -2.749,-2.078 -3.629,-3.63 -0.88,-1.553 -1.319,-3.293 -1.319,-5.217 0,-1.924 0.439,-3.664 1.319,-5.216 0.88,-1.555 2.09,-2.764 3.629,-3.629 1.539,-0.867 3.272,-1.299 5.197,-1.299 1.924,0 3.656,0.432 5.195,1.299 m -13.155,-4.084 c -2.365,1.279 -4.219,3.053 -5.568,5.32 -1.346,2.269 -2.02,4.805 -2.02,7.609 0,2.804 0.674,5.341 2.02,7.609 1.349,2.269 3.203,4.041 5.568,5.32 2.365,1.279 5.017,1.917 7.96,1.917 2.941,0 5.594,-0.638 7.959,-1.917 2.363,-1.279 4.22,-3.045 5.566,-5.299 1.347,-2.255 2.021,-4.798 2.021,-7.63 C 10.351,6.013 9.677,3.47 8.33,1.216 6.984,-1.039 5.127,-2.805 2.764,-4.084 0.399,-5.361 -2.254,-6 -5.195,-6 c -2.943,0 -5.595,0.639 -7.96,1.916"
           style="fill:#00945e;fill-opacity:1;fill-rule:nonzero;stroke:none"
           id="path866" />
      </g>
      <g
         id="g868"
         transform="translate(399.6646,121.9586)">
        <path
           d="M 0,0 V -28.867 H -4.412 L -20.331,-9.32 V -28.867 H -25.65 V 0 h 4.413 L -5.32,-19.547 V 0 Z"
           style="fill:#00945e;fill-opacity:1;fill-rule:nonzero;stroke:none"
           id="path870" />
      </g>
      <g
         id="g872"
         transform="translate(435.831,97.6288)">
        <path
           d="m 0,0 c 2.115,0 3.978,0.404 5.587,1.216 1.608,0.811 2.846,1.965 3.711,3.465 0.867,1.498 1.299,3.236 1.299,5.215 0,1.98 -0.432,3.718 -1.299,5.218 C 8.433,16.612 7.195,17.766 5.587,18.577 3.978,19.389 2.115,19.794 0,19.794 H -7.011 V 0 Z M -12.372,24.33 H 0.246 c 3.08,0 5.816,-0.598 8.208,-1.793 2.391,-1.197 4.246,-2.888 5.566,-5.073 1.32,-2.186 1.979,-4.709 1.979,-7.568 C 15.999,7.038 15.34,4.515 14.02,2.33 12.7,0.144 10.845,-1.547 8.454,-2.744 6.062,-3.939 3.326,-4.537 0.246,-4.537 h -12.618 z"
           style="fill:#00945e;fill-opacity:1;fill-rule:nonzero;stroke:none"
           id="path874" />
      </g>
      <g
         id="g876"
         transform="translate(495.2143,97.5862)">
        <path
           d="m 0,0 v -4.494 h -21.649 v 28.866 h 21.071 v -4.494 h -15.71 V 12.372 H -2.351 V 7.959 H -16.288 V 0 Z"
           style="fill:#00945e;fill-opacity:1;fill-rule:nonzero;stroke:none"
           id="path878" />
      </g>
      <g
         id="g880"
         transform="translate(534.1844,115.9377)">
        <path
           d="m 0,0 c -1.209,0.99 -2.984,1.485 -5.32,1.485 h -6.267 v -11.506 h 6.267 c 2.336,0 4.111,0.502 5.32,1.506 1.209,1.002 1.815,2.426 1.815,4.268 C 1.815,-2.406 1.209,-0.99 0,0 m 1.939,-22.846 -5.898,8.454 c -0.246,-0.027 -0.617,-0.041 -1.113,-0.041 h -6.515 v -8.413 h -5.361 V 6.021 h 11.876 c 2.502,0 4.681,-0.412 6.537,-1.236 1.855,-0.826 3.277,-2.008 4.267,-3.547 0.99,-1.541 1.486,-3.369 1.486,-5.485 0,-2.172 -0.531,-4.042 -1.589,-5.608 -1.059,-1.568 -2.577,-2.736 -4.557,-3.507 l 6.64,-9.484 z"
           style="fill:#00945e;fill-opacity:1;fill-rule:nonzero;stroke:none"
           id="path882" />
      </g>
      <g
         id="g884"
         transform="translate(565.918,93.6285)">
        <path
           d="m 0,0 c -2.076,0.631 -3.719,1.47 -4.929,2.515 l 1.857,4.166 C -1.891,5.745 -0.44,4.982 1.279,4.392 2.996,3.8 4.722,3.505 6.453,3.505 c 2.146,0 3.747,0.344 4.806,1.03 1.057,0.687 1.586,1.595 1.586,2.722 0,0.826 -0.295,1.506 -0.885,2.041 -0.592,0.537 -1.341,0.955 -2.248,1.258 C 8.804,10.859 7.568,11.202 6,11.587 3.8,12.11 2.021,12.632 0.66,13.155 c -1.361,0.522 -2.529,1.34 -3.505,2.453 -0.977,1.114 -1.465,2.619 -1.465,4.516 0,1.595 0.433,3.044 1.3,4.351 0.866,1.306 2.172,2.343 3.918,3.113 1.744,0.769 3.882,1.154 6.412,1.154 1.759,0 3.49,-0.219 5.195,-0.66 1.705,-0.439 3.177,-1.072 4.414,-1.896 L 15.238,22.02 c -1.266,0.744 -2.585,1.306 -3.959,1.691 -1.375,0.385 -2.709,0.578 -4,0.578 -2.118,0 -3.691,-0.357 -4.722,-1.072 C 1.526,22.502 1.01,21.553 1.01,20.371 c 0,-0.824 0.295,-1.498 0.888,-2.021 0.59,-0.523 1.34,-0.935 2.246,-1.236 0.908,-0.303 2.145,-0.647 3.711,-1.031 2.146,-0.496 3.904,-1.01 5.279,-1.547 1.375,-0.537 2.55,-1.354 3.527,-2.453 0.975,-1.1 1.463,-2.586 1.463,-4.455 0,-1.594 -0.432,-3.037 -1.299,-4.33 C 15.96,2.006 14.646,0.976 12.888,0.205 11.128,-0.564 8.982,-0.949 6.453,-0.949 4.228,-0.949 2.076,-0.633 0,0"
           style="fill:#00945e;fill-opacity:1;fill-rule:nonzero;stroke:none"
           id="path886" />
      </g>
      <g
         id="g888"
         transform="translate(617.2393,103.2771)">
        <path
           d="m 0,0 v -10.185 h -5.361 v 10.103 l -11.341,18.764 h 5.732 L -2.516,4.619 6.021,18.682 H 11.3 Z"
           style="fill:#00945e;fill-opacity:1;fill-rule:nonzero;stroke:none"
           id="path890" />
      </g>
      <g
         id="g892"
         transform="translate(649.9611,93.6285)">
        <path
           d="m 0,0 c -2.076,0.631 -3.719,1.47 -4.929,2.515 l 1.857,4.166 C -1.891,5.745 -0.44,4.982 1.279,4.392 2.996,3.8 4.722,3.505 6.453,3.505 c 2.146,0 3.747,0.344 4.806,1.03 1.057,0.687 1.586,1.595 1.586,2.722 0,0.826 -0.295,1.506 -0.885,2.041 -0.592,0.537 -1.341,0.955 -2.248,1.258 C 8.804,10.859 7.568,11.202 6,11.587 3.8,12.11 2.021,12.632 0.66,13.155 c -1.361,0.522 -2.529,1.34 -3.505,2.453 -0.977,1.114 -1.465,2.619 -1.465,4.516 0,1.595 0.433,3.044 1.3,4.351 0.866,1.306 2.172,2.343 3.918,3.113 1.744,0.769 3.882,1.154 6.412,1.154 1.759,0 3.49,-0.219 5.195,-0.66 1.705,-0.439 3.177,-1.072 4.414,-1.896 l -1.69,-4.166 c -1.267,0.744 -2.586,1.306 -3.96,1.691 -1.375,0.385 -2.709,0.578 -4,0.578 -2.118,0 -3.691,-0.357 -4.722,-1.072 C 1.526,22.502 1.01,21.553 1.01,20.371 c 0,-0.824 0.295,-1.498 0.888,-2.021 0.59,-0.523 1.34,-0.935 2.246,-1.236 0.908,-0.303 2.145,-0.647 3.711,-1.031 2.146,-0.496 3.904,-1.01 5.279,-1.547 1.375,-0.537 2.55,-1.354 3.527,-2.453 0.975,-1.1 1.463,-2.586 1.463,-4.455 0,-1.594 -0.432,-3.037 -1.299,-4.33 C 15.96,2.006 14.646,0.976 12.888,0.205 11.128,-0.564 8.982,-0.949 6.453,-0.949 4.228,-0.949 2.076,-0.633 0,0"
           style="fill:#00945e;fill-opacity:1;fill-rule:nonzero;stroke:none"
           id="path894" />
      </g>
      <g
         id="g896"
         transform="translate(719.3655,93.6285)">
        <path
           d="m 0,0 c -2.076,0.631 -3.719,1.47 -4.928,2.515 l 1.856,4.166 C -1.891,5.745 -0.44,4.982 1.279,4.392 2.996,3.8 4.722,3.505 6.453,3.505 c 2.146,0 3.747,0.344 4.806,1.03 1.057,0.687 1.586,1.595 1.586,2.722 0,0.826 -0.295,1.506 -0.885,2.041 -0.592,0.537 -1.341,0.955 -2.248,1.258 C 8.804,10.859 7.568,11.202 6,11.587 3.8,12.11 2.021,12.632 0.66,13.155 c -1.361,0.522 -2.529,1.34 -3.505,2.453 -0.977,1.114 -1.465,2.619 -1.465,4.516 0,1.595 0.433,3.044 1.3,4.351 0.866,1.306 2.172,2.343 3.918,3.113 1.744,0.769 3.882,1.154 6.412,1.154 1.759,0 3.49,-0.219 5.195,-0.66 1.705,-0.439 3.177,-1.072 4.414,-1.896 l -1.69,-4.166 c -1.267,0.744 -2.586,1.306 -3.96,1.691 -1.375,0.385 -2.709,0.578 -4,0.578 -2.118,0 -3.691,-0.357 -4.722,-1.072 -1.03,-0.715 -1.547,-1.664 -1.547,-2.846 0,-0.824 0.296,-1.498 0.888,-2.021 0.59,-0.523 1.34,-0.935 2.246,-1.236 0.908,-0.303 2.145,-0.647 3.711,-1.031 2.146,-0.496 3.904,-1.01 5.279,-1.547 1.375,-0.537 2.55,-1.354 3.527,-2.453 0.975,-1.1 1.463,-2.586 1.463,-4.455 0,-1.594 -0.432,-3.037 -1.299,-4.33 C 15.96,2.006 14.647,0.976 12.888,0.205 11.128,-0.564 8.982,-0.949 6.453,-0.949 4.228,-0.949 2.076,-0.633 0,0"
           style="fill:#00945e;fill-opacity:1;fill-rule:nonzero;stroke:none"
           id="path898" />
      </g>
      <g
         id="g900"
         transform="translate(775.8016,115.9377)">
        <path
           d="m 0,0 c -1.209,0.99 -2.984,1.485 -5.32,1.485 h -6.267 v -11.506 h 6.267 c 2.336,0 4.111,0.502 5.32,1.506 1.209,1.002 1.815,2.426 1.815,4.268 C 1.815,-2.406 1.209,-0.99 0,0 m 1.939,-22.846 -5.898,8.454 c -0.246,-0.027 -0.617,-0.041 -1.113,-0.041 h -6.515 v -8.413 h -5.361 V 6.021 h 11.876 c 2.502,0 4.681,-0.412 6.537,-1.236 1.855,-0.826 3.277,-2.008 4.267,-3.547 0.99,-1.541 1.485,-3.369 1.485,-5.485 0,-2.172 -0.53,-4.042 -1.588,-5.608 -1.059,-1.568 -2.577,-2.736 -4.557,-3.507 l 6.64,-9.484 z"
           style="fill:#00945e;fill-opacity:1;fill-rule:nonzero;stroke:none"
           id="path902" />
      </g>
      <g
         id="g904"
         transform="translate(400.9015,53.2898)">
        <path
           d="m 0,0 -5.872,-18.105 h -5.483 l -3.467,11.019 -3.62,-11.019 h -5.484 L -29.797,0 h 5.276 L -20.873,-11.562 -17.046,0 h 4.707 L -8.692,-11.665 -4.889,0 Z"
           style="fill:#636569;fill-opacity:1;fill-rule:nonzero;stroke:none"
           id="path906" />
      </g>
      <g
         id="g908"
         transform="translate(417.7375,39.7104)">
        <path
           d="M 0,0 C 0.742,0.431 1.328,1.039 1.759,1.823 2.19,2.608 2.406,3.509 2.406,4.526 2.406,5.544 2.19,6.444 1.759,7.23 1.328,8.013 0.742,8.621 0,9.053 -0.74,9.483 -1.569,9.699 -2.483,9.699 -3.397,9.699 -4.224,9.483 -4.965,9.053 -5.707,8.621 -6.294,8.013 -6.725,7.23 -7.156,6.444 -7.371,5.544 -7.371,4.526 c 0,-1.017 0.215,-1.918 0.646,-2.703 0.431,-0.784 1.018,-1.392 1.76,-1.823 0.741,-0.431 1.568,-0.646 2.482,-0.646 0.914,0 1.743,0.215 2.483,0.646 m -7.642,-3.672 c -1.527,0.81 -2.725,1.931 -3.596,3.363 -0.87,1.43 -1.306,3.042 -1.306,4.835 0,1.793 0.436,3.405 1.306,4.837 0.871,1.432 2.069,2.552 3.596,3.362 1.525,0.81 3.246,1.216 5.159,1.216 1.915,0 3.634,-0.406 5.16,-1.216 1.527,-0.81 2.725,-1.93 3.595,-3.362 C 7.143,7.931 7.579,6.319 7.579,4.526 7.579,2.733 7.143,1.121 6.272,-0.309 5.402,-1.741 4.204,-2.862 2.677,-3.672 c -1.526,-0.811 -3.245,-1.215 -5.16,-1.215 -1.913,0 -3.634,0.404 -5.159,1.215"
           style="fill:#636569;fill-opacity:1;fill-rule:nonzero;stroke:none"
           id="path910" />
      </g>
      <g
         id="g912"
         transform="translate(448.8539,53.2898)">
        <path
           d="m 0,0 v -18.105 h -4.217 l -7.992,9.647 v -9.647 h -5.017 V 0 h 4.215 l 7.993,-9.647 V 0 Z"
           style="fill:#636569;fill-opacity:1;fill-rule:nonzero;stroke:none"
           id="path914" />
      </g>
      <g
         id="g916"
         transform="translate(464.4492,39.2716)">
        <path
           d="m 0,0 c 1.552,0 2.797,0.439 3.737,1.318 0.94,0.879 1.409,2.095 1.409,3.647 0,1.552 -0.469,2.767 -1.409,3.648 C 2.797,9.492 1.552,9.931 0,9.931 H -3.233 V 0 Z m -8.354,14.018 h 8.561 c 1.983,0 3.741,-0.371 5.276,-1.113 C 7.017,12.165 8.207,11.112 9.052,9.75 9.896,8.387 10.319,6.793 10.319,4.965 10.319,3.138 9.896,1.542 9.052,0.18 8.207,-1.182 7.017,-2.234 5.483,-2.974 3.948,-3.716 2.19,-4.087 0.207,-4.087 h -8.561 z"
           style="fill:#636569;fill-opacity:1;fill-rule:nonzero;stroke:none"
           id="path918" />
      </g>
      <g
         id="g920"
         transform="translate(495.6161,39.1421)">
        <path
           d="m 0,0 v -3.958 h -14.536 v 18.106 h 14.2 V 10.19 H -9.467 V 7.139 h 8.045 V 3.31 H -9.467 V 0 Z"
           style="fill:#636569;fill-opacity:1;fill-rule:nonzero;stroke:none"
           id="path922" />
      </g>
      <g
         id="g924"
         transform="translate(512.4269,48.5571)">
        <path
           d="m 0,0 c -0.534,0.464 -1.328,0.698 -2.379,0.698 h -2.845 v -5.303 h 2.845 c 1.051,0 1.845,0.229 2.379,0.685 0.535,0.458 0.802,1.108 0.802,1.953 C 0.802,-1.122 0.535,-0.466 0,0 m -2.431,-8.562 h -2.793 v -4.811 h -5.121 V 4.733 h 8.277 c 1.637,0 3.059,-0.272 4.267,-0.815 C 3.407,3.375 4.336,2.598 4.993,1.59 5.648,0.581 5.975,-0.605 5.975,-1.967 5.975,-3.277 5.669,-4.42 5.058,-5.394 4.445,-6.368 3.569,-7.131 2.433,-7.683 l 3.905,-5.69 H 0.854 Z"
           style="fill:#636569;fill-opacity:1;fill-rule:nonzero;stroke:none"
           id="path926" />
      </g>
      <g
         id="g928"
         transform="translate(526.9361,35.366)">
        <path
           d="m 0,0 c -1.38,0.362 -2.501,0.845 -3.362,1.448 l 1.681,3.776 C -0.871,4.69 0.069,4.258 1.138,3.931 2.207,3.602 3.258,3.44 4.294,3.44 c 1.965,0 2.949,0.491 2.949,1.474 0,0.516 -0.281,0.9 -0.842,1.151 C 5.841,6.315 4.94,6.578 3.699,6.853 2.336,7.146 1.198,7.461 0.284,7.797 -0.63,8.133 -1.414,8.673 -2.07,9.413 c -0.655,0.742 -0.981,1.743 -0.981,3.001 0,1.104 0.301,2.1 0.904,2.987 0.603,0.889 1.505,1.591 2.703,2.109 1.198,0.516 2.668,0.775 4.41,0.775 1.189,0 2.362,-0.134 3.518,-0.401 1.155,-0.266 2.172,-0.66 3.051,-1.176 L 9.958,12.905 C 8.233,13.837 6.561,14.302 4.94,14.302 3.923,14.302 3.181,14.151 2.715,13.849 2.25,13.548 2.018,13.156 2.018,12.673 2.018,12.19 2.294,11.829 2.845,11.587 3.397,11.346 4.284,11.095 5.509,10.837 6.889,10.544 8.031,10.23 8.937,9.893 9.841,9.557 10.626,9.022 11.29,8.289 11.953,7.555 12.285,6.561 12.285,5.301 12.285,4.215 11.983,3.233 11.38,2.354 10.776,1.474 9.871,0.77 8.665,0.245 7.457,-0.281 5.991,-0.543 4.267,-0.543 2.802,-0.543 1.38,-0.363 0,0"
           style="fill:#636569;fill-opacity:1;fill-rule:nonzero;stroke:none"
           id="path930" />
      </g>
      <g
         id="g932"
         transform="translate(554.5085,41.6758)">
        <path
           d="m 0,0 v -6.491 h -5.121 v 6.57 l -6.907,11.535 h 5.407 l 4.293,-7.191 4.293,7.191 h 4.967 z"
           style="fill:#636569;fill-opacity:1;fill-rule:nonzero;stroke:none"
           id="path934" />
      </g>
      <g
         id="g936"
         transform="translate(568.061,35.366)">
        <path
           d="m 0,0 c -1.38,0.362 -2.501,0.845 -3.362,1.448 l 1.681,3.776 C -0.871,4.69 0.069,4.258 1.138,3.931 2.207,3.602 3.258,3.44 4.294,3.44 c 1.965,0 2.949,0.491 2.949,1.474 0,0.516 -0.281,0.9 -0.842,1.151 C 5.841,6.315 4.94,6.578 3.699,6.853 2.336,7.146 1.198,7.461 0.284,7.797 -0.63,8.133 -1.414,8.673 -2.07,9.413 c -0.655,0.742 -0.981,1.743 -0.981,3.001 0,1.104 0.301,2.1 0.904,2.987 0.603,0.889 1.505,1.591 2.703,2.109 1.198,0.516 2.668,0.775 4.41,0.775 1.189,0 2.362,-0.134 3.518,-0.401 1.155,-0.266 2.172,-0.66 3.051,-1.176 L 9.958,12.905 C 8.233,13.837 6.561,14.302 4.94,14.302 3.923,14.302 3.181,14.151 2.715,13.849 2.25,13.548 2.018,13.156 2.018,12.673 2.018,12.19 2.294,11.829 2.845,11.587 3.397,11.346 4.284,11.095 5.509,10.837 6.889,10.544 8.031,10.23 8.937,9.893 9.841,9.557 10.626,9.022 11.29,8.289 11.953,7.555 12.285,6.561 12.285,5.301 12.285,4.215 11.983,3.233 11.38,2.354 10.776,1.474 9.871,0.77 8.665,0.245 7.457,-0.281 5.991,-0.543 4.267,-0.543 2.802,-0.543 1.38,-0.363 0,0"
           style="fill:#636569;fill-opacity:1;fill-rule:nonzero;stroke:none"
           id="path938" />
      </g>
      <g
         id="g940"
         transform="translate(609.5979,44.6247)">
        <path
           d="M 0,0 H 4.526 V -7.5 C 3.492,-8.242 2.302,-8.81 0.957,-9.208 c -1.345,-0.396 -2.69,-0.594 -4.035,-0.594 -1.896,0 -3.604,0.401 -5.121,1.202 -1.517,0.802 -2.708,1.918 -3.57,3.349 -0.862,1.432 -1.293,3.054 -1.293,4.863 0,1.81 0.431,3.432 1.293,4.863 0.862,1.431 2.06,2.547 3.596,3.349 1.535,0.802 3.267,1.203 5.199,1.203 1.689,0 3.206,-0.285 4.551,-0.853 C 2.922,7.604 4.043,6.785 4.94,5.716 L 1.681,2.767 c -1.225,1.345 -2.69,2.018 -4.396,2.018 -1.552,0 -2.802,-0.471 -3.751,-1.41 -0.949,-0.939 -1.422,-2.194 -1.422,-3.763 0,-1 0.214,-1.892 0.645,-2.676 0.431,-0.785 1.036,-1.397 1.811,-1.838 0.777,-0.438 1.664,-0.658 2.665,-0.658 0.982,0 1.905,0.197 2.767,0.594 z"
           style="fill:#636569;fill-opacity:1;fill-rule:nonzero;stroke:none"
           id="path942" />
      </g>
      <g
         id="g944"
         transform="translate(631.3483,48.5571)">
        <path
           d="m 0,0 c -0.534,0.464 -1.328,0.698 -2.379,0.698 h -2.845 v -5.303 h 2.845 c 1.051,0 1.845,0.229 2.379,0.685 0.535,0.458 0.802,1.108 0.802,1.953 C 0.802,-1.122 0.535,-0.466 0,0 m -2.431,-8.562 h -2.793 v -4.811 h -5.121 V 4.733 h 8.277 c 1.637,0 3.059,-0.272 4.267,-0.815 C 3.407,3.375 4.336,2.598 4.993,1.59 5.648,0.581 5.975,-0.605 5.975,-1.967 5.975,-3.277 5.669,-4.42 5.058,-5.394 4.445,-6.368 3.569,-7.131 2.433,-7.683 l 3.905,-5.69 H 0.854 Z"
           style="fill:#636569;fill-opacity:1;fill-rule:nonzero;stroke:none"
           id="path946" />
      </g>
      <g
         id="g948"
         transform="translate(655.3766,39.7104)">
        <path
           d="M 0,0 C 0.742,0.431 1.328,1.039 1.759,1.823 2.19,2.608 2.406,3.509 2.406,4.526 2.406,5.544 2.19,6.444 1.759,7.23 1.328,8.013 0.742,8.621 0,9.053 -0.74,9.483 -1.569,9.699 -2.483,9.699 -3.397,9.699 -4.224,9.483 -4.965,9.053 -5.707,8.621 -6.294,8.013 -6.725,7.23 -7.156,6.444 -7.371,5.544 -7.371,4.526 c 0,-1.017 0.215,-1.918 0.646,-2.703 0.431,-0.784 1.018,-1.392 1.76,-1.823 0.741,-0.431 1.568,-0.646 2.482,-0.646 0.914,0 1.743,0.215 2.483,0.646 m -7.642,-3.672 c -1.527,0.81 -2.725,1.931 -3.596,3.363 -0.87,1.43 -1.306,3.042 -1.306,4.835 0,1.793 0.436,3.405 1.306,4.837 0.871,1.432 2.069,2.552 3.596,3.362 1.525,0.81 3.246,1.216 5.159,1.216 1.915,0 3.634,-0.406 5.16,-1.216 1.527,-0.81 2.725,-1.93 3.595,-3.362 C 7.143,7.931 7.579,6.319 7.579,4.526 7.579,2.733 7.143,1.121 6.272,-0.309 5.402,-1.741 4.204,-2.862 2.677,-3.672 c -1.526,-0.811 -3.245,-1.215 -5.16,-1.215 -1.913,0 -3.634,0.404 -5.159,1.215"
           style="fill:#636569;fill-opacity:1;fill-rule:nonzero;stroke:none"
           id="path950" />
      </g>
      <g
         id="g952"
         transform="translate(671.3476,37.0204)">
        <path
           d="m 0,0 c -1.492,1.467 -2.237,3.544 -2.237,6.234 v 10.035 h 5.121 v -9.88 c 0,-2.897 1.146,-4.345 3.44,-4.345 2.275,0 3.413,1.448 3.413,4.345 v 9.88 h 5.044 V 6.234 C 14.781,3.544 14.036,1.467 12.544,0 11.052,-1.465 8.962,-2.197 6.272,-2.197 3.582,-2.197 1.49,-1.465 0,0"
           style="fill:#636569;fill-opacity:1;fill-rule:nonzero;stroke:none"
           id="path954" />
      </g>
      <g
         id="g956"
         transform="translate(703.5611,44.6373)">
        <path
           d="M 0,0 C 0.535,0.458 0.802,1.108 0.802,1.953 0.802,2.797 0.535,3.454 0,3.92 -0.534,4.384 -1.328,4.617 -2.379,4.617 h -2.845 v -5.302 h 2.845 C -1.328,-0.685 -0.534,-0.456 0,0 M 2.199,7.838 C 3.407,7.295 4.336,6.518 4.993,5.509 5.648,4.501 5.975,3.315 5.975,1.953 5.975,0.59 5.648,-0.59 4.993,-1.59 4.336,-2.591 3.407,-3.362 2.199,-3.906 0.991,-4.449 -0.431,-4.72 -2.068,-4.72 h -3.156 v -4.733 h -5.121 V 8.652 h 8.277 c 1.637,0 3.059,-0.271 4.267,-0.814"
           style="fill:#636569;fill-opacity:1;fill-rule:nonzero;stroke:none"
           id="path958" />
      </g>
      <path
         d="M 825.623,69.411 H 259.331 v 2.425 h 566.292 z"
         style="fill:#636569;fill-opacity:1;fill-rule:nonzero;stroke:none"
         id="path960" />
    </g>
  </g>
</svg>
