<?xml version="1.0" encoding="UTF-8"?>
<!-- Generator: Adobe Illustrator 24.2.1, SVG Export Plug-In . SVG Version: 6.00 Build 0)  -->
<svg xmlns="http://www.w3.org/2000/svg" xmlns:xlink="http://www.w3.org/1999/xlink" version="1.1" id="Layer_1" x="0px" y="0px" width="180px" height="46.5px" viewBox="0 0 180 46.5" style="enable-background:new 0 0 180 46.5;" xml:space="preserve">
<style type="text/css">
	.st0{fill:#1D4070;}
	.st1{font-family:'Raleway-Bold';}
	.st2{font-size:5.1329px;}
</style>
<g>
	<g id="Group_3" transform="translate(0 -215.017)">
		<g id="Group_2" transform="translate(0 0)">
			<path id="Path_11" class="st0" d="M46.8,257.6v-38.7c0-2.1-1.8-3.9-3.9-3.9h-39c-2.1,0-3.9,1.7-3.9,3.9v38.7     c0,2.1,1.8,3.9,3.9,3.9h39C45.1,261.4,46.8,259.7,46.8,257.6 M30.2,226.8l-15.1,18.9H10l12.4-15H10.2l3.1-3.9H30.2z M24.4,245.8     h12.4l-3.1,3.9H16.5l15.2-18.9h5.1L24.4,245.8z"></path>
		</g>
	</g>
	<g id="Group_4" transform="translate(73.412 -199.698)">
		<path id="Path_13" class="st0" d="M-10.6,231.2l12.2-14.7h-11.9v-3.7H6.4v3.2l-11.8,14.7H6.5v3.7h-17.1V231.2z"></path>
	</g>
	<g id="Group_5" transform="translate(94.278 21.611)">
		<path id="Path_14" class="st0" d="M-5.2,13.4c-1.2,0-2.4-0.2-3.5-0.7c-1-0.4-1.9-1-2.6-1.8s-1.3-1.6-1.7-2.6s-0.6-2.1-0.6-3.1    c0-1.1,0.2-2.2,0.6-3.2c0.4-1,0.9-1.9,1.7-2.6c0.8-0.8,1.7-1.4,2.7-1.8c1.1-0.5,2.3-0.7,3.5-0.7s2.4,0.2,3.5,0.7    c1,0.4,1.9,1,2.6,1.8C1.6,0.1,2.2,1,2.5,2c0.4,1,0.6,2,0.6,3.1c0,0.3,0,0.5,0,0.8c0,0.2,0,0.4-0.1,0.6H-9.3c0,0.6,0.2,1.1,0.5,1.7    C-8.6,8.6-8.3,9-7.9,9.3s0.8,0.6,1.3,0.8s1,0.3,1.5,0.3c0.8,0,1.6-0.2,2.3-0.6c0.7-0.3,1.2-0.9,1.5-1.6l3.5,1    c-0.6,1.3-1.6,2.3-2.8,3C-2,13-3.6,13.4-5.2,13.4 M-1.1,3.8c-0.1-1.1-0.5-2.1-1.3-2.9c-0.8-0.7-1.8-1.1-2.8-1.1    c-0.5,0-1,0.1-1.5,0.3S-7.6,0.6-8,0.9c-0.4,0.4-0.7,0.8-1,1.3c-0.2,0.5-0.4,1.1-0.4,1.6L-1.1,3.8z"></path>
	</g>
	<g id="Group_6" transform="translate(116.033 21.682)">
		<path id="Path_15" class="st0" d="M-7.3,0.6c-1.1,0-2.3,0.2-3.3,0.7c-0.9,0.4-1.7,1.1-2.1,2.1V13h-4.1V-2.9h3.7v3.4    c0.3-0.5,0.6-1,1-1.5c0.4-0.4,0.8-0.8,1.2-1.1s0.9-0.6,1.4-0.7C-9-3-8.6-3.1-8.1-3.1h0.5c0.1,0,0.2,0,0.3,0V0.6z"></path>
	</g>
	<g id="Group_7" transform="translate(129.256 21.931)">
		<path id="Path_16" class="st0" d="M-16.7,15.9c0.3,0.1,0.7,0.2,1,0.2c0.3,0,0.5,0.1,0.8,0.1s0.5,0,0.7-0.2    c0.2-0.1,0.5-0.3,0.6-0.5c0.2-0.3,0.4-0.7,0.5-1c0.2-0.4,0.4-1,0.6-1.7l-6.3-15.9h4.2l4.3,12.4l3.8-12.4h3.8L-9.4,16    c-0.4,1.1-1.1,2-2,2.7c-1,0.7-2.2,1.1-3.5,1.1c-0.3,0-0.7,0-1-0.1c-0.4-0.1-0.7-0.1-1-0.3L-16.7,15.9z"></path>
	</g>
	<g id="Group_8" transform="translate(150.761 21.611)">
		<path id="Path_17" class="st0" d="M-7,13.1h-4.1v-9c0.1-1-0.2-2-0.7-2.8c-0.4-0.6-1.1-0.9-1.9-0.9c-0.4,0-0.8,0.1-1.2,0.2    c-0.4,0.2-0.8,0.4-1.2,0.7c-0.4,0.3-0.7,0.7-1,1c-0.3,0.4-0.5,0.9-0.7,1.3v9.3h-4.1V-2.8h3.7v2.9c0.6-1,1.5-1.8,2.6-2.4    c1.2-0.6,2.5-0.9,3.8-0.9c0.8,0,1.7,0.2,2.4,0.5c0.6,0.3,1.1,0.8,1.5,1.4c0.4,0.6,0.6,1.3,0.7,2C-7,1.6-7,2.4-7,3.1V13.1z"></path>
	</g>
	<g id="Group_9" transform="translate(169.246 15.887)">
		<path id="Path_18" class="st0" d="M-13.7,18c-0.7,0.3-1.3,0.5-2,0.7c-0.8,0.2-1.6,0.4-2.5,0.4c-0.5,0-1.1-0.1-1.6-0.2    s-0.9-0.4-1.3-0.7c-0.4-0.3-0.7-0.7-0.9-1.2c-0.2-0.6-0.4-1.2-0.3-1.8V6h-2.1V2.9h2.1v-5.2h4.1v5.2h3.3V6h-3.3v7.8    c0,0.4,0.1,0.9,0.4,1.2c0.3,0.2,0.7,0.4,1.1,0.3c0.4,0,0.8-0.1,1.2-0.2c0.4-0.1,0.7-0.3,1-0.4L-13.7,18z"></path>
	</g>
	<g id="Group_10" transform="translate(184.281 14.608)">
		<path id="Path_19" class="st0" d="M-11.8,20.1h-4.1v-8.9c0.1-1-0.2-2-0.7-2.8c-0.5-0.6-1.2-0.9-2-0.9c-0.4,0-0.8,0.1-1.2,0.2    c-0.4,0.2-0.8,0.4-1.2,0.7c-0.4,0.3-0.7,0.7-1,1c-0.3,0.4-0.5,0.9-0.7,1.3V20h-4.1V-2.1h4.1v9.2c0.6-1,1.4-1.8,2.4-2.4    s2.2-0.9,3.3-0.8c0.9,0,1.7,0.1,2.5,0.5c0.6,0.3,1.1,0.8,1.5,1.4s0.6,1.3,0.8,2c0.1,0.8,0.2,1.5,0.2,2.3L-11.8,20.1z"></path>
	</g>
	<text transform="matrix(1 0 0 1 174.4626 33.5605)" class="st0 st1 st2">®</text>
</g>
</svg>
