<svg xmlns="http://www.w3.org/2000/svg" width="100%" height="100%" viewBox="0 0 1182 1182" fill-rule="evenodd" stroke-linecap="round" stroke-linejoin="round" stroke-miterlimit="1.5" xmlns:v="https://vecta.io/nano"><g transform="matrix(.821831 0 0 .821831 712.19 -158.5)"><clipPath id="A"><path d="M-866.106 192.966h1437.16v1437.16h-1437.16z"/></clipPath><g clip-path="url(#A)"><path d="M-919.374 168.23H636.499v1487.696H-919.374z" fill="#33325a" stroke="#000" stroke-width="40.556"/><g transform="matrix(1.46675 0 0 1.46675 -1980.71 935.44)" fill="#f0eeed"><path d="M1613.169 330.534l-590.912.165-11.526.203-18.364-18.459-18.365-18.46V160.307c0-44.909-.213-59.227-.891-59.905-.628-.628-4.901-.891-14.481-.891h-13.59v-28.22h14.03c12.108 0 14.092-.161 14.481-1.175.248-.646.451-16.687.451-35.646V0h28.22v34.755c0 26.041.224 34.978.891 35.646.631.631 5.033.891 15.075.891s14.444.26 15.075.891c.626.626.891 4.819.891 14.11v13.219h-14.062c-7.734 0-14.918.326-15.966.724l-1.905.724v181.147l20.296 20.483 5.633.215 594.857.176-9.837 27.554zm-530.951-92.744l-18.36-18.414V108.04l18.385-18.375 18.386-18.374h69.064l18.003 18.014 18.003 18.014v34.161l-18.199 18.189-18.199 18.188-76.851.743v29.705l19.988 19.679h45.044l19.961-19.597.204-11.552.203-11.551h27.477l.199 17.216.2 17.217-18.255 18.243-18.254 18.244h-68.638l-18.361-18.414zm75.801-88.947c.915-.641 5.665-5.235 10.555-10.211l8.891-9.045.014-10.377-9.829-9.85-9.829-9.849h-45.765l-19.977 19.989v13.818c0 8.105.318 14.412.769 15.255.742 1.385 1.884 1.436 32.139 1.436 27.299 0 31.586-.151 33.034-1.166z"/><g fill-rule="nonzero"><path d="M1254.506 237.79l-18.36-18.414V108.038l15.602-15.588c8.582-8.574 15.443-16.006 15.247-16.517-.282-.736 8.049-.928 40.137-.928 22.479 0 40.318.284 40.098.64s6.697 7.787 15.366 16.523l15.761 15.883.241 15.136c.133 8.325.043 15.928-.2 16.895l-.441 1.759h-13.645c-11.757 0-13.707-.163-14.096-1.175-.248-.646-.451-5.754-.451-11.352v-10.177l-9.737-9.627-9.737-9.627-23.024-.216-23.023-.217-8.888 8.757c-4.889 4.816-9.361 9.659-9.939 10.761-.872 1.663-1.052 9.43-1.052 45.49v43.483l10.016 10.022 10.016 10.022h45.711l9.812-9.84 9.813-9.84.405-23.021 13.834-.202 13.833-.201.452 1.686c.249.928.457 8.523.462 16.878l.01 15.19-18.732 18.785-18.732 18.785h-68.399l-18.361-18.414zm153.185 18.446V0h28.962v76.503l1.671-.502c.919-.276 2.855-1.636 4.301-3.021l2.63-2.518h41.156l18.615 18.605 18.614 18.605v171.336h-28.22l-1.304-160.34s-5.273-5.902-10.135-10.768l-8.84-8.847h-18.945l-9.05 9.184c-4.977 5.051-9.938 10.768-9.938 10.768l-.927 136.828-14.295.202-14.295.201z"/></g></g><g transform="matrix(1.22084 -.016941 -.016941 1.28782 -12419.601 342.497)"><path d="M9737.02 481.218l.03.001c.07 5.147 4.53 9.383 9.96 9.455l.13 9.325-62.72-.825-.13-9.325c5.43.071 9.78-4.05 9.71-9.197l.32.005 46.5-194.932c-.93-4.318-4.97-7.629-9.77-7.692l-.13-9.326 78 1.026.13 9.326c-5.01-.066-9.11 3.444-9.64 8.036l51.76 195.625.35.005c.07 5.147 4.54 9.383 9.97 9.455l.13 9.325-62.72-.825-.13-9.325c5.41.071 9.75-4.026 9.71-9.153l-5.39-20.375-61.25-.806-4.82 20.197zm33.76-141.503l-19.58 82.06 41.43.545-21.85-82.605z" fill="#f0eeed"/></g><g transform="matrix(1.24403 -.114202 -.114202 1.69559 -12164.501 1160.896)"><path d="M9735.74 486.615c.4 3.91 5.02 7.366 10.36 7.725l.65 7.126-61.69-4.155-.65-7.126c3.99.269 7.27-1.274 8.52-3.707l.56-2.32c0-.147-.01-.295-.02-.444l.12.008 48.55-203.529h-.01c-.36-3.933-5-7.419-10.36-7.78l-.66-7.126 89.37 6.019.65 7.126c-5.28-.356-9.3 2.454-9.07 6.298l86.83 212.819.05.004a1.08 1.08 0 0 0 .02.178l1.2 2.946c1.78 2.508 5.28 4.395 9.15 4.656l.65 7.126-61.69-4.155-.66-7.126c5.37.361 9.42-2.539 9.06-6.472l.06.004-24.04-58.914-83.49-5.624-13.46 56.443zm43.42-182.041l-22.94 96.17 63.93 4.306-40.99-100.476z" fill="#f0eeed"/></g><g fill="#f0eeed"><path d="M190.797 522.754h17.157c42.344 0 93.815 39.39 93.815 91.161 0 40.085-20.077 78.133-58.528 92.579 24.701 45.737 61.935 109.197 135.307 131.806 27.256 8.407 59.501 10.913 97.708 4.952l29.203 46.12c-56.824 12.271-103.427 9.215-141.756-2.621-99.533-30.657-145.528-122.448-174.609-174.14h-10.343v161.441h0c0 6.627 5.354 12.007 12.046 12.007v12.007h-74.589v-12.007a11.96 11.96 0 0 0 11.803-10.17v-331.03a11.96 11.96 0 0 0-11.803-10.17v-12.007h74.589v.071zm-12.046 50.7v88.458h29.081c29.081 0 43.318-23.81 43.318-47.997 0-23.413-24.092-40.461-43.196-40.461h-29.203zm131.988 91.985c0-87.614 44.981-135.701 101.605-135.701 48.509 0 107.779 38.507 107.779 135.701 0 44.626-12.701 74.272-31.222 93.225-19.58 20.115-46.393 29.236-76.557 29.236-46.745 0-101.605-33.119-101.605-122.461zm50.626 0c0 49.397 25.049 71.761 50.979 71.761 15.699 0 29.988-3.45 40.219-13.905 11.289-11.616 16.934-30.505 16.934-57.857 0-57.429-28.4-85.002-57.153-85.002-33.163 0-50.979 33.797-50.979 85.002zM-781.013 898.074h-38.764v-12.007c6.629 0 12.007-5.381 12.007-12.008h20.815V546.284h-.101c0-6.627-5.378-12.008-12.007-12.008v-12.007h74.592v.111l13.248.029c30.279 0 50.165 10.308 63.645 25.329 17.808 19.849 23.973 50.754 23.973 83.842 0 36.958-14.277 62.881-31.933 79.527 17.505 18.443 32.186 46.723 32.186 82.412 0 69.364-39.884 104.508-86.114 104.722l-46.2.063h-25.345v-.229zm44.757-325.045v111.256l28.906-.001c3.773 0 8.586-2.673 13.459-6.51 10.675-8.422 19.584-23.747 19.584-46.194 0-12.767-.747-25.183-3.884-35.899-2.058-7.029-5.014-13.297-10.735-17.273-5.388-3.752-12.743-5.299-22.298-5.299-8.435 0-16.496-.041-25.032-.079zm0 162.574v112.014l26.556-.075c22.066-.103 35.636-20.911 35.636-54.024 0-22.323-9.625-39.762-20.794-50.051-4.56-4.202-8.687-7.865-12.39-7.865l-29.007.001z"/></g><g transform="matrix(1.18679 -.26857 .26857 1.18679 -15415.601 3620.816)"><path d="M12694.1 547.282c-72.3-5.386-129.4-65.836-129.4-139.51 0-77.214 62.7-139.901 139.9-139.901 19.2 0 37.5 3.866 54.1 10.859 5.1 1.617 10.6-1.13 12.3-6.212l9.4 3.195-20 58.286-9.3-3.195c1.8-5.153-1-10.768-6.1-12.532v-.077c-12.3-5.561-26-8.657-40.4-8.657-54.2 0-98.2 44.017-98.2 98.234 0 53.824 43.4 97.595 97 98.227l.1-.176c.3.082.7.142 1.1.183l.9-.003-.1.063c4.6.109 8.8-3.03 9.9-7.689l9.6 2.178-13.8 60.857-9.6-2.179c1.2-5.312-2.1-10.6-7.4-11.803v-.148z" fill="#f0eeed"/></g></g></g></svg>