<svg xmlns="http://www.w3.org/2000/svg" width="362" height="246.5" xmlns:v="https://vecta.io/nano"><defs><clipPath id="A"><path transform="matrix(1 0 0 -1 0 595.28)" d="M0 595.3h842V0H0z"/></clipPath><path id="B" d="M497 306.8c-1.3 0-2.6.4-4.4 1.3l-.1 2.3h.3c2.6-1.4 4.2-2 5.8-2h3.6l.5-1.6z"/><path id="C" d="M513.7 296.8v5l-13.5 41.6h8c1.6 0 3-.8 5.8-2.3h.3l-.4 10.3h-25.3V348l14.5-42.8h-7.7c-1.6 0-3.2.6-5.8 2h-.3l.5-10.4z"/><path id="D" d="M490.6 304.6v-3l.1-3v-.3h.3l5.2-.1h5.2l5.2.1 5.2.3-5.2.3-5.2.1h-5.2l-5.2-.1.3-.3-.7 6.2"/><path id="E" d="M499.8 344.8l3.3-.2 3.3-.1c1 0 2.2.1 3.2-.2 1-.2 2-.7 3-1a19 19 0 0 1-1.4.9 9 9 0 0 1-1.6.6 8 8 0 0 1-1.7.3h-1.7l-6.6-.3"/><path id="F" d="M433.3 267.4a5 5 0 0 1-5.2 5c-3 0-4.2-1-5-2v-2h.2c.4.7 1.6 3.3 5 3.3 2.2 0 3.7-1.3 3.7-3.5 0-4-8.6-3.5-8.6-9.2 0-2.6 2-4.5 4.7-4.5a8.8 8.8 0 0 1 4 1.2v2h-.2a4.6 4.6 0 0 0-4-2.6c-2 0-3 1.4-3 3.3 0 3.8 8.6 3.2 8.6 9"/></defs><g clip-path="url(#A)" transform="translate(-240 -174.7)"><g fill="#c2b59b"><path d="M271.2 305.7c3.6 4.2 5.7 11.2 5.7 21 0 16.8-7.3 25.8-18.2 26h-2-8c-.2.3-.4.7-.6 1v.6h12c11-.4 18.2-9.3 18.2-26 0-11-2.7-18.6-7.3-22.5m24 35.5l-2 7.7c-.4 1.3 0 2.2.6 3.3v.5h-2-6.4c-.2.4-.5.8-.8 1.2v.4H295v-.5c-.6-1-1-2-.6-3.3l2-7.7h4l-.4-1.6zm53.6 3.3v8h-2-19.2l-.5 1v.5h23.3v-10.6h-.3l-1.3 1M337 307.2c0-1.4.5-2.6 1.3-4v-.5H336c-.5 1-.8 2-.8 3V345h1.6zm91.6-4.2v45a8.7 8.7 0 0 0 1.2 4.2v.5h-2-7l-.5 1v.5h11.2v-.5c-1-1.4-1.2-3-1.2-4.2v-45c0-1.5.1-2.2 1.4-4.2v-.5h-2.2c-.7 1.3-.8 2-.8 3.2m-29.4 45.4c0 1.5.6 2.6 1.5 3.8v.5h-2-7.5c-.2.3-.4.7-.7 1v.5h11.7v-.5c-1-1.2-1.5-2.3-1.5-3.8V323l-1.6-3z"/><path d="M402 300h-.8l7.5 15.7.4-1zm8 35.8h-.1l.8 1.6h1l6.3-12.6V320zm61.6-32.8c4.3 4.8 6.8 12.7 6.8 22.6 0 16.6-7.2 27.7-18 27.7h-1-1a12.9 12.9 0 0 1-4-.6c2.3 1.4 4.8 2 7.6 2 11 0 18-11 18-27.7 0-11-3-19.6-8.4-24m45.4 1.8v-5h-1.6v3.3L502 344.7h2zm-1.3 40.2l-.3 8h-2-21.8v1.6H517l.4-10.3h-.3l-1.4.8"/><use href="#B"/><path d="M554 345l-.3 8h-2H530v1.6h25l.4-10.3h-.3l-1.4.8m1.3-40.3v-5h-1.6v3.3L540 344.8h2zm-20 2c-1.3 0-2.6.4-4.4 1.3l-.1 2.3h.3c2.6-1.4 4.2-2 5.8-2h3.6l.5-1.6zm42.6 33.8l-2.2 8c-.4 1.4 0 2.3.6 3.5v.5h-2-7c-.2.4-.5.8-.8 1.2v.4h11.3v-.5c-.6-1.2-1-2-.6-3.5l2.2-8h4.5l-.4-1.6zm20.7 9.4l-11.5-50.7h-1.2l11 49c.4 1.6 1 3 1.8 3.8v.5h-2-8c-.1.4-.3.7-.6 1v.5h12v-.5a9.6 9.6 0 0 1-1.8-3.8M303.8 302h-1.2l10.6 46.6a9.3 9.3 0 0 0 1.7 3.6v.4h-2-7.4c-.1.4-.3.7-.6 1v.5h11.5v-.4c-.7-1-1.3-2-1.7-3.6z"/><path d="M452.5 325c0 9.7 2 16.8 5.4 19-2.4-3.2-3.8-9.4-3.8-17.5 0-11.3 3-19 7.5-19.3a6.5 6.5 0 0 0-2.3-1.5c-4 1-6.8 8.5-6.8 19m-156.2 9.5h2l.4-1.7-1-4.6zm282.7-1h2l.5-2.3-1-4.6zm-321-23h3.7c-1-1-2-1.6-3-1.6h-2.3V346c.5 0 1-.1 1.6-.3z"/></g><g fill="#48484a"><path d="M265.7 325c0-12-2.6-18-6.4-18H255v37.3h2c5.2-.2 8.8-6.8 8.8-19.3m-6.2-25.5c9.5 0 16 8.7 16 25.5s-7.3 25.8-18.2 26h-12v-.6c.8-1.3 1.3-2.7 1.3-4V304c0-1.3-.6-2.7-1.3-4v-.5zm35.2 33.2h4.6l-2.2-11zm5.8-33.7l11 48a9.3 9.3 0 0 0 1.7 3.6v.4h-11.5v-.5c.7-1 1-2.4.7-3.7l-1.8-7.3h-7.2l-2 7.7c-.4 1.3 0 2.2.6 3.3v.5h-11v-.4a9.8 9.8 0 0 0 1.4-2.7l11.4-45.3a3.8 3.8 0 0 0-1-3.3v-.5zm34.4.5v.5c-.8 1.4-1.3 2.6-1.3 4v39.2h7.8c1.4 0 2.3-.6 5.2-2.7h.3V351h-23.3v-.5c.7-1.3 1.3-2.7 1.3-4V304c0-1.3-.5-2.7-1.3-4v-.5zm92 2v45a8.7 8.7 0 0 0 1.2 4.2v.5H417v-.5a8.4 8.4 0 0 0 1.2-4.2v-32l-10 19.7h-1l-10-19.7v32.3c0 1.5.6 2.6 1.5 3.8v.5H387v-.5c1-1.4 1.6-2.7 1.6-4.2V301c0-1-.5-2-1.5-3.7v-.5h11.2l9.3 19.4 8.6-19.4H428v.5c-1.3 2-1.4 2.7-1.4 4.2m40 22.8c0-12-3-20-7.7-20-4.6 0-7.8 7.8-7.8 19.3 0 12 3.2 19.8 7.8 19.8 4.7 0 7.7-7.7 7.7-19m-7.7-28c11 0 18 11 18 27.8 0 16.6-7.2 27.7-18 27.7s-18.2-11.3-18.2-28c0-16.5 7.4-27.4 18.2-27.4"/><use href="#C"/><path d="M552 296.8v5l-13.5 41.6h8c1.6 0 3-.8 5.8-2.3h.3l-.4 10.3H527V348l14.5-42.8h-7.7c-1.6 0-3.2.6-5.8 2h-.3l.5-10.4zm25.5 35h4.8L580 320zm6-35.4L595 347c.4 1.6 1 3 1.8 3.8v.5h-12v-.5c.8-1.2 1.2-2.5.8-4l-2-7.7H576l-2.2 8c-.4 1.4 0 2.3.6 3.5v.5H563v-.4c.6-1 1.2-1.6 1.5-2.8l12-47.7c.3-1.4-.4-3-1.2-3.5v-.5z"/></g><g fill="#fff"><path d="M390.6 349.6c.3-.3.5-.7.6-1.2l.2-1.3c.1-1 0-1.8 0-2.7h0 0L391 333v-11.6-11.6-5.8-3-1.4c-.1-.4-.3-1-.6-1l-.7-.4h.8l6.7.2-6.7.2v-.4c.6.3.8.8 1 1.3.1.5.1 1 .1 1.5v3l.1 5.8.1 11.6-.1 11.6-.2 11.6h0l-.1 2.7a8 8 0 0 1-.3 1.3c-.1.4-.3 1-.7 1.2M298 318l1.2 4 1 4 2 8.2v.4h-.4l-3.6-.1-3.6-.2 3.6-.2h3.6l-.3.4-2-8.2-.8-4a96 96 0 0 1-.7-4.1m101.6-4l2.4 4 2.2 4.2 2 4.3 1.8 4.3-2.4-4-2.2-4.2-3.8-8.6m11 2l1.7-4.6 1.8-4.6 2-4.5 2-4.5v-.2h.2l8.4.3-8.4.3.3-.2-1.8 4.5-2 4.5-4 9m-108.3 23.2l1.8 5.4.6 2.8v.7.8c-.1.5-.5 1-1 1 .4-.3.5-.7.5-1.2 0-.2 0-.4-.1-.6l-.2-.7-.8-2.7-1-5.6m-2.7-39l-4 .1v-.2c.4.2.4.5.5.8s.1.6 0 1l-.3 1.6-.7 3-1.5 6.3-3.2 12.5L287 338l-1.7 6.2-1 3a4.7 4.7 0 0 1-.6 1.5c-.2.5-.5 1-1 1.3.4-.4.6-1 .8-1.4l.5-1.5.7-3 1.5-6.3 3.2-12.5 3.3-12.5 1.7-6.2.8-3 .4-1.6c.1-.4 0-1-.3-1.3l-.4-.2h.4zM581 316l1.2 4.3 1 4.3 1 4.3 1 4.3.1.4h-.4l-4-.1-4-.2 4-.2h4l-.3.4-1-4.3-1-4.3-1-4.3-.7-4.4m5 22.8l2 5.7.7 3 .1.7v.8c-.1.5-.5 1-1 1.2.4-.3.6-.8.6-1.3 0-.2 0-.5-.1-.7v-.7l-.8-3-1-6m-3.7-41.3l-4.4.1v-.2c.3.2.4.5.5.8s.1.6.1 1l-.3 1.7-.8 3.3-1.6 6.6-3.4 13.2-3.5 13-1.8 6.6-1 3.3c-.1.6-.3 1-.6 1.6-.2.5-.5 1-1 1.4.4-.4.6-1 .8-1.5a7.5 7.5 0 0 0 .5-1.6l.8-3.3 1.6-6.6 3.3-13.2 3.5-13.2 1.8-6.6 1-3.3.4-1.6c.1-.5 0-1.2-.3-1.4l-.3-.3h.4z"/><path d="M332.8 300.6l-6.6.2.1-.3c.8.6 1.2 1.6 1.2 2.6v2.8l.1 5.6v11 11l-.2 11h0l-.1 2.6c-.1.4-.1.8-.3 1.3-.1.4-.3.8-.7 1 .3-.3.5-.7.6-1a5 5 0 0 0 .2-1.2c.1-.8 0-1.7 0-2.5h0 0v-11-11-11-5.6-2.8c0-1-.4-1.7-1-2.3l-.4-.3h.5zm-63 7.4a11.5 11.5 0 0 0-9.4-7.2h-3-3.2-6.3v-.6a4.2 4.2 0 0 1 1 2.8v2.8 5.5 11 11 11h0l-.1 2.6c-.1.4-.1.8-.3 1.2-.1.4-.3.8-.6 1 .3-.3.5-.7.6-1 .1-.4.2-.8.2-1.2.1-.8 0-1.7 0-2.5h0 0l-.2-11-.1-11v-11-5.5-2.8c0-.8-.3-1.7-.8-2.3l-.5-.6h.8 6.3 3.2l3.2.1a11 11 0 0 1 5.8 2.6c1.6 1.4 3 3.2 3.6 5m63.8 37l3-.3c1-.1 2-.1 3-.1s2-.1 3-.4 2-.7 2.8-1.2c-.8.7-1.7 1.2-2.6 1.6a9 9 0 0 1-3.1.6h-3l-3-.2m86-30.7l.3 9 .1 9-.1 9-.1 4.4c0 1.4-.1 3-1 4.3.4-.6.5-1.4.6-2s0-1.5 0-2.2l-.1-4.4-.1-9 .1-9 .3-9m38.7-16.8c-2.8.2-5.4 1.5-7.5 3.3-2 1.8-3.7 4-4.8 6.6a41 41 0 0 0-2.9 16.2 50 50 0 0 0 .4 8.3 32 32 0 0 0 2.2 8c1 2.5 2.7 5 5 6.6a14 14 0 0 0 3.6 2.1 11.4 11.4 0 0 0 4 .8 12.9 12.9 0 0 1-4-.6c-1.3-.4-2.6-1-3.7-2-2.3-1.7-4-4-5.2-6.6-2.4-5.2-3-11-3-16.5.1-5.6.8-11.3 3-16.5a21 21 0 0 1 5-6.7c2.2-1.7 5-3 7.7-3m.5 5.4c2-.2 4 1 5.3 2.4 1.4 1.5 2.2 3.4 2.8 5.4a38 38 0 0 1 1.3 5.9 61 61 0 0 1 .6 6c.1 4-.1 8-1 12a32 32 0 0 1-2 5.7c-.5 1-1 1.7-1.8 2.5-.7.7-1.5 1.4-2.5 1.6 1-.3 1.7-1 2.4-1.7a12 12 0 0 0 1.6-2.5c1-1.8 1.4-3.7 2-5.6a61 61 0 0 0 1-12c-.1-4-.6-8-1.6-11.8-.5-2-1.3-3.7-2.6-5.3-1.2-1.5-3-2.7-5-2.7"/><use href="#D"/><path d="M505 304.6l-3.3 10.8-3.5 10.7-3.7 10.7-3.8 10.6h0l-.1 2.6-.1-2.6h0 0l3.4-10.8 3.6-10.7 7.6-21.3"/><use href="#E"/><path d="M529 304.6v-3l.1-3v-.3h.3l5.2-.1h5.2l5.2.1 5.2.3-5.2.3h-5.2-5.2-5.2l.3-.3-.7 6.2m14.3-.2l-3.3 10.8-3.5 10.7-3.7 10.7-3.8 10.6h0v2.6-2.6h0 0l3.4-10.8L536 326l7.6-21.3m-5.5 40.2l3.3-.2 3.3-.1c1 0 2.2.1 3.2-.2 1-.2 2-.7 3-1a19 19 0 0 1-1.4.9 9 9 0 0 1-1.6.6 8 8 0 0 1-1.7.3h-1.7l-6.6-.3"/></g><g fill="#c2b59b"><path d="M245 380.7h96.3"/><path d="M245 379.5l96.3 1.2L245 382z"/><path d="M245 385.7l-5-5 5-5 5 5zm352-5h-96.3"/><path d="M597 382l-96.3-1.2 96.3-1.2z"/><path d="M597 385.7l5-5-5-5-5 5zM245 270.4h66.7"/><path d="M245 269.3l66.7 1.2-66.7 1.2z"/><path d="M245 275.5l-5-5 5-5 5 5zm352-5h-66.7"/><path d="M597 271.6l-66.7-1.2 66.7-1.2z"/><path d="M597 275.5l5-5-5-5-5 5z"/></g><g fill="#48484a"><path d="M352.7 380.7c0-4.8 3-8.8 8.8-8.8a13 13 0 0 1 5 1.2v1.8h-.2c-.8-1.3-2.6-2.5-4.7-2.5-4.3 0-6.5 3.8-6.5 8.3 0 4.4 2.2 8.2 6.5 8.2a12 12 0 0 0 3.2-.5v-7c0-.8-.5-1.2-.8-1.4h0 3.7 0c-.4.2-.8.6-.8 1.4v6c0 .1.1.3.1.3h0c-.7.6-3.4 1.5-5.5 1.5-5.8 0-8.8-4-8.8-8.8m36.3.3c0-4.5-2.2-8.3-6.5-8.3s-6.5 3.8-6.5 8.3c0 4.4 2.2 8.2 6.5 8.2s6.5-3.8 6.5-8.2m2.3 0a8.3 8.3 0 0 1-8.8 8.8c-5.8 0-8.8-4-8.8-8.8s3-8.8 8.8-8.8 8.8 4 8.8 8.8m19.5-8.4c-.3.3-.8.6-.8 1.4v10c0 3-1.3 5.7-5.8 5.7-4 0-5.8-2.5-5.8-5v-10.7c0-.8-.4-1-.8-1.4v-.2h3.8v.2c-.4.3-.8.6-.8 1.3V384c0 2.2.8 5 4 5 3 0 5-2 5-4.7V374c0-.8-.4-1-.8-1.4v-.2h2.3zm13.2 10c2.5-.1 4.5-2.2 4.5-4.8s-1.6-4.8-4.7-4.8H420v9.5zm7 7v.2h-1.3c-2 0-2.5-1-3-1.4l-3.8-5h-3v5c0 .7.5 1.2.8 1.3v.2H417v-.2c.3-.2.8-.6.8-1.4v-14c0-.8-.5-1.2-.8-1.4v-.2h8.2c3 0 5.3 2.4 5.3 5.3 0 3-2.3 5.3-5.5 5.3l3.5 4.5c.5.6 1.4 1.8 2 1.8m14-7.2l-6-8.6v14.4c0 .7.5 1 .8 1.3v.2H437v-.2c.3-.2.8-.6.8-1.4v-14c0-.7-.5-1-.8-1.3v-.2h3.2l5.2 7.4 4.7-7.4h2.8v.2c-.3.2-.8.6-.8 1.4v14c0 .8.5 1.2.8 1.4v.2h-3.7v-.2c.4-.2.8-.6.8-1.4v-14.4zm14.8 7c.3-.2.8-.5.8-1.2v-14.3c0-.7-.5-1-.8-1.2v-.2h11l.4 1.5h-.2c-.3-.3-1-1-1.8-1h-6.4v6h4c.8 0 1.2-.5 1.4-.8h.2v2.2h-.2c-.2-.3-.6-.8-1.4-.8h-4v9.5h7.4c.8 0 1.5-.6 1.8-1h.2l-.4 1.5h-12zm30-15.4h-.2c-.3-.3-1-1-1.8-1H484v15c0 .8.4 1.2.8 1.4v.2H481v-.2c.3-.2.8-.6.8-1.4v-15h-3.2c-.8 0-1.5.6-1.8 1h-.2l.4-1.5h11.7zM348.8 265v-13.8c-1.2.4-3.6 3.5-6 7.6 2.7 1.2 5 3.7 6 6.2m-12.8 7c.7-4.2 3.3-9 5.8-13a6.9 6.9 0 0 0-2.5-.4c-4.3 0-7 3-7 7 0 3 1.2 5.4 3.6 6.4m3.3-14a8.2 8.2 0 0 1 2.8.5l5-7.5c0-.5-.6-.8-1-1h0 5.4 0c-.3.2-.8.6-.8 1.4v22c0 .8.5 1.2.8 1.4v.2H348v-.2c.4-.2.8-.6.8-1.4V266c-1.3-3-3.6-5.5-6.3-6.6a38 38 0 0 0-4.7 13h.4c5.2 0 6.5-4 6.6-4.4h.1c-.7 2.4-2.8 5-6.8 5h-.4v.8c0 3.8 1.6 6.7 4 6.7 2.2 0 3-2 3-3h.1c.2.8 0 3.8-3.4 3.8-2.8 0-5.5-2.5-5.5-7.5 0-.4 0-.8.1-1.2a7.2 7.2 0 0 1-5-7.2c0-3.7 2.8-7.7 8.5-7.7"/><path d="M366.8 271.5c.8 0 1.5-.6 1.8-1h.2l-.4 1.5H358h0c.4-.2.8-.6.8-1.4v-14c0-.8-.4-1.2-.8-1.4v-.2h3.8v.2c-.3.2-.8.6-.8 1.4v15zm16.6 0c.8 0 1.5-.6 1.8-1h.2l-.4 1.5h-10.3 0c.4-.2.8-.6.8-1.4v-14c0-.8-.4-1.2-.8-1.4v-.2h3.8v.2c-.3.2-.8.6-.8 1.4v15zm10-15.2c0 1.3-.8 2.6-2 3.2l-.1-.2c.8-.3 1.2-1.2 1.2-2v-.3c-.1 0-.2.1-.4.1-.7 0-1-.4-1-1s.4-1 1-1c.4 0 .6.1.8.3.3.3.5 1 .5 1.4m23.4-6.8c-.3.2-.8.6-.8 1.4V271c0 4-3 6.2-7.7 6.2-4.4 0-8-2.2-8-6.3v-19.5c0-.8-.4-1.2-.8-1.4h0 3.8 0c-.4.2-.8.6-.8 1.3v19.3c0 3.3 2 6 6 6s7-2 7-5.4v-19.6c0-.8-.4-1-.8-1.4h0 2.3z"/><use href="#F"/><path d="M449.7 267.4a5 5 0 0 1-5.2 5c-3 0-4.2-1-5-2v-2h.2c.4.7 1.6 3.3 5 3.3 2.2 0 3.7-1.3 3.7-3.5 0-4-8.6-3.5-8.6-9.2 0-2.6 2-4.5 4.7-4.5a8.8 8.8 0 0 1 4 1.2v2h-.2a4.6 4.6 0 0 0-4-2.6c-2 0-3 1.4-3 3.3 0 3.8 8.6 3.2 8.6 9m6 4.6c.3-.2.8-.5.8-1.2v-14.4c0-.7-.5-1-.8-1.2v-.2h11l.4 1.5h-.2c-.3-.3-1-1-1.8-1H459v6h4c.8 0 1.2-.5 1.4-.8h.2v2.2h-.2c-.2-.3-.6-.8-1.4-.8h-4v9.6h7.4c.8 0 1.5-.6 1.8-1h.2l-.4 1.5h-12zm25-7c2.5-.1 4.6-2.2 4.6-4.8s-1.6-4.8-4.8-4.8H477v9.6zm7 7h0-1.4c-2 0-2.5-1-3-1.5l-4-5h-2.8v5c0 .7.5 1.2.8 1.3h0-3.8 0c.3-.2.8-.6.8-1.4v-14c0-.8-.5-1.2-.8-1.4v-.2h8.3c3 0 5.4 2.4 5.4 5.3 0 3-2.3 5.3-5.5 5.3l3.6 4.5c.5.6 1.4 1.8 2 1.8m21.2-8.2c0-4.5-2.2-8.3-6.5-8.3s-6.5 3.8-6.5 8.3 2.2 8.3 6.5 8.3 6.5-3.8 6.5-8.3m2.3 0c0 4.8-3 8.8-8.8 8.8s-8.8-4-8.8-8.8 3-9 8.8-9 8.8 4 8.8 9"/></g><g fill="#c2b59b"><path d="M391 412.3h-1.4v2.4h.6c.3 0 .5-.1.8-.2h.1v1.8h-.1c-.3-.1-.6-.2-.8-.2h-.6v3.3h1.6c.3 0 .5-.1 1-.4h.1v1.8h-4.5v-.1c.1-.3.2-.5.2-.8v-8c0-.3-.1-.5-.2-.8h0 4.3v1.7h-.1c-.5-.3-.8-.3-1-.3m6.3 7c.6 0 1-.5 1-1.3 0-.7-.5-1.5-1.4-2.5-.8-1-1.3-1.8-1.3-2.8 0-1.3 1-2 2.4-2 .7 0 1.2.1 1.3.2v2h-.1c-.2-.3-.7-.8-1.2-.8-.4 0-.7.4-.7.8 0 .5.2 1 .6 1.4 1.3 1.4 2 2.6 2 4 0 1.6-1 2.7-2.6 2.7-1 0-1.4-.3-1.6-.5v-2h.1c.3.6.7 1 1.4 1m7.3 1v-.1c.2-.3.3-.5.3-.8v-7.5h-.7c-.2 0-.5.1-1 .3v.1h-.1v-2h5.4v2h-.1v-.1c-.4-.2-.6-.3-1-.3h-.7v7.5c0 .3.1.5.3.8v.1zm7.3-.7a1 1 0 0 1 1-1c.6 0 1 .4 1 1s-.4 1-1 1-1-.4-1-1m16.2-1h.1v1.8h-4v-.5c0-2.5 3-5.5 3-7 0-.8-.3-1.2-1-1.2-.5 0-.7.4-.7 1 0 .5.1.8.4 1l-.1.1h-1c-.4 0-.7-.7-.7-1.2 0-1.4 1-2.2 2-2.2 1.4 0 2.3 1 2.3 2.5 0 2-2.3 4-2.3 6h1.2c.3 0 .6-.1.8-.3m7.8-3.2c0-2.3-.6-3.6-1-3.6-.5 0-1 1.3-1 3.5 0 2.3.5 3.7 1 3.7s1-1.4 1-3.6m-1-5c1.6 0 2.8 2 2.8 5s-1.3 5-2.8 5-2.8-2-2.8-5 1.3-5 2.8-5M445 419h.1v1.8h-4v-.5c0-2.5 3-5.5 3-7 0-.8-.3-1.2-1-1.2-.5 0-.7.4-.7 1 0 .5.1.8.4 1v.1h-1c-.4 0-.7-.7-.7-1.2 0-1.4 1-2.2 2-2.2 1.4 0 2.3 1 2.3 2.5 0 2-2.3 4-2.3 6h1.2c.3 0 .6-.1.8-.3m7.4-3.2c0-2.3-.6-3.6-1-3.6s-1 1.3-1 3.5c0 2.3.5 3.7 1 3.7s1-1.4 1-3.6m-1-5c1.6 0 2.8 2 2.8 5s-1.3 5-2.8 5-2.8-2-2.8-5 1.3-5 2.8-5M423 226.5l-1.2 1-9.4 7-1.2 1c-.7.4-1.4.3-2-.1s-1-1-.8-1.8c.1-.5.3-1 .8-1.2l2-1.4 5-3.2 5.2-3.3.2-.1 1.8-1.2h.2l3.4-2 8.2-5 7-4.4a3 3 0 0 1 .7-.3c.3-.1.5 0 .5.4v.4l-.1.6s0 .1-.1.1l-.7 1.4-3.3 4.2a25 25 0 0 1-4.5 3.7 13 13 0 0 1-4 1.7c-1 .2-2 .2-3.2.2-.4 0-1 0-1.3.3-.2.2-.5.3-.8.5l-.8.6z"/><path d="M417.7 224.8l-1.2-.8c-1-.6-2-1.2-2.8-2-.7-.5-1.4-.6-2.3-.5-.4.1-.7.1-1 .2-.5.1-1-.1-1.5-.4l-2.2-1.3-5.4-3.4-2.3-1.5c-.2-.1-.4-.3-.5-.4v-.2c.2-.4.3-.4.6-.2.1 0 .1.1.2.1l2 1.3 5.5 3.4c.1.1.3.1.4.2.1 0 .2 0 .2-.1.3-.2.2-.5-.1-.7l-4.8-3-3-1.8-.3-.3c-.1-.1-.1-.3 0-.5.1-.1.2-.2.4-.1l1 .5 5.8 3.5 1.5.8c.2.1.4.1.5-.1s.1-.3-.1-.5l-.7-.5-5.6-3.6-1.6-1c-.1-.1-.2-.2-.1-.4.1-.3.3-.4.5-.3.3.1.5.3.8.4l6.3 3.8 1 .6c.2.1.4 0 .5-.2s.1-.3-.1-.4l-2.5-1.6-4.7-3-.8-.6c-.2-.2-.2-.3-.1-.5l.1-.1h.1c.1 0 .2.1.3.1l2 1a424 424 0 0 1 4.1 2.5l4.3 2.7c.3.2.5.4.7.8l.5 1.4c.2 1 .7 1.5 1.5 2l3 1.7 1.2.7 2.2 1.2 1.8 1 8.4 4.7 3.5 2c.4.2.7.6 1 1 .3.8-.1 2-1 2.3-.1 0-.2.1-.3.1l-.4.1c-.8.1-1.3-.3-2-.7l-9.6-6.6-2.5-1.7s-.1-.1-.2-.1zm9-16.6h-5.8a1 1 0 0 0-1 1c.1 2 1 6.4 6.2 7 .6.1 1-.4 1-1v-1.7c-.1-.7.4-1.4 1-1.6l.2-.1zm-3.2-17.2c0 .5-.8.7-1 .2L415 176l2.4 2-1.6-3.3 3.2 3.3a16 16 0 0 1 4.4 12.6zm6.8 15.2l-2.3-1.6a7.4 7.4 0 0 1-2-2.3l-6-12.6c-.4-1-1.3-1.5-2.3-1.5h-1.3a21 21 0 0 0-10.2 2.6c-1 .6-1.7 2-1 3.3l5.2 11.7.7 1.4a3.8 3.8 0 0 0 3.4 2h1.2s.5 4.2 3.8 6c.5.2 1.3-.4 1-.8-1.2-1.6-1.8-4-2-5.8-.1-1 .7-2 1.7-2h9.7c.4 0 .6-.5.2-.8"/></g></g></svg>