<?xml version="1.0" encoding="UTF-8" standalone="no"?>
<!-- Created with Inkscape (http://www.inkscape.org/) -->

<svg
   width="179.3716mm"
   height="43.028416mm"
   viewBox="0 0 179.3716 43.028415"
   version="1.1"
   id="svg1"
   xml:space="preserve"
   xmlns="http://www.w3.org/2000/svg"
   xmlns:svg="http://www.w3.org/2000/svg"><defs
     id="defs1" /><g
     id="layer-MC0"
     transform="matrix(0.26458332,0,0,0.26458334,206.7343,-9.6423346)"><path
       id="path1"
       d="m -598.51563,115.59196 7.8596,-11.57844 c 3.78983,2.61856 7.70187,4.8743 11.73618,6.77118 4.03037,1.89687 8.25398,2.84334 12.66688,2.84334 2.33857,0 4.40896,-0.29184 6.19935,-0.87943 1.79435,-0.58365 3.3087,-1.34477 4.55093,-2.27546 1.24224,-0.93069 2.16898,-1.99546 2.79208,-3.20221 0.61913,-1.20674 0.93067,-2.39377 0.93067,-3.56896 0,-1.51435 -0.46927,-2.80785 -1.39604,-3.876571 -0.93067,-1.06872 -2.17291,-1.94814 -3.72275,-2.63827 -1.54983,-0.68619 -3.37968,-1.27379 -5.48163,-1.75491 -2.10192,-0.48112 -4.29063,-0.93069 -6.56214,-1.34477 -1.51831,-0.27604 -3.27714,-0.60337 -5.27655,-0.98196 -1.99941,-0.37859 -4.06587,-0.8952 -6.20332,-1.55378 -2.13741,-0.6507 -4.23543,-1.51435 -6.30583,-2.58306 -2.06643,-1.06872 -3.92783,-2.413491 -5.58415,-4.030371 -1.65631,-1.620823 -2.98136,-3.549248 -3.98302,-5.793162 -0.99379,-2.239968 -1.49465,-4.8743 -1.49465,-7.910876 0,-4.408955 0.89521,-8.076511 2.6856,-11.010555 1.79042,-2.926157 4.0856,-5.23711 6.87767,-6.924975 2.78811,-1.687866 5.89569,-2.878833 9.3069,-3.568967 3.41124,-0.686188 6.70021,-1.033224 9.8748,-1.033224 3.16673,0 5.9943,0.205058 8.47481,0.619145 2.48054,0.414079 4.79148,1.021397 6.92893,1.810117 2.13348,0.792665 4.21967,1.794342 6.25457,3.001086 2.03094,1.206745 4.21964,2.634332 6.56611,4.286702 l -8.06469,11.37731 c -3.58474,-2.484473 -7.03145,-4.377405 -10.34014,-5.690626 -3.3087,-1.305334 -6.7909,-1.963917 -10.44269,-1.963917 -1.24224,0 -2.65404,0.157734 -4.23937,0.465345 -1.58533,0.311547 -3.08391,0.812384 -4.49571,1.498572 -1.41577,0.694076 -2.58702,1.569557 -3.51769,2.638274 -0.92677,1.068716 -1.39604,2.362222 -1.39604,3.876565 0,1.518291 0.55209,2.792074 1.65236,3.825302 1.10423,1.037167 2.51603,1.896874 4.24333,2.587005 1.7194,0.690133 3.62023,1.273786 5.68669,1.75885 2.06643,0.481121 4.06191,0.966185 5.99823,1.447303 1.44729,0.343094 3.15093,0.686188 5.11485,1.033228 1.96392,0.343093 3.99882,0.824212 6.10077,1.447303 2.09799,0.619145 4.18811,1.447303 6.25454,2.48053 2.0704,1.033225 3.91207,2.362216 5.5329,3.979096 1.62082,1.62083 2.93011,3.62024 3.92783,5.99823 1.00169,2.378 1.49858,5.256831 1.49858,8.632561 0,3.93178 -0.68619,7.343 -2.06646,10.23761 -1.38027,2.8946 -3.34812,5.29232 -5.89175,7.18525 -2.55546,1.89688 -5.58415,3.32446 -9.10184,4.29065 -3.51375,0.96618 -7.41006,1.4473 -11.68492,1.4473 -3.92783,0 -7.39033,-0.29184 -10.38746,-0.87942 -2.99714,-0.58366 -5.73795,-1.37632 -8.21849,-2.378 -2.48448,-0.99773 -4.82698,-2.1887 -7.03538,-3.56502 -2.2045,-1.38026 -4.47995,-2.89855 -6.82245,-4.55092"
       style="fill:#2548a3;fill-opacity:1;fill-rule:nonzero;stroke:none;stroke-width:3.9436" /><path
       id="path2"
       d="m -478.93637,63.689337 h -21.60702 v 62.861113 h -14.47303 V 63.689337 h -21.71353 V 50.868665 h 57.79358 z"
       style="fill:#2548a3;fill-opacity:1;fill-rule:nonzero;stroke:none;stroke-width:3.9436" /><path
       id="path3"
       d="m -461.92208,102.04724 h 21.60705 l -10.75028,-22.849268 z m -28.53595,24.50558 38.6671,-75.583196 h 1.45123 l 38.6671,75.583196 h -15.7153 l -5.89175,-11.88998 h -35.67387 l -5.78921,11.88998 z"
       style="fill:#2548a3;fill-opacity:1;fill-rule:nonzero;stroke:none;stroke-width:3.9436" /><path
       id="path4"
       d="M -328.48652,50.970807 V 126.554 h -14.47303 V 88.297059 l -23.67742,28.433411 -23.5749,-28.433411 V 126.554 H -404.6849 V 50.970807 h 0.92674 l 37.12119,43.632082 37.22371,-43.632082 z"
       style="fill:#2548a3;fill-opacity:1;fill-rule:nonzero;stroke:none;stroke-width:3.9436" /><path
       id="path5"
       d="m -285.21055,90.984629 c 2.13745,0 3.99882,-0.36281 5.58415,-1.08449 1.5814,-0.72563 2.87886,-1.70758 3.87264,-2.945879 1.00166,-1.242236 1.74307,-2.654047 2.22813,-4.239378 0.48113,-1.58533 0.72168,-3.241646 0.72168,-4.965003 0,-1.719413 -0.31153,-3.426994 -0.9307,-5.118802 -0.61913,-1.687865 -1.51828,-3.186437 -2.68559,-4.495713 -1.17519,-1.309279 -2.62248,-2.377996 -4.34585,-3.206154 -1.72337,-0.824215 -3.71881,-1.238294 -5.99823,-1.238294 h -17.67919 v 27.293713 z m 0,-40.114384 c 3.71884,0 7.22077,0.705907 10.49394,2.117717 3.27321,1.411814 6.11654,3.324462 8.53003,5.73795 2.41349,2.413489 4.32615,5.256832 5.73795,8.530025 1.41576,3.273196 2.11772,6.771177 2.11772,10.493942 0,3.722767 -0.61914,7.16948 -1.85744,10.34014 -1.24224,3.17066 -3.07205,5.94302 -5.48161,8.32101 -2.41349,2.378 -5.46584,4.243331 -9.14916,5.584151 -3.69122,1.34477 -7.94638,2.01913 -12.77336,2.01913 h -16.85103 v 22.53772 h -14.47306 V 50.870245 Z"
       style="fill:#2548a3;fill-opacity:1;fill-rule:nonzero;stroke:none;stroke-width:3.9436" /><path
       id="path6"
       d="m -240.59101,102.04724 h 21.60705 l -10.75028,-22.849268 z m -28.53595,24.50558 38.6671,-75.583196 h 1.45123 l 38.6671,75.583196 h -15.7153 l -5.89175,-11.88998 h -35.67387 l -5.78921,11.88998 z"
       style="fill:#2548a3;fill-opacity:1;fill-rule:nonzero;stroke:none;stroke-width:3.9436" /><path
       id="path7"
       d="m -185.01452,116.62597 7.85963,-11.57843 c 3.7898,2.61855 7.70186,4.87429 11.73618,6.77117 4.03034,1.89688 8.25395,2.84334 12.66685,2.84334 2.33857,0 4.40896,-0.29183 6.19935,-0.87942 1.79435,-0.58366 3.3087,-1.34477 4.55093,-2.27546 1.24224,-0.9307 2.16898,-1.99547 2.79208,-3.20221 0.61913,-1.20675 0.9307,-2.39377 0.9307,-3.56897 0,-1.51434 -0.4693,-2.80785 -1.39604,-3.87657 -0.9307,-1.068711 -2.17294,-1.948141 -3.72278,-2.638271 -1.54983,-0.68619 -3.37968,-1.27378 -5.4816,-1.75491 -2.10195,-0.48112 -4.29066,-0.93069 -6.56217,-1.34477 -1.51828,-0.27604 -3.27714,-0.60337 -5.27655,-0.98196 -1.99941,-0.37858 -4.06587,-0.89519 -6.20329,-1.55378 -2.13744,-0.65069 -4.23543,-1.51434 -6.30583,-2.58306 -2.06646,-1.06872 -3.92783,-2.41349 -5.58415,-4.030367 -1.65631,-1.620823 -2.98137,-3.549248 -3.98305,-5.793162 -0.99379,-2.239968 -1.49462,-4.874299 -1.49462,-7.910876 0,-4.408955 0.89518,-8.076511 2.6856,-11.010555 1.79039,-2.926156 4.08557,-5.23711 6.87764,-6.924975 2.78814,-1.687866 5.89569,-2.878833 9.30693,-3.568967 3.41121,-0.686188 6.70018,-1.033224 9.87477,-1.033224 3.16673,0 5.9943,0.205058 8.47484,0.619145 2.48051,0.414079 4.79148,1.021397 6.9289,1.810117 2.13351,0.792665 4.21967,1.794342 6.25457,3.001086 2.03097,1.206745 4.21967,2.634332 6.56611,4.286702 l -8.06469,11.377311 c -3.58474,-2.484474 -7.03145,-4.377406 -10.34014,-5.690627 -3.30867,-1.305334 -6.7909,-1.963917 -10.44266,-1.963917 -1.24224,0 -2.65407,0.157734 -4.2394,0.465345 -1.58533,0.311547 -3.08388,0.812384 -4.49571,1.498572 -1.41574,0.694076 -2.58699,1.569557 -3.51769,2.638274 -0.92674,1.068717 -1.39604,2.362222 -1.39604,3.876565 0,1.518291 0.55212,2.792074 1.65238,3.825302 1.10421,1.037167 2.51601,1.896874 4.24331,2.587005 1.71943,0.690133 3.62023,1.273786 5.68669,1.75885 2.06646,0.481121 4.06191,0.966185 5.99823,1.447303 1.44729,0.343094 3.15093,0.686188 5.11485,1.033228 1.96392,0.343094 3.99882,0.824212 6.10077,1.447303 2.09799,0.619145 4.18811,1.447303 6.25457,2.48053 2.0704,1.033222 3.91204,2.362222 5.53287,3.979102 1.62082,1.62082 2.93011,3.62023 3.92783,5.99823 1.00169,2.37799 1.49858,5.256831 1.49858,8.632561 0,3.93177 -0.68619,7.34299 -2.06646,10.2376 -1.38024,2.89461 -3.34812,5.29232 -5.89175,7.18526 -2.55546,1.89687 -5.58415,3.32446 -9.10184,4.29064 -3.51375,0.96618 -7.41003,1.44731 -11.68492,1.44731 -3.92783,0 -7.3903,-0.29184 -10.38746,-0.87943 -2.99714,-0.58365 -5.73795,-1.37632 -8.21846,-2.37799 -2.48448,-0.99774 -4.82698,-2.18871 -7.03541,-3.56503 -2.20447,-1.38026 -4.47995,-2.89855 -6.82245,-4.55092"
       style="fill:#ed1c24;fill-opacity:1;fill-rule:nonzero;stroke:none;stroke-width:3.9436" /><path
       id="path8"
       d="m -102.24173,126.55203 h -14.47306 V 50.968837 h 14.47306 z"
       style="fill:#ed1c24;fill-opacity:1;fill-rule:nonzero;stroke:none;stroke-width:3.9436" /><path
       id="path9"
       d="m -677.24424,113.5259 c 13.22686,40.64677 -46.96444,51.99253 -69.27344,21.04704 49.35426,27.9799 70.82721,-4.44051 69.27344,-21.04704 m -72.71225,-38.919471 c -5.91148,-12.595883 -5.59994,-22.861097 7.15369,-39.19552 0,0 -14.87922,7.252295 -16.15695,25.665002 l -18.18398,18.183977 c -4.0501,4.050085 -4.0501,10.679291 0,14.729381 12.51702,12.517011 23.46053,25.467821 38.89186,34.348821 10.66351,6.13626 33.91504,8.24609 43.51771,-0.56788 1.84957,-1.69575 3.23377,-3.64389 4.16051,-5.84837 0.92281,-2.20053 1.38814,-4.36952 1.38814,-6.50695 0,-2.76842 -0.69405,-5.12669 -2.08222,-7.07484 -1.38814,-1.95208 -3.23768,-3.55319 -5.54866,-4.8112 -2.31094,-1.25801 -5.03597,-2.32673 -8.1672,-3.21009 -3.13517,-0.879431 -6.39654,-1.695761 -9.78803,-2.452931 -14.1063,-3.13911 -28.48076,-8.96382 -35.18487,-23.2594"
       style="fill:#2548a3;fill-opacity:1;fill-rule:evenodd;stroke:none;stroke-width:3.9436" /><path
       id="path10"
       d="m -664.89523,101.05739 c 5.91145,12.59983 5.59992,22.8611 -7.15371,39.19552 0,0 14.87924,-7.24835 16.15697,-25.665 l 18.18398,-18.183981 c 4.05007,-4.05008 4.05007,-10.675342 0,-14.729369 -12.51701,-12.517013 -23.46053,-25.467824 -38.89189,-34.348827 -10.6635,-6.136256 -33.91501,-8.246085 -43.5177,0.567879 -1.84955,1.695751 -3.23772,3.647837 -4.16052,5.84837 -0.9228,2.200534 -1.38814,4.369517 -1.38814,6.506954 0,2.768413 0.69409,5.12669 2.08223,7.074833 1.38814,1.952086 3.23771,3.557133 5.54865,4.8112 2.31095,1.258013 5.036,2.32673 8.16721,3.210099 3.13516,0.879424 6.39654,1.695751 9.78805,2.452924 14.10628,3.139111 28.4768,8.963822 35.18487,23.259398"
       style="fill:#ed1c24;fill-opacity:1;fill-rule:evenodd;stroke:none;stroke-width:3.9436" /><path
       id="path11"
       d="m -737.60709,62.137133 c -13.22686,-40.642826 46.96444,-51.99253 69.27341,-21.043095 -49.35424,-27.983843 -70.82718,4.436559 -69.27341,21.043095"
       style="fill:#ed1c24;fill-opacity:1;fill-rule:evenodd;stroke:none;stroke-width:3.9436" /><path
       id="path12"
       d="m -561.84324,161.61189 -8.95197,23.96925 h -0.45747 l -6.49512,-13.96826 -6.55821,14.00376 h -0.42591 l -8.85342,-24.00475 h 4.88613 l 4.68897,13.14799 6.10074,-13.14799 h 0.29192 l 6.10078,13.18348 4.78752,-13.18348 z"
       style="fill:#2548a3;fill-opacity:1;fill-rule:nonzero;stroke:none;stroke-width:3.9436" /><path
       id="path13"
       d="m -529.34908,161.61189 -8.95197,23.96925 h -0.45747 l -6.49512,-13.96826 -6.55821,14.00376 h -0.42591 l -8.85342,-24.00475 h 4.88613 l 4.68897,13.14799 6.10074,-13.14799 h 0.29192 l 6.10078,13.18348 4.78752,-13.18348 z"
       style="fill:#2548a3;fill-opacity:1;fill-rule:nonzero;stroke:none;stroke-width:3.9436" /><path
       id="path14"
       d="m -496.85454,161.61189 -8.95197,23.96925 h -0.45747 l -6.49512,-13.96826 -6.55821,14.00376 h -0.42591 l -8.85342,-24.00475 h 4.88613 l 4.68897,13.14799 6.10074,-13.14799 h 0.29193 l 6.10077,13.18348 4.78752,-13.18348 z"
       style="fill:#2548a3;fill-opacity:1;fill-rule:nonzero;stroke:none;stroke-width:3.9436" /><path
       id="path15"
       d="m -493.28086,183.41728 c 0,0.6783 -0.23662,1.25013 -0.70589,1.72336 -0.4693,0.46929 -1.04111,0.70196 -1.71943,0.70196 -0.65856,0 -1.21857,-0.23268 -1.68784,-0.70196 -0.47324,-0.47323 -0.70592,-1.04506 -0.70592,-1.72336 0,-0.65464 0.23277,-1.21857 0.70592,-1.68786 0.46927,-0.46929 1.02928,-0.70196 1.68784,-0.70196 0.67832,0 1.25013,0.23268 1.71943,0.70196 0.46927,0.46929 0.70589,1.03322 0.70589,1.68786"
       style="fill:#2548a3;fill-opacity:1;fill-rule:nonzero;stroke:none;stroke-width:3.9436" /><path
       id="path16"
       d="m -490.95451,182.43533 2.49237,-3.67545 c 1.20281,0.8321 2.44109,1.54984 3.72278,2.14927 1.27773,0.60337 2.61855,0.90309 4.01458,0.90309 0.74535,0 1.39997,-0.0947 1.96785,-0.28001 0.56788,-0.18536 1.04901,-0.42591 1.44336,-0.72168 0.39439,-0.29184 0.69016,-0.63098 0.88732,-1.01745 0.19313,-0.38253 0.29192,-0.75717 0.29192,-1.12787 0,-0.48112 -0.14581,-0.8952 -0.44167,-1.23435 -0.29577,-0.33521 -0.68619,-0.6152 -1.17915,-0.8321 -0.49296,-0.22086 -1.07267,-0.4062 -1.73913,-0.56 -0.66646,-0.14986 -1.36055,-0.29183 -2.08223,-0.42196 -0.48113,-0.0907 -1.03718,-0.19323 -1.67208,-0.31549 -0.63493,-0.11831 -1.28956,-0.28394 -1.96788,-0.49295 -0.67829,-0.20506 -1.34475,-0.48112 -1.99941,-0.82027 -0.65463,-0.33915 -1.24617,-0.76112 -1.77066,-1.27773 -0.52452,-0.51267 -0.94646,-1.12393 -1.26196,-1.83772 -0.3155,-0.70591 -0.47323,-1.54195 -0.47323,-2.50419 0,-1.39998 0.28009,-2.56335 0.84788,-3.49404 0.56788,-0.92675 1.29743,-1.66026 2.18474,-2.19659 0.88338,-0.53633 1.86534,-0.91097 2.94984,-1.13182 1.08054,-0.22085 2.12558,-0.32731 3.1312,-0.32731 1.00562,0 1.90083,0.067 2.68956,0.19719 0.78477,0.13014 1.51828,0.32337 2.19657,0.57182 0.67436,0.25238 1.33689,0.57182 1.98365,0.95435 0.6428,0.37859 1.33688,0.83605 2.08222,1.3566 l -2.55939,3.60841 c -1.13576,-0.78478 -2.22816,-1.38421 -3.27714,-1.80223 -1.04901,-0.41408 -2.15321,-0.62309 -3.31263,-0.62309 -0.39438,0 -0.84395,0.0513 -1.34478,0.1459 -0.50083,0.10254 -0.97802,0.26028 -1.42759,0.47718 -0.44561,0.21689 -0.81633,0.49689 -1.11603,0.83604 -0.29193,0.33915 -0.43774,0.74929 -0.43774,1.23041 0,0.48112 0.17361,0.88337 0.52055,1.21069 0.35099,0.32732 0.80056,0.60337 1.34478,0.82027 0.54815,0.22085 1.14759,0.40619 1.80615,0.55999 0.65466,0.14987 1.28563,0.30366 1.90083,0.45746 0.45747,0.11041 1.00169,0.22085 1.62083,0.32732 0.62703,0.11041 1.26983,0.26421 1.93632,0.45746 0.66646,0.19719 1.32898,0.4614 1.98361,0.78872 0.6586,0.33126 1.23831,0.74928 1.75493,1.26195 0.51266,0.51661 0.93067,1.14759 1.24617,1.90082 0.3155,0.75717 0.47323,1.66815 0.47323,2.74081 0,1.24618 -0.2168,2.33067 -0.65463,3.24559 -0.43774,0.91491 -1.06084,1.67998 -1.86927,2.27941 -0.80846,0.59942 -1.77069,1.05688 -2.88672,1.36054 -1.1121,0.30366 -2.34647,0.45746 -3.70305,0.45746 -1.2462,0 -2.3425,-0.0907 -3.29686,-0.27605 -0.9504,-0.18536 -1.81802,-0.44168 -2.60672,-0.75717 -0.7848,-0.31549 -1.53014,-0.69013 -2.22816,-1.13182 -0.69802,-0.43379 -1.42363,-0.91491 -2.16504,-1.43941"
       style="fill:#2548a3;fill-opacity:1;fill-rule:nonzero;stroke:none;stroke-width:3.9436" /><path
       id="path17"
       d="m -452.49291,165.64423 h -6.85398 v 19.93889 h -4.59036 v -19.93889 h -6.88554 v -4.06192 h 18.32988 z"
       style="fill:#2548a3;fill-opacity:1;fill-rule:nonzero;stroke:none;stroke-width:3.9436" /><path
       id="path18"
       d="m -446.49072,177.81026 h 6.85401 l -3.41124,-7.2444 z m -9.05058,7.77286 12.26463,-23.96926 h 0.45747 l 12.2646,23.96926 h -4.98471 l -1.86927,-3.7701 h -11.31027 l -1.83771,3.7701 z"
       style="fill:#2548a3;fill-opacity:1;fill-rule:nonzero;stroke:none;stroke-width:3.9436" /><path
       id="path19"
       d="m -403.56928,161.61189 v 23.96925 h -4.59036 V 173.4506 l -7.50861,9.01509 -7.47709,-9.01509 v 12.13054 h -4.59036 v -23.96925 h 0.29578 l 11.77167,13.83812 11.8032,-13.83812 z"
       style="fill:#2548a3;fill-opacity:1;fill-rule:nonzero;stroke:none;stroke-width:3.9436" /><path
       id="path20"
       d="m -387.6024,174.30163 c 0.67832,0 1.2659,-0.11437 1.76675,-0.34309 0.50477,-0.23268 0.91491,-0.54422 1.23434,-0.93463 0.3155,-0.39437 0.54816,-0.83999 0.70196,-1.34478 0.1538,-0.50083 0.22863,-1.02928 0.22863,-1.5735 0,-0.54421 -0.0947,-1.08843 -0.29193,-1.62476 -0.19728,-0.53239 -0.48113,-1.00956 -0.85575,-1.42364 -0.37072,-0.41408 -0.82816,-0.75323 -1.37634,-1.01745 -0.54422,-0.26422 -1.17912,-0.39437 -1.9008,-0.39437 h -5.60781 v 8.65622 z m 0,-12.72207 c 1.17915,0 2.28731,0.22478 3.32842,0.67041 1.03322,0.45351 1.94026,1.05689 2.70136,1.82194 0.76901,0.76506 1.37238,1.66815 1.82195,2.70532 0.44564,1.03717 0.67042,2.14926 0.67042,3.3284 0,1.17914 -0.19727,2.27547 -0.5876,3.28109 -0.39435,1.00167 -0.97013,1.8811 -1.73913,2.63827 -0.76507,0.75323 -1.73124,1.34083 -2.90249,1.77068 -1.16732,0.42591 -2.51997,0.63886 -4.04614,0.63886 h -5.34753 v 7.14582 h -4.59036 v -24.00079 z"
       style="fill:#2548a3;fill-opacity:1;fill-rule:nonzero;stroke:none;stroke-width:3.9436" /><path
       id="path21"
       d="m -372.84857,177.81026 h 6.85005 l -3.40728,-7.2444 z m -9.05058,7.77286 12.2607,-23.96926 h 0.46534 l 12.26067,23.96926 h -4.98472 l -1.86927,-3.7701 h -11.31026 l -1.83772,3.7701 z"
       style="fill:#2548a3;fill-opacity:1;fill-rule:nonzero;stroke:none;stroke-width:3.9436" /><path
       id="path22"
       d="m -356.58514,182.43533 2.49237,-3.67545 c 1.20281,0.8321 2.44504,1.54984 3.72277,2.14927 1.27773,0.60337 2.61461,0.90309 4.01852,0.90309 0.74141,0 1.39604,-0.0947 1.96392,-0.28001 0.56788,-0.18536 1.04901,-0.42591 1.44336,-0.72168 0.39438,-0.29184 0.69015,-0.63098 0.88731,-1.01745 0.19314,-0.38253 0.29577,-0.75717 0.29577,-1.12787 0,-0.48112 -0.14996,-0.8952 -0.44561,-1.23435 -0.29577,-0.33521 -0.68619,-0.6152 -1.17915,-0.8321 -0.49296,-0.22086 -1.07267,-0.4062 -1.73913,-0.56 -0.66646,-0.14986 -1.35661,-0.29183 -2.08222,-0.42196 -0.48113,-0.0907 -1.03718,-0.19323 -1.67208,-0.31549 -0.63493,-0.11831 -1.28956,-0.28394 -1.96788,-0.49295 -0.6783,-0.20506 -1.34476,-0.48112 -1.99941,-0.82027 -0.65463,-0.33915 -1.24617,-0.76112 -1.77066,-1.27773 -0.52452,-0.51267 -0.94647,-1.12393 -1.26197,-1.83772 -0.3155,-0.70591 -0.47323,-1.54195 -0.47323,-2.50419 0,-1.39998 0.28394,-2.56335 0.84788,-3.49404 0.57182,-0.92675 1.29743,-1.66026 2.18081,-2.19659 0.88731,-0.53633 1.8732,-0.91097 2.95377,-1.13182 1.08447,-0.22085 2.12559,-0.32731 3.13121,-0.32731 1.00562,0 1.90476,0.067 2.68956,0.19719 0.78477,0.13014 1.51828,0.32337 2.19263,0.57182 0.67829,0.25238 1.34082,0.57182 1.98365,0.95435 0.64673,0.37859 1.34082,0.83605 2.08616,1.3566 l -2.55939,3.60841 c -1.13576,-0.78478 -2.22816,-1.38421 -3.27714,-1.80223 -1.04901,-0.41408 -2.15718,-0.62309 -3.31263,-0.62309 -0.39438,0 -0.84396,0.0513 -1.34478,0.1459 -0.50083,0.10254 -0.98196,0.26028 -1.4276,0.47718 -0.44561,0.21689 -0.82026,0.49689 -1.1121,0.83604 -0.29577,0.33915 -0.44167,0.74929 -0.44167,1.23041 0,0.48112 0.17362,0.88337 0.52055,1.21069 0.351,0.32732 0.80057,0.60337 1.34478,0.82027 0.54816,0.22085 1.14759,0.40619 1.80222,0.55999 0.6586,0.14987 1.28956,0.30366 1.90477,0.45746 0.45747,0.11041 1.00168,0.22085 1.62475,0.32732 0.61917,0.11041 1.2659,0.26421 1.93239,0.45746 0.66646,0.19719 1.32899,0.4614 1.98362,0.78872 0.65466,0.33126 1.2383,0.74928 1.75492,1.26195 0.51266,0.51661 0.93067,1.14759 1.24617,1.90082 0.3155,0.75717 0.47717,1.66815 0.47717,2.74081 0,1.24618 -0.22094,2.33067 -0.65856,3.24559 -0.43381,0.91491 -1.06084,1.67998 -1.86927,2.27941 -0.80846,0.59942 -1.77069,1.05688 -2.88279,1.36054 -1.11603,0.30366 -2.3504,0.45746 -3.70698,0.45746 -1.2462,0 -2.34251,-0.0907 -3.29687,-0.27605 -0.9504,-0.18536 -1.82195,-0.44168 -2.60672,-0.75717 -0.78479,-0.31549 -1.52617,-0.69013 -2.22815,-1.13182 -0.70196,-0.43379 -1.42364,-0.91491 -2.16504,-1.43941"
       style="fill:#2548a3;fill-opacity:1;fill-rule:nonzero;stroke:none;stroke-width:3.9436" /><path
       id="path23"
       d="m -328.08824,185.57996 h -4.59036 v -23.96925 h 4.59036 z"
       style="fill:#2548a3;fill-opacity:1;fill-rule:nonzero;stroke:none;stroke-width:3.9436" /><path
       id="path24"
       d="m -319.17448,183.41728 c 0,0.6783 -0.23662,1.25013 -0.70589,1.72336 -0.46929,0.46929 -1.04111,0.70196 -1.71943,0.70196 -0.65463,0 -1.21857,-0.23268 -1.68784,-0.70196 -0.4693,-0.47323 -0.70592,-1.04506 -0.70592,-1.72336 0,-0.65464 0.23662,-1.21857 0.70592,-1.68786 0.46927,-0.46929 1.03321,-0.70196 1.68784,-0.70196 0.67832,0 1.25014,0.23268 1.71943,0.70196 0.46927,0.46929 0.70589,1.03322 0.70589,1.68786"
       style="fill:#2548a3;fill-opacity:1;fill-rule:nonzero;stroke:none;stroke-width:3.9436" /><path
       id="path25"
       d="m -310.6496,185.57996 h -4.59036 v -23.96925 h 4.59036 z"
       style="fill:#2548a3;fill-opacity:1;fill-rule:nonzero;stroke:none;stroke-width:3.9436" /><path
       id="path26"
       d="m -288.83906,165.64423 h -6.85398 v 19.93889 h -4.59036 v -19.93889 h -6.88554 v -4.06192 h 18.32988 z"
       style="fill:#2548a3;fill-opacity:1;fill-rule:nonzero;stroke:none;stroke-width:3.9436" /></g></svg>
